WaldbaHiwua-Regular.ufo
<glyph name="quotedbl" format="2">
  <advance width="1381"/>
  <unicode hex="0022"/>
  <outline>
    <contour>
      <point x="558" y="650" type="line"/>
      <point x="387" y="650" type="line"/>
      <point x="362" y="1296" type="line"/>
      <point x="580" y="1296" type="line"/>
    </contour>
    <contour>
      <point x="995" y="650" type="line"/>
      <point x="824" y="650" type="line"/>
      <point x="801" y="1296" type="line"/>
      <point x="1019" y="1296" type="line"/>
    </contour>
  </outline>
</glyph>
<glyph name="numbersign" format="2">
  <advance width="1381"/>
  <unicode hex="0023"/>
  <outline>
    <contour>
      <point x="543" y="1045" type="line"/>
      <point x="877" y="1045" type="line"/>
      <point x="905" y="1517" type="line"/>
      <point x="1013" y="1517" type="line"/>
      <point x="986" y="1045" type="line"/>
      <point x="1202" y="1045" type="line"/>
      <point x="1202" y="896" type="line"/>
      <point x="978" y="896" type="line"/>
      <point x="955" y="511" type="line"/>
      <point x="1202" y="511" type="line"/>
      <point x="1202" y="362" type="line"/>
      <point x="949" y="362" type="line"/>
      <point x="921" y="-132" type="line"/>
      <point x="813" y="-132" type="line"/>
      <point x="841" y="362" type="line"/>
      <point x="505" y="362" type="line"/>
      <point x="479" y="-132" type="line"/>
      <point x="371" y="-132" type="line"/>
      <point x="396" y="362" type="line"/>
      <point x="180" y="362" type="line"/>
      <point x="180" y="511" type="line"/>
      <point x="405" y="511" type="line"/>
      <point x="428" y="896" type="line"/>
      <point x="180" y="896" type="line"/>
      <point x="180" y="1045" type="line"/>
      <point x="435" y="1045" type="line"/>
      <point x="463" y="1517" type="line"/>
      <point x="571" y="1517" type="line"/>
    </contour>
    <contour>
      <point x="514" y="511" type="line"/>
      <point x="847" y="511" type="line"/>
      <point x="870" y="896" type="line"/>
      <point x="536" y="896" type="line"/>
    </contour>
  </outline>
</glyph>
<glyph name="dollar" format="2">
  <advance width="1381"/>
  <unicode hex="0024"/>
  <outline>
    <contour>
      <point x="1096" y="1259" type="line"/>
      <point x="1094" y="1236"/>
      <point x="1091" y="1184"/>
      <point x="1091" y="1149" type="qcurve" smooth="yes"/>
      <point x="1091" y="1039"/>
      <point x="1109" y="870"/>
      <point x="1116" y="813" type="qcurve"/>
      <point x="1010" y="801" type="line"/>
      <point x="995" y="914"/>
      <point x="930" y="1050"/>
      <point x="854" y="1123"/>
      <point x="773" y="1151"/>
      <point x="741" y="1158" type="qcurve"/>
      <point x="741" y="688" type="line"/>
      <point x="813" y="668"/>
      <point x="953" y="622"/>
      <point x="1063" y="550"/>
      <point x="1131" y="439"/>
      <point x="1131" y="356" type="qcurve" smooth="yes"/>
      <point x="1131" y="283"/>
      <point x="1070" y="171"/>
      <point x="964" y="88"/>
      <point x="822" y="39"/>
      <point x="741" y="33" type="qcurve"/>
      <point x="741" y="-314" type="line"/>
      <point x="631" y="-314" type="line"/>
      <point x="631" y="33" type="line"/>
      <point x="613" y="33"/>
      <point x="582" y="35"/>
      <point x="541" y="46"/>
      <point x="483" y="62"/>
      <point x="439" y="76" type="qcurve"/>
      <point x="415" y="85"/>
      <point x="393" y="88"/>
      <point x="389" y="88" type="qcurve" smooth="yes"/>
      <point x="366" y="88"/>
      <point x="359" y="60"/>
      <point x="356" y="20" type="qcurve"/>
      <point x="248" y="20" type="line"/>
      <point x="255" y="147"/>
      <point x="242" y="352"/>
      <point x="226" y="468" type="qcurve"/>
      <point x="334" y="468" type="line"/>
      <point x="341" y="428"/>
      <point x="369" y="325"/>
      <point x="430" y="228"/>
      <point x="541" y="154"/>
      <point x="631" y="143" type="qcurve"/>
      <point x="631" y="601" type="line"/>
      <point x="573" y="617"/>
      <point x="444" y="659"/>
      <point x="336" y="732"/>
      <point x="265" y="847"/>
      <point x="265" y="937" type="qcurve" smooth="yes"/>
      <point x="265" y="1082"/>
      <point x="465" y="1257"/>
      <point x="631" y="1270" type="qcurve"/>
      <point x="631" y="1510" type="line"/>
      <point x="741" y="1510" type="line"/>
      <point x="741" y="1270" type="line"/>
      <point x="819" y="1259"/>
      <point x="900" y="1222" type="qcurve" smooth="yes"/>
      <point x="930" y="1208"/>
      <point x="946" y="1202"/>
      <point x="955" y="1202" type="qcurve" smooth="yes"/>
      <point x="973" y="1202"/>
      <point x="982" y="1225"/>
      <point x="988" y="1259" type="qcurve"/>
    </contour>
    <contour>
      <point x="631" y="1160" type="line"/>
      <point x="604" y="1155"/>
      <point x="520" y="1137"/>
      <point x="442" y="1089"/>
      <point x="384" y="1008"/>
      <point x="384" y="942" type="qcurve" smooth="yes"/>
      <point x="384" y="886"/>
      <point x="428" y="815"/>
      <point x="497" y="767"/>
      <point x="584" y="734"/>
      <point x="631" y="720" type="qcurve"/>
    </contour>
    <contour>
      <point x="741" y="143" type="line"/>
      <point x="778" y="145"/>
      <point x="870" y="165"/>
      <point x="953" y="214"/>
      <point x="1010" y="294"/>
      <point x="1010" y="354" type="qcurve" smooth="yes"/>
      <point x="1010" y="407"/>
      <point x="962" y="479"/>
      <point x="886" y="527"/>
      <point x="789" y="560"/>
      <point x="741" y="573" type="qcurve"/>
    </contour>
  </outline>
</glyph>
<glyph name="percent" format="2">
  <advance width="1381"/>
  <unicode hex="0025"/>
  <outline>
    <contour>
      <point x="923" y="582" type="qcurve" smooth="yes"/>
      <point x="1004" y="582"/>
      <point x="1125" y="527"/>
      <point x="1208" y="437"/>
      <point x="1250" y="327"/>
      <point x="1250" y="274" type="qcurve" smooth="yes"/>
      <point x="1250" y="219"/>
      <point x="1206" y="110"/>
      <point x="1123" y="22"/>
      <point x="1001" y="-33"/>
      <point x="923" y="-33" type="qcurve" smooth="yes"/>
      <point x="843" y="-33"/>
      <point x="723" y="22"/>
      <point x="640" y="112"/>
      <point x="598" y="221"/>
      <point x="598" y="274" type="qcurve" smooth="yes"/>
      <point x="598" y="325"/>
      <point x="640" y="435"/>
      <point x="720" y="525"/>
      <point x="843" y="582"/>
    </contour>
    <contour>
      <point x="923" y="474" type="qcurve" smooth="yes"/>
      <point x="874" y="474"/>
      <point x="801" y="439"/>
      <point x="751" y="384"/>
      <point x="723" y="314"/>
      <point x="723" y="277" type="qcurve" smooth="yes"/>
      <point x="723" y="198"/>
      <point x="826" y="76"/>
      <point x="923" y="76" type="qcurve" smooth="yes"/>
      <point x="971" y="76"/>
      <point x="1048" y="110"/>
      <point x="1100" y="169"/>
      <point x="1125" y="239"/>
      <point x="1125" y="277" type="qcurve" smooth="yes"/>
      <point x="1125" y="310"/>
      <point x="1100" y="382"/>
      <point x="1050" y="439"/>
      <point x="973" y="474"/>
    </contour>
    <contour>
      <point x="428" y="1413" type="qcurve" smooth="yes"/>
      <point x="507" y="1413"/>
      <point x="628" y="1358"/>
      <point x="711" y="1268"/>
      <point x="755" y="1160"/>
      <point x="755" y="1105" type="qcurve" smooth="yes"/>
      <point x="755" y="1050"/>
      <point x="711" y="940"/>
      <point x="628" y="852"/>
      <point x="507" y="799"/>
      <point x="428" y="799" type="qcurve" smooth="yes"/>
      <point x="352" y="799"/>
      <point x="230" y="854"/>
      <point x="147" y="940"/>
      <point x="103" y="1050"/>
      <point x="103" y="1105" type="qcurve" smooth="yes"/>
      <point x="103" y="1158"/>
      <point x="145" y="1268"/>
      <point x="228" y="1358"/>
      <point x="347" y="1413"/>
    </contour>
    <contour>
      <point x="430" y="1305" type="qcurve" smooth="yes"/>
      <point x="380" y="1305"/>
      <point x="303" y="1270"/>
      <point x="253" y="1213"/>
      <point x="228" y="1142"/>
      <point x="228" y="1105" type="qcurve" smooth="yes"/>
      <point x="228" y="1068"/>
      <point x="255" y="997"/>
      <point x="306" y="942"/>
      <point x="382" y="907"/>
      <point x="430" y="907" type="qcurve" smooth="yes"/>
      <point x="527" y="907"/>
      <point x="631" y="1026"/>
      <point x="631" y="1105" type="qcurve" smooth="yes"/>
      <point x="631" y="1181"/>
      <point x="527" y="1305"/>
    </contour>
    <contour>
      <point x="246" y="444" type="line"/>
      <point x="200" y="553" type="line"/>
      <point x="1135" y="967" type="line"/>
      <point x="1181" y="859" type="line"/>
    </contour>
  </outline>
</glyph>
<glyph name="parenright" format="2">
  <advance width="600"/>
  <unicode hex="0029"/>
  <outline>
    <contour>
      <point x="137" y="-96" type="line"/>
      <point x="152" y="-69"/>
      <point x="192" y="11"/>
      <point x="229" y="108"/>
      <point x="254" y="218"/>
      <point x="254" y="276" type="qcurve" smooth="yes"/>
      <point x="254" y="334"/>
      <point x="229" y="443"/>
      <point x="192" y="539"/>
      <point x="152" y="620"/>
      <point x="137" y="649" type="qcurve"/>
      <point x="189" y="649" type="line"/>
      <point x="220" y="601"/>
      <point x="267" y="502"/>
      <point x="298" y="405"/>
      <point x="314" y="315"/>
      <point x="314" y="276" type="qcurve" smooth="yes"/>
      <point x="314" y="235"/>
      <point x="297" y="142"/>
      <point x="265" y="45"/>
      <point x="218" y="-52"/>
      <point x="189" y="-96" type="qcurve"/>
    </contour>
  </outline>
</glyph>
<glyph name="asterisk" format="2">
  <advance width="1381"/>
  <unicode hex="002A"/>
  <outline>
    <contour>
      <point x="755" y="958" type="line"/>
      <point x="1077" y="1075" type="line"/>
      <point x="1125" y="927" type="line"/>
      <point x="795" y="835" type="line"/>
      <point x="1008" y="569" type="line"/>
      <point x="881" y="474" type="line"/>
      <point x="690" y="762" type="line"/>
      <point x="499" y="474" type="line"/>
      <point x="373" y="569" type="line"/>
      <point x="587" y="835" type="line"/>
      <point x="255" y="927" type="line"/>
      <point x="303" y="1075" type="line"/>
      <point x="626" y="958" type="line"/>
      <point x="613" y="1296" type="line"/>
      <point x="769" y="1296" type="line"/>
    </contour>
  </outline>
</glyph>
<glyph name="period" format="2">
  <advance width="600"/>
  <unicode hex="002E"/>
  <outline>
    <contour>
      <point x="300" y="119" type="qcurve" smooth="yes"/>
      <point x="315" y="119"/>
      <point x="342" y="109"/>
      <point x="364" y="91"/>
      <point x="377" y="66"/>
      <point x="377" y="51" type="qcurve" smooth="yes"/>
      <point x="377" y="35"/>
      <point x="363" y="10"/>
      <point x="341" y="-8"/>
      <point x="313" y="-17"/>
      <point x="300" y="-17" type="qcurve" smooth="yes"/>
      <point x="287" y="-17"/>
      <point x="260" y="-8"/>
      <point x="237" y="9"/>
      <point x="223" y="34"/>
      <point x="223" y="51" type="qcurve" smooth="yes"/>
      <point x="223" y="67"/>
      <point x="237" y="92"/>
      <point x="259" y="110"/>
      <point x="286" y="119"/>
    </contour>
  </outline>
</glyph>
<glyph name="slash" format="2">
  <advance width="1381"/>
  <unicode hex="002F"/>
  <outline>
    <contour>
      <point x="308" y="-306" type="line"/>
      <point x="209" y="-260" type="line"/>
      <point x="1072" y="1616" type="line"/>
      <point x="1171" y="1575" type="line"/>
    </contour>
  </outline>
</glyph>
<glyph name="two" format="2">
  <advance width="1381"/>
  <unicode hex="0032"/>
  <outline>
    <contour>
      <point x="1087" y="0" type="line"/>
      <point x="189" y="0" type="line"/>
      <point x="189" y="123" type="line"/>
      <point x="226" y="154"/>
      <point x="382" y="292"/>
      <point x="569" y="461"/>
      <point x="760" y="637"/>
      <point x="828" y="709" type="qcurve"/>
      <point x="912" y="792"/>
      <point x="964" y="927"/>
      <point x="964" y="1008" type="qcurve" smooth="yes"/>
      <point x="964" y="1091"/>
      <point x="898" y="1206"/>
      <point x="801" y="1280"/>
      <point x="690" y="1314"/>
      <point x="646" y="1314" type="qcurve" smooth="yes"/>
      <point x="615" y="1314"/>
      <point x="514" y="1294"/>
      <point x="417" y="1239"/>
      <point x="350" y="1146"/>
      <point x="354" y="1075" type="qcurve"/>
      <point x="235" y="1075" type="line"/>
      <point x="235" y="1225" type="line"/>
      <point x="299" y="1300"/>
      <point x="435" y="1386"/>
      <point x="553" y="1423"/>
      <point x="637" y="1430"/>
      <point x="652" y="1430" type="qcurve" smooth="yes"/>
      <point x="732" y="1430"/>
      <point x="889" y="1370"/>
      <point x="1013" y="1259"/>
      <point x="1089" y="1100"/>
      <point x="1089" y="1004" type="qcurve" smooth="yes"/>
      <point x="1089" y="930"/>
      <point x="1052" y="815"/>
      <point x="1010" y="749" type="qcurve" smooth="yes"/>
      <point x="982" y="705"/>
      <point x="854" y="564"/>
      <point x="674" y="393"/>
      <point x="459" y="205"/>
      <point x="343" y="112" type="qcurve"/>
      <point x="343" y="108" type="line"/>
      <point x="978" y="108" type="line"/>
      <point x="978" y="336" type="line"/>
      <point x="1087" y="336" type="line"/>
    </contour>
  </outline>
</glyph>
<glyph name="three" format="2">
  <advance width="600"/>
  <unicode hex="0033"/>
  <outline>
    <contour>
      <point x="103" y="79" type="line"/>
      <point x="141" y="61"/>
      <point x="227" y="33"/>
      <point x="269" y="33" type="qcurve" smooth="yes"/>
      <point x="296" y="33"/>
      <point x="349" y="50"/>
      <point x="391" y="85"/>
      <point x="416" y="136"/>
      <point x="416" y="169" type="qcurve" smooth="yes"/>
      <point x="416" y="204"/>
      <point x="392" y="250"/>
      <point x="363" y="277"/>
      <point x="336" y="289"/>
      <point x="333" y="290" type="qcurve" smooth="yes"/>
      <point x="307" y="299"/>
      <point x="260" y="301"/>
      <point x="236" y="299" type="qcurve"/>
      <point x="236" y="346" type="line"/>
      <point x="258" y="346"/>
      <point x="309" y="352"/>
      <point x="332" y="367" type="qcurve" smooth="yes"/>
      <point x="357" y="384"/>
      <point x="384" y="436"/>
      <point x="384" y="465" type="qcurve" smooth="yes"/>
      <point x="384" y="516"/>
      <point x="316" y="574"/>
      <point x="265" y="574" type="qcurve" smooth="yes"/>
      <point x="226" y="574"/>
      <point x="162" y="541"/>
      <point x="139" y="527" type="qcurve" smooth="yes"/>
      <point x="121" y="516" type="line"/>
      <point x="96" y="555" type="line"/>
      <point x="138" y="582"/>
      <point x="218" y="621"/>
      <point x="266" y="621" type="qcurve" smooth="yes"/>
      <point x="298" y="621"/>
      <point x="359" y="600"/>
      <point x="407" y="560"/>
      <point x="436" y="503"/>
      <point x="436" y="466" type="qcurve" smooth="yes"/>
      <point x="436" y="433"/>
      <point x="417" y="385"/>
      <point x="391" y="352"/>
      <point x="365" y="334"/>
      <point x="359" y="330" type="qcurve"/>
      <point x="375" y="324"/>
      <point x="412" y="298"/>
      <point x="445" y="259"/>
      <point x="467" y="205"/>
      <point x="467" y="171" type="qcurve" smooth="yes"/>
      <point x="467" y="129"/>
      <point x="436" y="60"/>
      <point x="381" y="12"/>
      <point x="308" y="-14"/>
      <point x="266" y="-14" type="qcurve" smooth="yes"/>
      <point x="243" y="-14"/>
      <point x="204" y="-8"/>
      <point x="163" y="5"/>
      <point x="115" y="23"/>
      <point x="84" y="35" type="qcurve"/>
    </contour>
  </outline>
</glyph>
<glyph name="five" format="2">
  <advance width="600"/>
  <unicode hex="0035"/>
  <outline>
    <contour>
      <point x="460" y="558" type="line"/>
      <point x="171" y="558" type="line"/>
      <point x="171" y="356" type="line"/>
      <point x="194" y="366"/>
      <point x="252" y="384"/>
      <point x="292" y="384" type="qcurve" smooth="yes"/>
      <point x="337" y="384"/>
      <point x="410" y="353"/>
      <point x="461" y="300"/>
      <point x="489" y="228"/>
      <point x="489" y="188" type="qcurve" smooth="yes"/>
      <point x="489" y="158"/>
      <point x="469" y="87"/>
      <point x="420" y="27"/>
      <point x="339" y="-14"/>
      <point x="279" y="-14" type="qcurve" smooth="yes"/>
      <point x="226" y="-14"/>
      <point x="141" y="11"/>
      <point x="91" y="31" type="qcurve"/>
      <point x="109" y="76" type="line"/>
      <point x="121" y="71"/>
      <point x="156" y="57"/>
      <point x="199" y="45"/>
      <point x="249" y="36"/>
      <point x="275" y="36" type="qcurve" smooth="yes"/>
      <point x="316" y="36"/>
      <point x="376" y="59"/>
      <point x="416" y="100"/>
      <point x="435" y="154"/>
      <point x="435" y="186" type="qcurve" smooth="yes"/>
      <point x="435" y="216"/>
      <point x="415" y="271"/>
      <point x="376" y="313"/>
      <point x="320" y="337"/>
      <point x="284" y="337" type="qcurve" smooth="yes"/>
      <point x="246" y="337"/>
      <point x="182" y="312"/>
      <point x="151" y="289" type="qcurve"/>
      <point x="126" y="303" type="line"/>
      <point x="126" y="606" type="line"/>
      <point x="460" y="606" type="line"/>
    </contour>
  </outline>
</glyph>
<glyph name="nine" format="2">
  <advance width="1381"/>
  <unicode hex="0039"/>
  <outline>
    <contour>
      <point x="187" y="83" type="line"/>
      <point x="318" y="76"/>
      <point x="564" y="94"/>
      <point x="769" y="214"/>
      <point x="914" y="477"/>
      <point x="942" y="714" type="qcurve"/>
      <point x="937" y="718" type="line"/>
      <point x="923" y="700"/>
      <point x="870" y="642"/>
      <point x="787" y="587"/>
      <point x="674" y="545"/>
      <point x="604" y="545" type="qcurve" smooth="yes"/>
      <point x="514" y="545"/>
      <point x="364" y="619"/>
      <point x="257" y="744"/>
      <point x="200" y="905"/>
      <point x="200" y="992" type="qcurve" smooth="yes"/>
      <point x="200" y="1080"/>
      <point x="260" y="1239"/>
      <point x="369" y="1358"/>
      <point x="518" y="1430"/>
      <point x="608" y="1430" type="qcurve" smooth="yes"/>
      <point x="677" y="1430"/>
      <point x="841" y="1370"/>
      <point x="978" y="1225"/>
      <point x="1070" y="980"/>
      <point x="1070" y="799" type="qcurve" smooth="yes"/>
      <point x="1070" y="744"/>
      <point x="1048" y="527"/>
      <point x="962" y="285"/>
      <point x="787" y="66"/>
      <point x="635" y="11" type="qcurve" smooth="yes"/>
      <point x="610" y="2"/>
      <point x="538" y="-18"/>
      <point x="435" y="-33"/>
      <point x="288" y="-37"/>
      <point x="187" y="-33" type="qcurve"/>
    </contour>
    <contour>
      <point x="942" y="909" type="qcurve"/>
      <point x="934" y="1028"/>
      <point x="861" y="1186"/>
      <point x="762" y="1278"/>
      <point x="652" y="1314"/>
      <point x="608" y="1314" type="qcurve" smooth="yes"/>
      <point x="553" y="1314"/>
      <point x="451" y="1270"/>
      <point x="371" y="1188"/>
      <point x="325" y="1068"/>
      <point x="325" y="992" type="qcurve" smooth="yes"/>
      <point x="325" y="925"/>
      <point x="366" y="806"/>
      <point x="437" y="716"/>
      <point x="541" y="661"/>
      <point x="604" y="661" type="qcurve" smooth="yes"/>
      <point x="619" y="661"/>
      <point x="703" y="670"/>
      <point x="804" y="718"/>
      <point x="905" y="819"/>
    </contour>
  </outline>
</glyph>
<glyph name="colon" format="2">
  <advance width="1381"/>
  <unicode hex="003A"/>
  <outline>
    <contour>
      <point x="690" y="898" type="qcurve" smooth="yes"/>
      <point x="720" y="898"/>
      <point x="785" y="877"/>
      <point x="835" y="835"/>
      <point x="868" y="778"/>
      <point x="868" y="741" type="qcurve" smooth="yes"/>
      <point x="868" y="705"/>
      <point x="835" y="646"/>
      <point x="785" y="606"/>
      <point x="720" y="584"/>
      <point x="690" y="584" type="qcurve" smooth="yes"/>
      <point x="661" y="584"/>
      <point x="598" y="606"/>
      <point x="545" y="644"/>
      <point x="514" y="703"/>
      <point x="514" y="741" type="qcurve" smooth="yes"/>
      <point x="514" y="778"/>
      <point x="545" y="835"/>
      <point x="596" y="877"/>
      <point x="659" y="898"/>
    </contour>
    <contour>
      <point x="690" y="274" type="qcurve" smooth="yes"/>
      <point x="720" y="274"/>
      <point x="785" y="253"/>
      <point x="835" y="211"/>
      <point x="868" y="154"/>
      <point x="868" y="117" type="qcurve" smooth="yes"/>
      <point x="868" y="81"/>
      <point x="835" y="22"/>
      <point x="785" y="-18"/>
      <point x="720" y="-39"/>
      <point x="690" y="-39" type="qcurve" smooth="yes"/>
      <point x="661" y="-39"/>
      <point x="598" y="-18"/>
      <point x="545" y="20"/>
      <point x="514" y="79"/>
      <point x="514" y="117" type="qcurve" smooth="yes"/>
      <point x="514" y="154"/>
      <point x="545" y="211"/>
      <point x="596" y="253"/>
      <point x="659" y="274"/>
    </contour>
  </outline>
</glyph>
<glyph name="semicolon" format="2">
  <advance width="600"/>
  <unicode hex="003B"/>
  <outline>
    <contour>
      <point x="252" y="-108" type="line"/>
      <point x="181" y="-108" type="line"/>
      <point x="258" y="134" type="line"/>
      <point x="361" y="134" type="line"/>
    </contour>
    <contour>
      <point x="300" y="390" type="qcurve" smooth="yes"/>
      <point x="313" y="390"/>
      <point x="341" y="381"/>
      <point x="363" y="363"/>
      <point x="377" y="338"/>
      <point x="377" y="322" type="qcurve" smooth="yes"/>
      <point x="377" y="306"/>
      <point x="363" y="281"/>
      <point x="341" y="263"/>
      <point x="313" y="254"/>
      <point x="300" y="254" type="qcurve" smooth="yes"/>
      <point x="287" y="254"/>
      <point x="260" y="263"/>
      <point x="237" y="280"/>
      <point x="223" y="305"/>
      <point x="223" y="322" type="qcurve" smooth="yes"/>
      <point x="223" y="338"/>
      <point x="237" y="363"/>
      <point x="259" y="381"/>
      <point x="286" y="390"/>
    </contour>
  </outline>
</glyph>
<glyph name="less" format="2">
  <advance width="1381"/>
  <unicode hex="003C"/>
  <outline>
    <contour>
      <point x="1211" y="1225" type="line"/>
      <point x="1257" y="1121" type="line"/>
      <point x="380" y="709" type="line"/>
      <point x="1257" y="306" type="line"/>
      <point x="1211" y="205" type="line"/>
      <point x="125" y="709" type="line"/>
    </contour>
  </outline>
</glyph>
<glyph name="greater" format="2">
  <advance width="1381"/>
  <unicode hex="003E"/>
  <outline>
    <contour>
      <point x="171" y="193" type="line"/>
      <point x="125" y="297" type="line"/>
      <point x="1001" y="709" type="line"/>
      <point x="125" y="1112" type="line"/>
      <point x="171" y="1213" type="line"/>
      <point x="1257" y="709" type="line"/>
    </contour>
  </outline>
</glyph>
<glyph name="at" format="2">
  <advance width="1381"/>
  <unicode hex="0040"/>
  <outline>
    <contour>
      <point x="1227" y="132" type="line"/>
      <point x="1225" y="132"/>
      <point x="1215" y="125"/>
      <point x="1213" y="125" type="qcurve"/>
      <point x="1096" y="57"/>
      <point x="815" y="-33"/>
      <point x="663" y="-33" type="qcurve" smooth="yes"/>
      <point x="511" y="-33"/>
      <point x="290" y="74"/>
      <point x="145" y="248"/>
      <point x="74" y="477"/>
      <point x="74" y="598" type="qcurve" smooth="yes"/>
      <point x="74" y="736"/>
      <point x="158" y="976"/>
      <point x="320" y="1153"/>
      <point x="560" y="1257"/>
      <point x="711" y="1257" type="qcurve" smooth="yes"/>
      <point x="837" y="1257"/>
      <point x="1054" y="1181"/>
      <point x="1213" y="1034"/>
      <point x="1305" y="819"/>
      <point x="1305" y="683" type="qcurve" smooth="yes"/>
      <point x="1305" y="587"/>
      <point x="1257" y="424"/>
      <point x="1167" y="308"/>
      <point x="1045" y="244"/>
      <point x="971" y="244" type="qcurve" smooth="yes"/>
      <point x="946" y="244"/>
      <point x="916" y="248"/>
      <point x="886" y="265"/>
      <point x="847" y="292"/>
      <point x="815" y="316" type="qcurve" smooth="yes"/>
      <point x="797" y="329"/>
      <point x="789" y="350"/>
      <point x="789" y="362" type="qcurve"/>
      <point x="776" y="345"/>
      <point x="736" y="303"/>
      <point x="681" y="265"/>
      <point x="613" y="239"/>
      <point x="571" y="239" type="qcurve" smooth="yes"/>
      <point x="550" y="239"/>
      <point x="488" y="260"/>
      <point x="430" y="310"/>
      <point x="391" y="402"/>
      <point x="391" y="472" type="qcurve" smooth="yes"/>
      <point x="391" y="547"/>
      <point x="444" y="711"/>
      <point x="536" y="845"/>
      <point x="659" y="930"/>
      <point x="729" y="930" type="qcurve" smooth="yes"/>
      <point x="787" y="930"/>
      <point x="845" y="863"/>
      <point x="861" y="837" type="qcurve"/>
      <point x="881" y="918" type="line"/>
      <point x="1001" y="918" type="line"/>
      <point x="903" y="560" type="line"/>
      <point x="903" y="550"/>
      <point x="879" y="472"/>
      <point x="879" y="444" type="qcurve" smooth="yes"/>
      <point x="879" y="419"/>
      <point x="932" y="352"/>
      <point x="986" y="352" type="qcurve" smooth="yes"/>
      <point x="1028" y="352"/>
      <point x="1105" y="407"/>
      <point x="1162" y="501"/>
      <point x="1195" y="626"/>
      <point x="1195" y="698" type="qcurve" smooth="yes"/>
      <point x="1195" y="810"/>
      <point x="1118" y="980"/>
      <point x="986" y="1094"/>
      <point x="808" y="1149"/>
      <point x="707" y="1149" type="qcurve" smooth="yes"/>
      <point x="569" y="1149"/>
      <point x="375" y="1052"/>
      <point x="251" y="898"/>
      <point x="193" y="700"/>
      <point x="193" y="596" type="qcurve" smooth="yes"/>
      <point x="193" y="505"/>
      <point x="244" y="320"/>
      <point x="356" y="171"/>
      <point x="538" y="76"/>
      <point x="670" y="76" type="qcurve" smooth="yes"/>
      <point x="815" y="76"/>
      <point x="1048" y="158"/>
      <point x="1128" y="202" type="qcurve" smooth="yes"/>
      <point x="1162" y="221" type="line"/>
      <point x="1164" y="221"/>
      <point x="1177" y="228"/>
      <point x="1179" y="228" type="qcurve"/>
    </contour>
    <contour>
      <point x="582" y="352" type="qcurve" smooth="yes"/>
      <point x="626" y="352"/>
      <point x="705" y="424"/>
      <point x="764" y="527"/>
      <point x="799" y="650"/>
      <point x="799" y="700" type="qcurve" smooth="yes"/>
      <point x="799" y="753"/>
      <point x="749" y="815"/>
      <point x="716" y="815" type="qcurve" smooth="yes"/>
      <point x="677" y="815"/>
      <point x="601" y="744"/>
      <point x="543" y="637"/>
      <point x="509" y="514"/>
      <point x="509" y="463" type="qcurve" smooth="yes"/>
      <point x="509" y="446"/>
      <point x="516" y="410"/>
      <point x="534" y="375"/>
      <point x="562" y="352"/>
    </contour>
  </outline>
</glyph>
<glyph name="A" format="2">
  <advance width="1381"/>
  <unicode hex="0041"/>
  <outline>
    <contour>
      <point x="1241" y="108" type="line"/>
      <point x="1358" y="108" type="line"/>
      <point x="1358" y="0" type="line"/>
      <point x="886" y="0" type="line"/>
      <point x="886" y="108" type="line"/>
      <point x="1121" y="108" type="line"/>
      <point x="990" y="428" type="line"/>
      <point x="389" y="428" type="line"/>
      <point x="260" y="108" type="line"/>
      <point x="495" y="108" type="line"/>
      <point x="495" y="0" type="line"/>
      <point x="22" y="0" type="line"/>
      <point x="22" y="108" type="line"/>
      <point x="145" y="108" type="line"/>
      <point x="589" y="1188" type="line"/>
      <point x="260" y="1188" type="line"/>
      <point x="260" y="1296" type="line"/>
      <point x="755" y="1296" type="line"/>
    </contour>
    <contour>
      <point x="430" y="529" type="line"/>
      <point x="951" y="529" type="line"/>
      <point x="690" y="1160" type="line"/>
    </contour>
  </outline>
</glyph>
<glyph name="B" format="2">
  <advance width="1381"/>
  <unicode hex="0042"/>
  <outline>
    <contour>
      <point x="732" y="1296" type="line" smooth="yes"/>
      <point x="868" y="1296"/>
      <point x="1015" y="1243"/>
      <point x="1112" y="1155"/>
      <point x="1171" y="1036"/>
      <point x="1171" y="962" type="qcurve" smooth="yes"/>
      <point x="1171" y="900"/>
      <point x="1133" y="804"/>
      <point x="1075" y="734"/>
      <point x="1013" y="688"/>
      <point x="990" y="677" type="qcurve"/>
      <point x="1114" y="640"/>
      <point x="1252" y="479"/>
      <point x="1252" y="354" type="qcurve" smooth="yes"/>
      <point x="1252" y="257"/>
      <point x="1162" y="103"/>
      <point x="1089" y="64" type="qcurve" smooth="yes"/>
      <point x="1052" y="44"/>
      <point x="982" y="18"/>
      <point x="898" y="4"/>
      <point x="789" y="0"/>
      <point x="711" y="0" type="qcurve" smooth="yes"/>
      <point x="103" y="0" type="line"/>
      <point x="103" y="108" type="line"/>
      <point x="294" y="108" type="line"/>
      <point x="294" y="1188" type="line"/>
      <point x="103" y="1188" type="line"/>
      <point x="103" y="1296" type="line"/>
    </contour>
    <contour>
      <point x="410" y="727" type="line"/>
      <point x="716" y="727" type="line" smooth="yes"/>
      <point x="828" y="727"/>
      <point x="962" y="782"/>
      <point x="1032" y="859"/>
      <point x="1052" y="940"/>
      <point x="1052" y="967" type="qcurve" smooth="yes"/>
      <point x="1052" y="1050"/>
      <point x="964" y="1140"/>
      <point x="852" y="1181"/>
      <point x="746" y="1188"/>
      <point x="727" y="1188" type="qcurve" smooth="yes"/>
      <point x="410" y="1188" type="line"/>
    </contour>
    <contour>
      <point x="410" y="108" type="line"/>
      <point x="707" y="108" type="line" smooth="yes"/>
      <point x="769" y="108"/>
      <point x="916" y="115"/>
      <point x="1045" y="161"/>
      <point x="1133" y="260"/>
      <point x="1133" y="354" type="qcurve" smooth="yes"/>
      <point x="1133" y="426"/>
      <point x="1066" y="527"/>
      <point x="951" y="589"/>
      <point x="789" y="619"/>
      <point x="698" y="619" type="qcurve" smooth="yes"/>
      <point x="410" y="619" type="line"/>
    </contour>
  </outline>
</glyph>
<glyph name="G" format="2">
  <advance width="1381"/>
  <unicode hex="0047"/>
  <outline>
    <contour>
      <point x="1202" y="1322" type="line"/>
      <point x="1199" y="1314"/>
      <point x="1197" y="1282"/>
      <point x="1197" y="1278" type="qcurve" smooth="yes"/>
      <point x="1197" y="1268"/>
      <point x="1195" y="1225"/>
      <point x="1190" y="1169"/>
      <point x="1188" y="1114"/>
      <point x="1188" y="1091" type="qcurve" smooth="yes"/>
      <point x="1188" y="1034"/>
      <point x="1197" y="923"/>
      <point x="1202" y="881" type="qcurve"/>
      <point x="1103" y="863" type="line"/>
      <point x="1096" y="903"/>
      <point x="1066" y="1024"/>
      <point x="986" y="1137"/>
      <point x="841" y="1220"/>
      <point x="718" y="1220" type="qcurve" smooth="yes"/>
      <point x="617" y="1220"/>
      <point x="442" y="1135"/>
      <point x="310" y="982"/>
      <point x="235" y="771"/>
      <point x="235" y="644" type="qcurve" smooth="yes"/>
      <point x="235" y="527"/>
      <point x="297" y="320"/>
      <point x="426" y="165"/>
      <point x="619" y="76"/>
      <point x="751" y="76" type="qcurve" smooth="yes"/>
      <point x="808" y="76"/>
      <point x="967" y="103"/>
      <point x="1103" y="149" type="qcurve"/>
      <point x="1103" y="461" type="line"/>
      <point x="762" y="461" type="line"/>
      <point x="762" y="569" type="line"/>
      <point x="1331" y="569" type="line"/>
      <point x="1331" y="461" type="line"/>
      <point x="1220" y="461" type="line"/>
      <point x="1220" y="74" type="line"/>
      <point x="960" y="-39"/>
      <point x="749" y="-39" type="qcurve" smooth="yes"/>
      <point x="571" y="-39"/>
      <point x="327" y="88"/>
      <point x="178" y="288"/>
      <point x="110" y="527"/>
      <point x="110" y="642" type="qcurve" smooth="yes"/>
      <point x="110" y="776"/>
      <point x="191" y="1024"/>
      <point x="347" y="1217"/>
      <point x="575" y="1335"/>
      <point x="723" y="1335" type="qcurve" smooth="yes"/>
      <point x="806" y="1335"/>
      <point x="944" y="1289"/>
      <point x="1010" y="1236" type="qcurve"/>
      <point x="1028" y="1217"/>
      <point x="1048" y="1208"/>
      <point x="1057" y="1208" type="qcurve" smooth="yes"/>
      <point x="1075" y="1208"/>
      <point x="1082" y="1245"/>
      <point x="1091" y="1322" type="qcurve"/>
    </contour>
  </outline>
</glyph>
<glyph name="I" format="2">
  <advance width="600"/>
  <unicode hex="0049"/>
  <outline>
    <contour>
      <point x="500" y="516" type="line"/>
      <point x="325" y="516" type="line"/>
      <point x="325" y="47" type="line"/>
      <point x="500" y="47" type="line"/>
      <point x="500" y="0" type="line"/>
      <point x="100" y="0" type="line"/>
      <point x="100" y="47" type="line"/>
      <point x="275" y="47" type="line"/>
      <point x="275" y="516" type="line"/>
      <point x="100" y="516" type="line"/>
      <point x="100" y="563" type="line"/>
      <point x="500" y="563" type="line"/>
    </contour>
  </outline>
</glyph>
<glyph name="J" format="2">
  <advance width="1381"/>
  <unicode hex="004A"/>
  <outline>
    <contour>
      <point x="1333" y="1188" type="line"/>
      <point x="1041" y="1188" type="line"/>
      <point x="1041" y="470" type="line" smooth="yes"/>
      <point x="1041" y="373"/>
      <point x="1019" y="180"/>
      <point x="973" y="108" type="qcurve"/>
      <point x="946" y="69"/>
      <point x="868" y="11"/>
      <point x="785" y="-22"/>
      <point x="700" y="-39"/>
      <point x="663" y="-39" type="qcurve" smooth="yes"/>
      <point x="525" y="-39"/>
      <point x="297" y="46"/>
      <point x="200" y="90" type="qcurve"/>
      <point x="156" y="108" type="line"/>
      <point x="136" y="606" type="line"/>
      <point x="248" y="606" type="line"/>
      <point x="257" y="382" type="line" smooth="yes"/>
      <point x="260" y="294"/>
      <point x="297" y="189"/>
      <point x="366" y="147" type="qcurve" smooth="yes"/>
      <point x="433" y="106"/>
      <point x="578" y="76"/>
      <point x="637" y="76" type="qcurve" smooth="yes"/>
      <point x="744" y="76"/>
      <point x="861" y="147"/>
      <point x="916" y="260"/>
      <point x="925" y="400"/>
      <point x="925" y="470" type="qcurve" smooth="yes"/>
      <point x="925" y="1188" type="line"/>
      <point x="472" y="1188" type="line"/>
      <point x="472" y="1296" type="line"/>
      <point x="1333" y="1296" type="line"/>
    </contour>
  </outline>
</glyph>
<glyph name="P" format="2">
  <advance width="1381"/>
  <unicode hex="0050"/>
  <outline>
    <contour>
      <point x="690" y="1296" type="line" smooth="yes"/>
      <point x="815" y="1296"/>
      <point x="969" y="1270"/>
      <point x="1032" y="1236" type="qcurve" smooth="yes"/>
      <point x="1118" y="1188"/>
      <point x="1230" y="999"/>
      <point x="1230" y="894" type="qcurve" smooth="yes"/>
      <point x="1230" y="845"/>
      <point x="1204" y="751"/>
      <point x="1160" y="668"/>
      <point x="1098" y="598"/>
      <point x="1061" y="578" type="qcurve"/>
      <point x="1019" y="553"/>
      <point x="940" y="525"/>
      <point x="837" y="511"/>
      <point x="698" y="509"/>
      <point x="593" y="509" type="qcurve" smooth="yes"/>
      <point x="465" y="509" type="line"/>
      <point x="465" y="108" type="line"/>
      <point x="804" y="108" type="line"/>
      <point x="804" y="0" type="line"/>
      <point x="163" y="0" type="line"/>
      <point x="163" y="108" type="line"/>
      <point x="350" y="108" type="line"/>
      <point x="350" y="1188" type="line"/>
      <point x="163" y="1188" type="line"/>
      <point x="163" y="1296" type="line"/>
    </contour>
    <contour>
      <point x="465" y="617" type="line"/>
      <point x="596" y="617" type="line" smooth="yes"/>
      <point x="736" y="617"/>
      <point x="949" y="631"/>
      <point x="1008" y="679" type="qcurve" smooth="yes"/>
      <point x="1041" y="705"/>
      <point x="1105" y="815"/>
      <point x="1105" y="898" type="qcurve" smooth="yes"/>
      <point x="1105" y="992"/>
      <point x="1013" y="1118"/>
      <point x="967" y="1142" type="qcurve" smooth="yes"/>
      <point x="946" y="1153"/>
      <point x="900" y="1169"/>
      <point x="837" y="1181"/>
      <point x="753" y="1188"/>
      <point x="690" y="1188" type="qcurve" smooth="yes"/>
      <point x="465" y="1188" type="line"/>
    </contour>
  </outline>
</glyph>
<glyph name="bracketleft" format="2">
  <advance width="1381"/>
  <unicode hex="005B"/>
  <outline>
    <contour>
      <point x="1116" y="1390" type="line"/>
      <point x="826" y="1390" type="line"/>
      <point x="826" y="-101" type="line"/>
      <point x="1116" y="-101" type="line"/>
      <point x="1116" y="-217" type="line"/>
      <point x="711" y="-217" type="line"/>
      <point x="711" y="1505" type="line"/>
      <point x="1116" y="1505" type="line"/>
    </contour>
  </outline>
</glyph>
<glyph name="underscore" format="2">
  <advance width="1381"/>
  <unicode hex="005F"/>
  <outline>
    <contour>
      <point x="1492" y="-288" type="line"/>
      <point x="-110" y="-288" type="line"/>
      <point x="-110" y="-173" type="line"/>
      <point x="1492" y="-173" type="line"/>
    </contour>
  </outline>
</glyph>
<glyph name="grave" format="2">
  <advance width="1381"/>
  <unicode hex="0060"/>
  <outline>
    <contour>
      <point x="861" y="1158" type="line"/>
      <point x="741" y="1158" type="line"/>
      <point x="437" y="1423" type="line"/>
      <point x="683" y="1423" type="line"/>
    </contour>
  </outline>
</glyph>
<glyph name="b" format="2">
  <advance width="1381"/>
  <unicode hex="0062"/>
  <outline>
    <contour>
      <point x="338" y="797" type="line"/>
      <point x="343" y="797" type="line"/>
      <point x="415" y="894"/>
      <point x="610" y="999"/>
      <point x="736" y="999" type="qcurve" smooth="yes"/>
      <point x="843" y="999"/>
      <point x="1032" y="918"/>
      <point x="1171" y="780"/>
      <point x="1252" y="591"/>
      <point x="1252" y="486" type="qcurve" smooth="yes"/>
      <point x="1252" y="389"/>
      <point x="1179" y="207"/>
      <point x="1045" y="64"/>
      <point x="859" y="-22"/>
      <point x="746" y="-22" type="qcurve" smooth="yes"/>
      <point x="652" y="-22"/>
      <point x="518" y="22"/>
      <point x="422" y="85"/>
      <point x="359" y="154"/>
      <point x="338" y="178" type="qcurve"/>
      <point x="338" y="0" type="line"/>
      <point x="39" y="0" type="line"/>
      <point x="39" y="108" type="line"/>
      <point x="224" y="108" type="line"/>
      <point x="224" y="1331" type="line"/>
      <point x="11" y="1320" type="line"/>
      <point x="11" y="1427" type="line"/>
      <point x="338" y="1448" type="line"/>
    </contour>
    <contour>
      <point x="341" y="490" type="qcurve" smooth="yes"/>
      <point x="341" y="410"/>
      <point x="402" y="265"/>
      <point x="509" y="156"/>
      <point x="656" y="92"/>
      <point x="744" y="92" type="qcurve" smooth="yes"/>
      <point x="828" y="92"/>
      <point x="971" y="156"/>
      <point x="1072" y="268"/>
      <point x="1128" y="410"/>
      <point x="1128" y="488" type="qcurve" smooth="yes"/>
      <point x="1128" y="566"/>
      <point x="1070" y="711"/>
      <point x="967" y="819"/>
      <point x="824" y="883"/>
      <point x="741" y="883" type="qcurve" smooth="yes"/>
      <point x="656" y="883"/>
      <point x="511" y="819"/>
      <point x="402" y="711"/>
      <point x="341" y="569"/>
    </contour>
  </outline>
</glyph>
<glyph name="c" format="2">
  <advance width="1381"/>
  <unicode hex="0063"/>
  <outline>
    <contour>
      <point x="1204" y="1008" type="line"/>
      <point x="1199" y="973"/>
      <point x="1184" y="856"/>
      <point x="1184" y="797" type="qcurve" smooth="yes"/>
      <point x="1184" y="734"/>
      <point x="1190" y="644" type="qcurve"/>
      <point x="1085" y="628" type="line"/>
      <point x="1075" y="668" type="line"/>
      <point x="1068" y="690"/>
      <point x="1041" y="773"/>
      <point x="969" y="852"/>
      <point x="835" y="909"/>
      <point x="725" y="909" type="qcurve" smooth="yes"/>
      <point x="615" y="909"/>
      <point x="448" y="837"/>
      <point x="341" y="720"/>
      <point x="288" y="573"/>
      <point x="288" y="499" type="qcurve" smooth="yes"/>
      <point x="288" y="428"/>
      <point x="336" y="281"/>
      <point x="439" y="158"/>
      <point x="601" y="83"/>
      <point x="716" y="83" type="qcurve" smooth="yes"/>
      <point x="841" y="83"/>
      <point x="1077" y="191"/>
      <point x="1204" y="279" type="qcurve"/>
      <point x="1263" y="191" type="line"/>
      <point x="1227" y="163"/>
      <point x="1114" y="88"/>
      <point x="971" y="16"/>
      <point x="801" y="-33"/>
      <point x="705" y="-33" type="qcurve" smooth="yes"/>
      <point x="582" y="-33"/>
      <point x="384" y="51"/>
      <point x="242" y="196"/>
      <point x="163" y="387"/>
      <point x="163" y="497" type="qcurve" smooth="yes"/>
      <point x="163" y="589"/>
      <point x="230" y="778"/>
      <point x="366" y="930"/>
      <point x="573" y="1024"/>
      <point x="714" y="1024" type="qcurve" smooth="yes"/>
      <point x="780" y="1024"/>
      <point x="949" y="986"/>
      <point x="1052" y="903" type="qcurve"/>
      <point x="1059" y="896"/>
      <point x="1061" y="896" type="qcurve"/>
      <point x="1070" y="896"/>
      <point x="1082" y="934"/>
      <point x="1085" y="946" type="qcurve"/>
      <point x="1089" y="976"/>
      <point x="1098" y="1019" type="qcurve"/>
    </contour>
  </outline>
</glyph>
<glyph name="f" format="2">
  <advance width="1381"/>
  <unicode hex="0066"/>
  <outline>
    <contour>
      <point x="463" y="1091" type="line" smooth="yes"/>
      <point x="463" y="1162"/>
      <point x="483" y="1289"/>
      <point x="555" y="1384"/>
      <point x="700" y="1439"/>
      <point x="824" y="1439" type="qcurve" smooth="yes"/>
      <point x="921" y="1439"/>
      <point x="1091" y="1416"/>
      <point x="1164" y="1402" type="qcurve"/>
      <point x="1116" y="1287" type="line"/>
      <point x="1041" y="1305"/>
      <point x="868" y="1324"/>
      <point x="795" y="1324" type="qcurve" smooth="yes"/>
      <point x="714" y="1324"/>
      <point x="626" y="1285"/>
      <point x="584" y="1217"/>
      <point x="578" y="1131"/>
      <point x="578" y="1085" type="qcurve" smooth="yes"/>
      <point x="578" y="962" type="line"/>
      <point x="1068" y="962" type="line"/>
      <point x="1068" y="854" type="line"/>
      <point x="578" y="854" type="line"/>
      <point x="578" y="108" type="line"/>
      <point x="1068" y="108" type="line"/>
      <point x="1068" y="0" type="line"/>
      <point x="224" y="0" type="line"/>
      <point x="224" y="108" type="line"/>
      <point x="463" y="108" type="line"/>
      <point x="463" y="854" type="line"/>
      <point x="224" y="854" type="line"/>
      <point x="224" y="962" type="line"/>
      <point x="463" y="962" type="line"/>
    </contour>
  </outline>
</glyph>
<glyph name="g" format="2">
  <advance width="1381"/>
  <unicode hex="0067"/>
  <outline>
    <contour>
      <point x="1273" y="881" type="line"/>
      <point x="1087" y="881" type="line"/>
      <point x="1087" y="69" type="line" smooth="yes"/>
      <point x="1087" y="-37"/>
      <point x="1039" y="-198"/>
      <point x="916" y="-306"/>
      <point x="714" y="-362"/>
      <point x="560" y="-362" type="qcurve" smooth="yes"/>
      <point x="415" y="-362" type="line"/>
      <point x="415" y="-253" type="line"/>
      <point x="560" y="-253"/>
      <point x="769" y="-242"/>
      <point x="905" y="-180"/>
      <point x="971" y="-48"/>
      <point x="971" y="69" type="qcurve" smooth="yes"/>
      <point x="971" y="202" type="line"/>
      <point x="967" y="202" type="line"/>
      <point x="955" y="184"/>
      <point x="896" y="125"/>
      <point x="804" y="64"/>
      <point x="677" y="22"/>
      <point x="601" y="22" type="qcurve" smooth="yes"/>
      <point x="495" y="22"/>
      <point x="316" y="101"/>
      <point x="184" y="237"/>
      <point x="108" y="415"/>
      <point x="108" y="511" type="qcurve" smooth="yes"/>
      <point x="108" y="617"/>
      <point x="191" y="797"/>
      <point x="327" y="925"/>
      <point x="505" y="999"/>
      <point x="601" y="999" type="qcurve" smooth="yes"/>
      <point x="610" y="999"/>
      <point x="690" y="995"/>
      <point x="799" y="960"/>
      <point x="918" y="889"/>
      <point x="967" y="822" type="qcurve"/>
      <point x="971" y="822" type="line"/>
      <point x="971" y="990" type="line"/>
      <point x="1273" y="990" type="line"/>
    </contour>
    <contour>
      <point x="971" y="507" type="qcurve" smooth="yes"/>
      <point x="971" y="591"/>
      <point x="912" y="732"/>
      <point x="810" y="831"/>
      <point x="677" y="883"/>
      <point x="606" y="883" type="qcurve" smooth="yes"/>
      <point x="532" y="883"/>
      <point x="398" y="828"/>
      <point x="294" y="732"/>
      <point x="233" y="596"/>
      <point x="233" y="514" type="qcurve" smooth="yes"/>
      <point x="233" y="433"/>
      <point x="292" y="297"/>
      <point x="393" y="196"/>
      <point x="529" y="138"/>
      <point x="606" y="138" type="qcurve" smooth="yes"/>
      <point x="686" y="138"/>
      <point x="822" y="200"/>
      <point x="918" y="301"/>
      <point x="971" y="435"/>
    </contour>
  </outline>
</glyph>
<glyph name="h" format="2">
  <advance width="1381"/>
  <unicode hex="0068"/>
  <outline>
    <contour>
      <point x="396" y="861" type="line"/>
      <point x="433" y="889"/>
      <point x="520" y="946"/>
      <point x="617" y="995"/>
      <point x="727" y="1024"/>
      <point x="789" y="1024" type="qcurve" smooth="yes"/>
      <point x="868" y="1024"/>
      <point x="995" y="969"/>
      <point x="1085" y="868"/>
      <point x="1131" y="727"/>
      <point x="1131" y="644" type="qcurve" smooth="yes"/>
      <point x="1131" y="108" type="line"/>
      <point x="1324" y="108" type="line"/>
      <point x="1324" y="0" type="line"/>
      <point x="819" y="0" type="line"/>
      <point x="819" y="108" type="line"/>
      <point x="1015" y="108" type="line"/>
      <point x="1015" y="635" type="line" smooth="yes"/>
      <point x="1015" y="760"/>
      <point x="898" y="909"/>
      <point x="795" y="909" type="qcurve" smooth="yes"/>
      <point x="738" y="909"/>
      <point x="633" y="877"/>
      <point x="529" y="824"/>
      <point x="437" y="760"/>
      <point x="396" y="725" type="qcurve"/>
      <point x="396" y="108" type="line"/>
      <point x="578" y="108" type="line"/>
      <point x="578" y="0" type="line"/>
      <point x="88" y="0" type="line"/>
      <point x="88" y="108" type="line"/>
      <point x="281" y="108" type="line"/>
      <point x="281" y="1331" type="line"/>
      <point x="66" y="1312" type="line"/>
      <point x="57" y="1421" type="line"/>
      <point x="396" y="1448" type="line"/>
    </contour>
  </outline>
</glyph>
<glyph name="j" format="2">
  <advance width="1381"/>
  <unicode hex="006A"/>
  <outline>
    <contour>
      <point x="898" y="92" type="line" smooth="yes"/>
      <point x="898" y="46"/>
      <point x="883" y="-103"/>
      <point x="804" y="-244"/>
      <point x="628" y="-347"/>
      <point x="468" y="-347" type="qcurve" smooth="yes"/>
      <point x="375" y="-347"/>
      <point x="224" y="-323"/>
      <point x="156" y="-308" type="qcurve"/>
      <point x="182" y="-198" type="line"/>
      <point x="228" y="-209"/>
      <point x="387" y="-233"/>
      <point x="474" y="-233" type="qcurve" smooth="yes"/>
      <point x="589" y="-233"/>
      <point x="716" y="-163"/>
      <point x="773" y="-60"/>
      <point x="782" y="60"/>
      <point x="782" y="108" type="qcurve" smooth="yes"/>
      <point x="782" y="881" type="line"/>
      <point x="196" y="881" type="line"/>
      <point x="196" y="990" type="line"/>
      <point x="898" y="990" type="line"/>
    </contour>
    <contour>
      <point x="852" y="1510" type="line"/>
      <point x="852" y="1236" type="line"/>
      <point x="686" y="1236" type="line"/>
      <point x="686" y="1510" type="line"/>
    </contour>
  </outline>
</glyph>
<glyph name="n" format="2">
  <advance width="1381"/>
  <unicode hex="006E"/>
  <outline>
    <contour>
      <point x="382" y="861" type="line"/>
      <point x="419" y="889"/>
      <point x="507" y="946"/>
      <point x="606" y="995"/>
      <point x="716" y="1024"/>
      <point x="778" y="1024" type="qcurve" smooth="yes"/>
      <point x="856" y="1024"/>
      <point x="982" y="969"/>
      <point x="1072" y="868"/>
      <point x="1121" y="727"/>
      <point x="1121" y="644" type="qcurve" smooth="yes"/>
      <point x="1121" y="108" type="line"/>
      <point x="1305" y="108" type="line"/>
      <point x="1305" y="0" type="line"/>
      <point x="808" y="0" type="line"/>
      <point x="808" y="108" type="line"/>
      <point x="1006" y="108" type="line"/>
      <point x="1006" y="635" type="line" smooth="yes"/>
      <point x="1006" y="762"/>
      <point x="883" y="909"/>
      <point x="780" y="909" type="qcurve" smooth="yes"/>
      <point x="753" y="909"/>
      <point x="679" y="898"/>
      <point x="582" y="859"/>
      <point x="461" y="787"/>
      <point x="382" y="725" type="qcurve"/>
      <point x="382" y="108" type="line"/>
      <point x="575" y="108" type="line"/>
      <point x="575" y="0" type="line"/>
      <point x="79" y="0" type="line"/>
      <point x="79" y="108" type="line"/>
      <point x="268" y="108" type="line"/>
      <point x="268" y="881" type="line"/>
      <point x="79" y="881" type="line"/>
      <point x="79" y="990" type="line"/>
      <point x="382" y="990" type="line"/>
    </contour>
  </outline>
</glyph>
<glyph name="v" format="2">
  <advance width="600"/>
  <unicode hex="0076"/>
  <outline>
    <contour>
      <point x="234" y="383" type="line"/>
      <point x="153" y="383" type="line"/>
      <point x="303" y="58" type="line"/>
      <point x="455" y="383" type="line"/>
      <point x="376" y="383" type="line"/>
      <point x="376" y="430" type="line"/>
      <point x="579" y="430" type="line"/>
      <point x="579" y="383" type="line"/>
      <point x="505" y="383" type="line"/>
      <point x="324" y="0" type="line"/>
      <point x="277" y="0" type="line"/>
      <point x="95" y="383" type="line"/>
      <point x="21" y="383" type="line"/>
      <point x="21" y="430" type="line"/>
      <point x="234" y="430" type="line"/>
    </contour>
  </outline>
</glyph>
<glyph name="braceright" format="2">
  <advance width="600"/>
  <unicode hex="007D"/>
  <outline>
    <contour>
      <point x="139" y="-47" type="line"/>
      <point x="157" y="-47"/>
      <point x="197" y="-44"/>
      <point x="230" y="-29"/>
      <point x="252" y="1"/>
      <point x="252" y="28" type="qcurve" smooth="yes"/>
      <point x="252" y="44"/>
      <point x="248" y="77"/>
      <point x="240" y="109" type="qcurve" smooth="yes"/>
      <point x="232" y="144" type="line" smooth="yes"/>
      <point x="231" y="149"/>
      <point x="227" y="176"/>
      <point x="227" y="188" type="qcurve" smooth="yes"/>
      <point x="227" y="206"/>
      <point x="237" y="234"/>
      <point x="253" y="255"/>
      <point x="273" y="272"/>
      <point x="282" y="279" type="qcurve"/>
      <point x="264" y="292"/>
      <point x="227" y="333"/>
      <point x="227" y="369" type="qcurve" smooth="yes"/>
      <point x="227" y="381"/>
      <point x="231" y="408"/>
      <point x="232" y="413" type="qcurve" smooth="yes"/>
      <point x="240" y="448" type="line" smooth="yes"/>
      <point x="248" y="480"/>
      <point x="252" y="513"/>
      <point x="252" y="530" type="qcurve" smooth="yes"/>
      <point x="252" y="557"/>
      <point x="228" y="587"/>
      <point x="194" y="601"/>
      <point x="155" y="604"/>
      <point x="139" y="604" type="qcurve"/>
      <point x="139" y="652" type="line"/>
      <point x="178" y="652" type="line" smooth="yes"/>
      <point x="195" y="652"/>
      <point x="221" y="644" type="qcurve" smooth="yes"/>
      <point x="261" y="631"/>
      <point x="304" y="568"/>
      <point x="304" y="528" type="qcurve" smooth="yes"/>
      <point x="304" y="521"/>
      <point x="302" y="495"/>
      <point x="298" y="478" type="qcurve"/>
      <point x="298" y="472"/>
      <point x="291" y="443"/>
      <point x="289" y="437" type="qcurve"/>
      <point x="286" y="421"/>
      <point x="280" y="384"/>
      <point x="280" y="367" type="qcurve" smooth="yes"/>
      <point x="280" y="347"/>
      <point x="301" y="323"/>
      <point x="329" y="310"/>
      <point x="357" y="305"/>
      <point x="365" y="304" type="qcurve"/>
      <point x="365" y="253" type="line"/>
      <point x="327" y="249"/>
      <point x="280" y="219"/>
      <point x="280" y="188" type="qcurve" smooth="yes"/>
      <point x="280" y="179"/>
      <point x="282" y="159"/>
      <point x="285" y="139"/>
      <point x="288" y="124"/>
      <point x="289" y="120" type="qcurve" smooth="yes"/>
      <point x="293" y="99"/>
      <point x="299" y="73"/>
      <point x="302" y="55"/>
      <point x="304" y="41"/>
      <point x="304" y="32" type="qcurve" smooth="yes"/>
      <point x="304" y="-18"/>
      <point x="260" y="-71"/>
      <point x="203" y="-93"/>
      <point x="149" y="-95"/>
      <point x="139" y="-95" type="qcurve"/>
    </contour>
  </outline>
</glyph>
<glyph name="asciitilde" format="2">
  <advance width="1381"/>
  <unicode hex="007E"/>
  <outline>
    <contour>
      <point x="1186" y="804" type="line"/>
      <point x="1171" y="778"/>
      <point x="1123" y="705"/>
      <point x="1052" y="635"/>
      <point x="960" y="584"/>
      <point x="903" y="584" type="qcurve" smooth="yes"/>
      <point x="894" y="584"/>
      <point x="868" y="587"/>
      <point x="822" y="598"/>
      <point x="746" y="624"/>
      <point x="686" y="650" type="qcurve"/>
      <point x="631" y="672"/>
      <point x="566" y="700"/>
      <point x="525" y="714"/>
      <point x="495" y="718"/>
      <point x="479" y="718" type="qcurve" smooth="yes"/>
      <point x="410" y="718"/>
      <point x="323" y="610"/>
      <point x="274" y="527" type="qcurve"/>
      <point x="198" y="617" type="line"/>
      <point x="221" y="656"/>
      <point x="274" y="738"/>
      <point x="341" y="806"/>
      <point x="424" y="850"/>
      <point x="479" y="850" type="qcurve" smooth="yes"/>
      <point x="529" y="850"/>
      <point x="631" y="815"/>
      <point x="720" y="776" type="qcurve"/>
      <point x="767" y="758"/>
      <point x="826" y="734"/>
      <point x="863" y="720"/>
      <point x="889" y="716"/>
      <point x="900" y="716" type="qcurve" smooth="yes"/>
      <point x="914" y="716"/>
      <point x="955" y="725"/>
      <point x="1008" y="758"/>
      <point x="1066" y="817"/>
      <point x="1096" y="870" type="qcurve"/>
      <point x="1096" y="874"/>
      <point x="1105" y="889"/>
      <point x="1107" y="891" type="qcurve"/>
    </contour>
  </outline>
</glyph>
<glyph name="exclamdown" format="2">
  <advance width="600"/>
  <unicode hex="00A1"/>
  <outline>
    <contour>
      <point x="323" y="240" type="line"/>
      <point x="341" y="-138" type="line"/>
      <point x="258" y="-138" type="line"/>
      <point x="277" y="240" type="line"/>
    </contour>
    <contour>
      <point x="300" y="327" type="qcurve" smooth="yes"/>
      <point x="270" y="327"/>
      <point x="231" y="363"/>
      <point x="231" y="389" type="qcurve" smooth="yes"/>
      <point x="231" y="415"/>
      <point x="271" y="450"/>
      <point x="300" y="450" type="qcurve" smooth="yes"/>
      <point x="329" y="450"/>
      <point x="369" y="414"/>
      <point x="369" y="388" type="qcurve" smooth="yes"/>
      <point x="369" y="362"/>
      <point x="329" y="327"/>
    </contour>
  </outline>
</glyph>
<glyph name="sterling" format="2">
  <advance width="1381"/>
  <unicode hex="00A3"/>
  <outline>
    <contour>
      <point x="430" y="780" type="line"/>
      <point x="396" y="872"/>
      <point x="371" y="978"/>
      <point x="371" y="1032" type="qcurve" smooth="yes"/>
      <point x="371" y="1112"/>
      <point x="437" y="1250"/>
      <point x="553" y="1351"/>
      <point x="700" y="1408"/>
      <point x="782" y="1408" type="qcurve" smooth="yes"/>
      <point x="870" y="1408"/>
      <point x="997" y="1372"/>
      <point x="1045" y="1353" type="qcurve" smooth="yes"/>
      <point x="1050" y="1351"/>
      <point x="1066" y="1347"/>
      <point x="1070" y="1347" type="qcurve" smooth="yes"/>
      <point x="1075" y="1347"/>
      <point x="1082" y="1353"/>
      <point x="1089" y="1370" type="qcurve"/>
      <point x="1193" y="1370" type="line"/>
      <point x="1173" y="1305"/>
      <point x="1153" y="1195"/>
      <point x="1149" y="1112" type="qcurve"/>
      <point x="1045" y="1100" type="line"/>
      <point x="1048" y="1128"/>
      <point x="1050" y="1167"/>
      <point x="1050" y="1177" type="qcurve" smooth="yes"/>
      <point x="1050" y="1190"/>
      <point x="1039" y="1230"/>
      <point x="1019" y="1241" type="qcurve" smooth="yes"/>
      <point x="995" y="1254"/>
      <point x="861" y="1296"/>
      <point x="787" y="1296" type="qcurve" smooth="yes"/>
      <point x="714" y="1296"/>
      <point x="598" y="1250"/>
      <point x="523" y="1173"/>
      <point x="483" y="1080"/>
      <point x="483" y="1034" type="qcurve" smooth="yes"/>
      <point x="483" y="1008"/>
      <point x="490" y="964"/>
      <point x="505" y="907"/>
      <point x="527" y="833"/>
      <point x="545" y="780" type="qcurve"/>
      <point x="1105" y="780" type="line"/>
      <point x="1105" y="672" type="line"/>
      <point x="578" y="672" type="line"/>
      <point x="589" y="626"/>
      <point x="598" y="553"/>
      <point x="598" y="505" type="qcurve" smooth="yes"/>
      <point x="598" y="354"/>
      <point x="518" y="165"/>
      <point x="477" y="112" type="qcurve"/>
      <point x="481" y="108" type="line"/>
      <point x="514" y="125"/>
      <point x="591" y="152"/>
      <point x="644" y="152" type="qcurve" smooth="yes"/>
      <point x="686" y="152"/>
      <point x="760" y="136"/>
      <point x="822" y="110" type="qcurve"/>
      <point x="872" y="92"/>
      <point x="927" y="76"/>
      <point x="953" y="76" type="qcurve" smooth="yes"/>
      <point x="1008" y="76"/>
      <point x="1094" y="125"/>
      <point x="1149" y="171" type="qcurve"/>
      <point x="1215" y="88" type="line"/>
      <point x="1199" y="71"/>
      <point x="1151" y="30"/>
      <point x="1089" y="-7"/>
      <point x="1008" y="-33"/>
      <point x="960" y="-33" type="qcurve" smooth="yes"/>
      <point x="927" y="-33"/>
      <point x="854" y="-18"/>
      <point x="799" y="2" type="qcurve" smooth="yes"/>
      <point x="734" y="26"/>
      <point x="670" y="44"/>
      <point x="633" y="44" type="qcurve" smooth="yes"/>
      <point x="587" y="44"/>
      <point x="470" y="9"/>
      <point x="373" y="-46" type="qcurve"/>
      <point x="297" y="53" type="line"/>
      <point x="364" y="123"/>
      <point x="442" y="257"/>
      <point x="481" y="375"/>
      <point x="490" y="468"/>
      <point x="490" y="495" type="qcurve" smooth="yes"/>
      <point x="490" y="584"/>
      <point x="463" y="672" type="qcurve"/>
      <point x="221" y="672" type="line"/>
      <point x="221" y="780" type="line"/>
    </contour>
  </outline>
</glyph>
<glyph name="currency" format="2">
  <advance width="1381"/>
  <unicode hex="00A4"/>
  <outline>
    <contour>
      <point x="1128" y="141" type="line"/>
      <point x="942" y="325" type="line"/>
      <point x="870" y="268"/>
      <point x="727" y="239"/>
      <point x="690" y="239" type="qcurve" smooth="yes"/>
      <point x="677" y="239"/>
      <point x="624" y="244"/>
      <point x="558" y="260"/>
      <point x="479" y="294"/>
      <point x="439" y="325" type="qcurve"/>
      <point x="253" y="141" type="line"/>
      <point x="173" y="219" type="line"/>
      <point x="362" y="402" type="line"/>
      <point x="301" y="490"/>
      <point x="281" y="615"/>
      <point x="281" y="633" type="qcurve" smooth="yes"/>
      <point x="281" y="744"/>
      <point x="336" y="863"/>
      <point x="362" y="898" type="qcurve"/>
      <point x="173" y="1085" type="line"/>
      <point x="253" y="1160" type="line"/>
      <point x="439" y="976" type="line"/>
      <point x="511" y="1032"/>
      <point x="644" y="1061"/>
      <point x="690" y="1061" type="qcurve" smooth="yes"/>
      <point x="741" y="1061"/>
      <point x="822" y="1043"/>
      <point x="883" y="1015"/>
      <point x="927" y="986"/>
      <point x="942" y="976" type="qcurve"/>
      <point x="1128" y="1160" type="line"/>
      <point x="1208" y="1085" type="line"/>
      <point x="1019" y="898" type="line"/>
      <point x="1077" y="817"/>
      <point x="1103" y="692"/>
      <point x="1103" y="668" type="qcurve" smooth="yes"/>
      <point x="1103" y="558"/>
      <point x="1043" y="435"/>
      <point x="1019" y="402" type="qcurve"/>
      <point x="1208" y="219" type="line"/>
    </contour>
    <contour>
      <point x="995" y="652" type="qcurve" smooth="yes"/>
      <point x="995" y="709"/>
      <point x="953" y="817"/>
      <point x="872" y="903"/>
      <point x="760" y="953"/>
      <point x="690" y="953" type="qcurve" smooth="yes"/>
      <point x="619" y="953"/>
      <point x="509" y="900"/>
      <point x="430" y="815"/>
      <point x="389" y="707"/>
      <point x="389" y="652" type="qcurve" smooth="yes"/>
      <point x="389" y="591"/>
      <point x="430" y="483"/>
      <point x="507" y="398"/>
      <point x="619" y="347"/>
      <point x="688" y="347" type="qcurve" smooth="yes"/>
      <point x="758" y="347"/>
      <point x="872" y="398"/>
      <point x="951" y="483"/>
      <point x="995" y="591"/>
    </contour>
  </outline>
</glyph>
<glyph name="yen" format="2">
  <advance width="1381"/>
  <unicode hex="00A5"/>
  <outline>
    <contour>
      <point x="1026" y="108" type="line"/>
      <point x="1026" y="0" type="line"/>
      <point x="369" y="0" type="line"/>
      <point x="369" y="108" type="line"/>
      <point x="642" y="108" type="line"/>
      <point x="642" y="320" type="line"/>
      <point x="303" y="320" type="line"/>
      <point x="303" y="428" type="line"/>
      <point x="642" y="428" type="line"/>
      <point x="642" y="562" type="line"/>
      <point x="303" y="562" type="line"/>
      <point x="303" y="670" type="line"/>
      <point x="642" y="670" type="line"/>
      <point x="642" y="700" type="line"/>
      <point x="214" y="1257" type="line"/>
      <point x="74" y="1257" type="line"/>
      <point x="74" y="1365" type="line"/>
      <point x="527" y="1365" type="line"/>
      <point x="527" y="1257" type="line"/>
      <point x="352" y="1257" type="line"/>
      <point x="698" y="808" type="line"/>
      <point x="1036" y="1257" type="line"/>
      <point x="861" y="1257" type="line"/>
      <point x="861" y="1365" type="line"/>
      <point x="1307" y="1365" type="line"/>
      <point x="1307" y="1257" type="line"/>
      <point x="1169" y="1257" type="line"/>
      <point x="753" y="700" type="line"/>
      <point x="753" y="670" type="line"/>
      <point x="1085" y="670" type="line"/>
      <point x="1085" y="562" type="line"/>
      <point x="753" y="562" type="line"/>
      <point x="753" y="428" type="line"/>
      <point x="1085" y="428" type="line"/>
      <point x="1085" y="320" type="line"/>
      <point x="753" y="320" type="line"/>
      <point x="753" y="108" type="line"/>
    </contour>
  </outline>
</glyph>
<glyph name="brokenbar" format="2">
  <advance width="1381"/>
  <unicode hex="00A6"/>
  <outline>
    <contour>
      <point x="631" y="690" type="line"/>
      <point x="631" y="1549" type="line"/>
      <point x="753" y="1549" type="line"/>
      <point x="753" y="690" type="line"/>
    </contour>
    <contour>
      <point x="631" y="-426" type="line"/>
      <point x="631" y="433" type="line"/>
      <point x="753" y="433" type="line"/>
      <point x="753" y="-426" type="line"/>
    </contour>
  </outline>
</glyph>
<glyph name="section" format="2">
  <advance width="600"/>
  <unicode hex="00A7"/>
  <outline>
    <contour>
      <point x="422" y="430" type="line"/>
      <point x="422" y="516" type="line"/>
      <point x="307" y="516" type="line" smooth="yes"/>
      <point x="299" y="516"/>
      <point x="274" y="514"/>
      <point x="250" y="503"/>
      <point x="233" y="480"/>
      <point x="233" y="458" type="qcurve" smooth="yes"/>
      <point x="233" y="438"/>
      <point x="255" y="409"/>
      <point x="269" y="398" type="qcurve" smooth="yes"/>
      <point x="407" y="292" type="line" smooth="yes"/>
      <point x="425" y="278"/>
      <point x="456" y="252"/>
      <point x="478" y="225"/>
      <point x="490" y="194"/>
      <point x="490" y="175" type="qcurve" smooth="yes"/>
      <point x="490" y="163"/>
      <point x="482" y="133"/>
      <point x="463" y="105"/>
      <point x="431" y="83"/>
      <point x="407" y="78" type="qcurve"/>
      <point x="412" y="70"/>
      <point x="426" y="42"/>
      <point x="426" y="18" type="qcurve" smooth="yes"/>
      <point x="426" y="-33"/>
      <point x="352" y="-91"/>
      <point x="289" y="-91" type="qcurve" smooth="yes"/>
      <point x="131" y="-91" type="line"/>
      <point x="131" y="53" type="line"/>
      <point x="178" y="53" type="line"/>
      <point x="178" y="-44" type="line"/>
      <point x="295" y="-44" type="line" smooth="yes"/>
      <point x="308" y="-44"/>
      <point x="337" y="-37"/>
      <point x="359" y="-23"/>
      <point x="374" y="0"/>
      <point x="374" y="17" type="qcurve" smooth="yes"/>
      <point x="374" y="31"/>
      <point x="360" y="58"/>
      <point x="333" y="78" type="qcurve" smooth="yes"/>
      <point x="199" y="181" type="line" smooth="yes"/>
      <point x="167" y="206"/>
      <point x="124" y="253"/>
      <point x="124" y="288" type="qcurve" smooth="yes"/>
      <point x="124" y="305"/>
      <point x="137" y="339"/>
      <point x="159" y="367"/>
      <point x="188" y="387"/>
      <point x="205" y="390" type="qcurve"/>
      <point x="188" y="409"/>
      <point x="181" y="451"/>
      <point x="181" y="457" type="qcurve" smooth="yes"/>
      <point x="181" y="489"/>
      <point x="211" y="532"/>
      <point x="227" y="543" type="qcurve"/>
      <point x="250" y="557"/>
      <point x="304" y="563"/>
      <point x="321" y="563" type="qcurve" smooth="yes"/>
      <point x="469" y="563" type="line"/>
      <point x="469" y="430" type="line"/>
    </contour>
    <contour>
      <point x="248" y="352" type="line"/>
      <point x="221" y="349"/>
      <point x="192" y="330"/>
      <point x="178" y="309"/>
      <point x="176" y="291"/>
      <point x="176" y="289" type="qcurve" smooth="yes"/>
      <point x="176" y="276"/>
      <point x="194" y="248"/>
      <point x="226" y="224" type="qcurve" smooth="yes"/>
      <point x="362" y="119" type="line"/>
      <point x="386" y="120"/>
      <point x="415" y="133"/>
      <point x="432" y="150"/>
      <point x="438" y="169"/>
      <point x="438" y="175" type="qcurve" smooth="yes"/>
      <point x="438" y="184"/>
      <point x="433" y="200"/>
      <point x="419" y="217"/>
      <point x="395" y="238"/>
      <point x="376" y="253" type="qcurve" smooth="yes"/>
    </contour>
  </outline>
</glyph>
<glyph name="dieresis" format="2">
  <advance width="600"/>
  <unicode hex="00A8"/>
  <outline>
    <contour>
      <point x="271" y="621" type="line"/>
      <point x="271" y="513" type="line"/>
      <point x="199" y="513" type="line"/>
      <point x="199" y="621" type="line"/>
    </contour>
    <contour>
      <point x="401" y="621" type="line"/>
      <point x="401" y="513" type="line"/>
      <point x="329" y="513" type="line"/>
      <point x="329" y="621" type="line"/>
    </contour>
  </outline>
</glyph>
<glyph name="ordfeminine" format="2">
  <advance width="1381"/>
  <unicode hex="00AA"/>
  <outline>
    <contour>
      <point x="439" y="1278" type="line"/>
      <point x="520" y="1309"/>
      <point x="622" y="1335"/>
      <point x="674" y="1335" type="qcurve" smooth="yes"/>
      <point x="883" y="1335"/>
      <point x="883" y="1151" type="qcurve" smooth="yes"/>
      <point x="883" y="879" type="line"/>
      <point x="982" y="879" type="line"/>
      <point x="982" y="797" type="line"/>
      <point x="797" y="797" type="line"/>
      <point x="797" y="861" type="line"/>
      <point x="736" y="815"/>
      <point x="646" y="780"/>
      <point x="593" y="780" type="qcurve" smooth="yes"/>
      <point x="514" y="780"/>
      <point x="398" y="879"/>
      <point x="398" y="953" type="qcurve" smooth="yes"/>
      <point x="398" y="1036"/>
      <point x="536" y="1140"/>
      <point x="654" y="1140" type="qcurve" smooth="yes"/>
      <point x="688" y="1140"/>
      <point x="746" y="1135"/>
      <point x="797" y="1128" type="qcurve"/>
      <point x="797" y="1144" type="line" smooth="yes"/>
      <point x="797" y="1202"/>
      <point x="738" y="1252"/>
      <point x="672" y="1252" type="qcurve" smooth="yes"/>
      <point x="628" y="1252"/>
      <point x="536" y="1227"/>
      <point x="472" y="1199" type="qcurve"/>
    </contour>
    <contour>
      <point x="797" y="1045" type="line"/>
      <point x="749" y="1052"/>
      <point x="692" y="1057"/>
      <point x="665" y="1057" type="qcurve" smooth="yes"/>
      <point x="584" y="1057"/>
      <point x="486" y="1001"/>
      <point x="486" y="953" type="qcurve" smooth="yes"/>
      <point x="486" y="916"/>
      <point x="550" y="863"/>
      <point x="593" y="863" type="qcurve" smooth="yes"/>
      <point x="700" y="863"/>
      <point x="797" y="973" type="qcurve"/>
    </contour>
    <contour>
      <point x="971" y="613" type="line"/>
      <point x="410" y="613" type="line"/>
      <point x="410" y="695" type="line"/>
      <point x="971" y="695" type="line"/>
    </contour>
  </outline>
</glyph>
<glyph name="guillemotleft" format="2">
  <advance width="1169"/>
  <unicode hex="00AB"/>
  <outline>
    <contour>
      <point x="1039" y="281" type="line" smooth="yes"/>
      <point x="1043" y="274"/>
      <point x="1052" y="255"/>
      <point x="1052" y="237" type="qcurve" smooth="yes"/>
      <point x="1052" y="205"/>
      <point x="997" y="163"/>
      <point x="955" y="163" type="qcurve" smooth="yes"/>
      <point x="923" y="163"/>
      <point x="883" y="173"/>
      <point x="859" y="193"/>
      <point x="837" y="226"/>
      <point x="822" y="248" type="qcurve" smooth="yes"/>
      <point x="511" y="711" type="line"/>
      <point x="822" y="1173" type="line" smooth="yes"/>
      <point x="850" y="1213"/>
      <point x="898" y="1259"/>
      <point x="955" y="1259" type="qcurve" smooth="yes"/>
      <point x="997" y="1259"/>
      <point x="1052" y="1217"/>
      <point x="1052" y="1186" type="qcurve" smooth="yes"/>
      <point x="1052" y="1167"/>
      <point x="1043" y="1149"/>
      <point x="1039" y="1142" type="qcurve" smooth="yes"/>
      <point x="760" y="711" type="line"/>
    </contour>
    <contour>
      <point x="617" y="281" type="line" smooth="yes"/>
      <point x="622" y="274"/>
      <point x="631" y="255"/>
      <point x="631" y="237" type="qcurve" smooth="yes"/>
      <point x="631" y="205"/>
      <point x="575" y="163"/>
      <point x="534" y="163" type="qcurve" smooth="yes"/>
      <point x="501" y="163"/>
      <point x="463" y="173"/>
      <point x="437" y="193"/>
      <point x="417" y="226"/>
      <point x="400" y="248" type="qcurve"/>
      <point x="90" y="711" type="line"/>
      <point x="400" y="1173" type="line"/>
      <point x="415" y="1197"/>
      <point x="439" y="1230"/>
      <point x="468" y="1250"/>
      <point x="505" y="1259"/>
      <point x="534" y="1259" type="qcurve" smooth="yes"/>
      <point x="575" y="1259"/>
      <point x="631" y="1217"/>
      <point x="631" y="1186" type="qcurve" smooth="yes"/>
      <point x="631" y="1167"/>
      <point x="622" y="1149"/>
      <point x="617" y="1142" type="qcurve" smooth="yes"/>
      <point x="338" y="711" type="line"/>
    </contour>
  </outline>
</glyph>
<glyph name="registered" format="2">
  <advance width="1381"/>
  <unicode hex="00AE"/>
  <outline>
    <contour>
      <point x="686" y="1072" type="line" smooth="yes"/>
      <point x="705" y="1072"/>
      <point x="792" y="1066"/>
      <point x="883" y="1028"/>
      <point x="953" y="949"/>
      <point x="953" y="877" type="qcurve" smooth="yes"/>
      <point x="953" y="865"/>
      <point x="946" y="815"/>
      <point x="914" y="753"/>
      <point x="843" y="695"/>
      <point x="778" y="679" type="qcurve"/>
      <point x="815" y="654"/>
      <point x="865" y="558"/>
      <point x="903" y="474" type="qcurve" smooth="yes"/>
      <point x="921" y="433"/>
      <point x="946" y="389"/>
      <point x="973" y="369"/>
      <point x="1010" y="366"/>
      <point x="1041" y="366" type="qcurve"/>
      <point x="1041" y="310" type="line"/>
      <point x="949" y="310" type="line" smooth="yes"/>
      <point x="881" y="310"/>
      <point x="819" y="405"/>
      <point x="789" y="486" type="qcurve" smooth="yes"/>
      <point x="767" y="547"/>
      <point x="734" y="615"/>
      <point x="698" y="650"/>
      <point x="650" y="656"/>
      <point x="608" y="656" type="qcurve" smooth="yes"/>
      <point x="566" y="656" type="line"/>
      <point x="566" y="426" type="line" smooth="yes"/>
      <point x="566" y="396"/>
      <point x="571" y="380"/>
      <point x="582" y="373" type="qcurve"/>
      <point x="587" y="371"/>
      <point x="642" y="366"/>
      <point x="661" y="364" type="qcurve"/>
      <point x="661" y="310" type="line"/>
      <point x="369" y="310" type="line"/>
      <point x="369" y="364" type="line"/>
      <point x="371" y="366"/>
      <point x="384" y="366" type="qcurve" smooth="yes"/>
      <point x="398" y="366"/>
      <point x="400" y="369" type="qcurve"/>
      <point x="442" y="373"/>
      <point x="463" y="387"/>
      <point x="463" y="426" type="qcurve" smooth="yes"/>
      <point x="463" y="962" type="line" smooth="yes"/>
      <point x="463" y="990"/>
      <point x="461" y="1004"/>
      <point x="448" y="1008" type="qcurve"/>
      <point x="446" y="1010"/>
      <point x="433" y="1010" type="qcurve" smooth="yes"/>
      <point x="428" y="1010"/>
      <point x="393" y="1013"/>
      <point x="369" y="1015" type="qcurve"/>
      <point x="369" y="1072" type="line"/>
    </contour>
    <contour>
      <point x="619" y="711" type="line" smooth="yes"/>
      <point x="723" y="711"/>
      <point x="850" y="780"/>
      <point x="850" y="870" type="qcurve" smooth="yes"/>
      <point x="850" y="923"/>
      <point x="808" y="982"/>
      <point x="749" y="1010"/>
      <point x="683" y="1017"/>
      <point x="661" y="1017" type="qcurve" smooth="yes"/>
      <point x="596" y="1017"/>
      <point x="566" y="1004"/>
      <point x="566" y="969" type="qcurve" smooth="yes"/>
      <point x="566" y="711" type="line"/>
    </contour>
    <contour>
      <point x="690" y="1335" type="qcurve" smooth="yes"/>
      <point x="828" y="1335"/>
      <point x="1070" y="1232"/>
      <point x="1252" y="1052"/>
      <point x="1358" y="808"/>
      <point x="1358" y="668" type="qcurve" smooth="yes"/>
      <point x="1358" y="529"/>
      <point x="1252" y="288"/>
      <point x="1072" y="106"/>
      <point x="828" y="0"/>
      <point x="690" y="0" type="qcurve" smooth="yes"/>
      <point x="553" y="0"/>
      <point x="308" y="106"/>
      <point x="129" y="288"/>
      <point x="22" y="529"/>
      <point x="22" y="668" type="qcurve" smooth="yes"/>
      <point x="22" y="808"/>
      <point x="129" y="1052"/>
      <point x="310" y="1232"/>
      <point x="555" y="1335"/>
    </contour>
    <contour>
      <point x="690" y="1248" type="qcurve" smooth="yes"/>
      <point x="571" y="1248"/>
      <point x="362" y="1158"/>
      <point x="202" y="999"/>
      <point x="110" y="787"/>
      <point x="110" y="668" type="qcurve" smooth="yes"/>
      <point x="110" y="547"/>
      <point x="200" y="338"/>
      <point x="359" y="180"/>
      <point x="569" y="88"/>
      <point x="690" y="88" type="qcurve" smooth="yes"/>
      <point x="810" y="88"/>
      <point x="1022" y="180"/>
      <point x="1181" y="338"/>
      <point x="1270" y="547"/>
      <point x="1270" y="668" type="qcurve" smooth="yes"/>
      <point x="1270" y="789"/>
      <point x="1179" y="1001"/>
      <point x="1019" y="1158"/>
      <point x="808" y="1248"/>
    </contour>
  </outline>
</glyph>
<glyph name="macron" format="2">
  <advance width="600"/>
  <unicode hex="00AF"/>
  <outline>
    <contour>
      <point x="470" y="542" type="line"/>
      <point x="130" y="542" type="line"/>
      <point x="130" y="592" type="line"/>
      <point x="470" y="592" type="line"/>
    </contour>
  </outline>
</glyph>
<glyph name="degree" format="2">
  <advance width="1381"/>
  <unicode hex="00B0"/>
  <outline>
    <contour>
      <point x="338" y="1075" type="qcurve" smooth="yes"/>
      <point x="338" y="1149"/>
      <point x="393" y="1278"/>
      <point x="488" y="1375"/>
      <point x="617" y="1430"/>
      <point x="690" y="1430" type="qcurve" smooth="yes"/>
      <point x="767" y="1430"/>
      <point x="896" y="1372"/>
      <point x="990" y="1276"/>
      <point x="1043" y="1146"/>
      <point x="1043" y="1075" type="qcurve" smooth="yes"/>
      <point x="1043" y="1004"/>
      <point x="988" y="877"/>
      <point x="894" y="780"/>
      <point x="764" y="725"/>
      <point x="690" y="725" type="qcurve" smooth="yes"/>
      <point x="617" y="725"/>
      <point x="488" y="780"/>
      <point x="393" y="874"/>
      <point x="338" y="1001"/>
    </contour>
    <contour>
      <point x="465" y="1077" type="qcurve" smooth="yes"/>
      <point x="465" y="980"/>
      <point x="593" y="852"/>
      <point x="690" y="852" type="qcurve" smooth="yes"/>
      <point x="738" y="852"/>
      <point x="822" y="886"/>
      <point x="881" y="949"/>
      <point x="916" y="1028"/>
      <point x="916" y="1077" type="qcurve" smooth="yes"/>
      <point x="916" y="1173"/>
      <point x="787" y="1303"/>
      <point x="690" y="1303" type="qcurve" smooth="yes"/>
      <point x="642" y="1303"/>
      <point x="562" y="1268"/>
      <point x="499" y="1208"/>
      <point x="465" y="1125"/>
    </contour>
  </outline>
</glyph>
<glyph name="twosuperior" format="2">
  <advance width="1381"/>
  <unicode hex="00B2"/>
  <outline>
    <contour>
      <point x="934" y="571" type="line"/>
      <point x="384" y="571" type="line"/>
      <point x="384" y="661" type="line"/>
      <point x="405" y="679" type="line"/>
      <point x="428" y="700"/>
      <point x="497" y="762"/>
      <point x="571" y="828"/>
      <point x="640" y="891"/>
      <point x="663" y="912" type="qcurve" smooth="yes"/>
      <point x="720" y="964"/>
      <point x="792" y="1036"/>
      <point x="826" y="1091"/>
      <point x="837" y="1140"/>
      <point x="837" y="1171" type="qcurve" smooth="yes"/>
      <point x="837" y="1241"/>
      <point x="736" y="1338"/>
      <point x="665" y="1338" type="qcurve" smooth="yes"/>
      <point x="601" y="1338"/>
      <point x="509" y="1268"/>
      <point x="507" y="1222" type="qcurve"/>
      <point x="509" y="1195" type="line"/>
      <point x="413" y="1195" type="line"/>
      <point x="413" y="1303" type="line"/>
      <point x="511" y="1430"/>
      <point x="668" y="1430" type="qcurve" smooth="yes"/>
      <point x="723" y="1430"/>
      <point x="822" y="1388"/>
      <point x="896" y="1320"/>
      <point x="937" y="1225"/>
      <point x="937" y="1169" type="qcurve" smooth="yes"/>
      <point x="937" y="1125"/>
      <point x="914" y="1054"/>
      <point x="859" y="973"/>
      <point x="760" y="877"/>
      <point x="683" y="808" type="qcurve" smooth="yes"/>
      <point x="525" y="663" type="line"/>
      <point x="845" y="663" type="line"/>
      <point x="845" y="795" type="line"/>
      <point x="934" y="795" type="line"/>
    </contour>
  </outline>
</glyph>
<glyph name="threesuperior" format="2">
  <advance width="1381"/>
  <unicode hex="00B3"/>
  <outline>
    <contour>
      <point x="398" y="1333" type="line"/>
      <point x="483" y="1388"/>
      <point x="587" y="1430"/>
      <point x="644" y="1430" type="qcurve" smooth="yes"/>
      <point x="749" y="1430"/>
      <point x="886" y="1305"/>
      <point x="886" y="1208" type="qcurve" smooth="yes"/>
      <point x="886" y="1103"/>
      <point x="799" y="1028" type="qcurve"/>
      <point x="927" y="949"/>
      <point x="927" y="813" type="qcurve" smooth="yes"/>
      <point x="927" y="695"/>
      <point x="769" y="550"/>
      <point x="644" y="550" type="qcurve" smooth="yes"/>
      <point x="593" y="550"/>
      <point x="505" y="573"/>
      <point x="426" y="606" type="qcurve" smooth="yes"/>
      <point x="382" y="624" type="line"/>
      <point x="419" y="709" type="line"/>
      <point x="492" y="674"/>
      <point x="601" y="642"/>
      <point x="650" y="642" type="qcurve" smooth="yes"/>
      <point x="729" y="642"/>
      <point x="831" y="738"/>
      <point x="831" y="813" type="qcurve" smooth="yes"/>
      <point x="831" y="889"/>
      <point x="734" y="969"/>
      <point x="644" y="969" type="qcurve" smooth="yes"/>
      <point x="589" y="969" type="line"/>
      <point x="589" y="1061" type="line"/>
      <point x="652" y="1063"/>
      <point x="707" y="1075"/>
      <point x="732" y="1094" type="qcurve" smooth="yes"/>
      <point x="789" y="1137"/>
      <point x="789" y="1206" type="qcurve" smooth="yes"/>
      <point x="789" y="1263"/>
      <point x="707" y="1338"/>
      <point x="644" y="1338" type="qcurve" smooth="yes"/>
      <point x="606" y="1338"/>
      <point x="534" y="1314"/>
      <point x="481" y="1278" type="qcurve" smooth="yes"/>
      <point x="446" y="1254" type="line"/>
    </contour>
  </outline>
</glyph>
<glyph name="acute" format="2">
  <advance width="600"/>
  <unicode hex="00B4"/>
  <outline>
    <contour>
      <point x="215" y="503" type="line"/>
      <point x="304" y="618" type="line"/>
      <point x="411" y="618" type="line"/>
      <point x="268" y="503" type="line"/>
    </contour>
  </outline>
</glyph>
<glyph name="ordmasculine" format="2">
  <advance width="1381"/>
  <unicode hex="00BA"/>
  <outline>
    <contour>
      <point x="396" y="1057" type="qcurve" smooth="yes"/>
      <point x="396" y="1181"/>
      <point x="560" y="1335"/>
      <point x="690" y="1335" type="qcurve" smooth="yes"/>
      <point x="822" y="1335"/>
      <point x="986" y="1181"/>
      <point x="986" y="1057" type="qcurve" smooth="yes"/>
      <point x="986" y="932"/>
      <point x="822" y="780"/>
      <point x="690" y="780" type="qcurve" smooth="yes"/>
      <point x="560" y="780"/>
      <point x="396" y="932"/>
    </contour>
    <contour>
      <point x="488" y="1059" type="qcurve" smooth="yes"/>
      <point x="488" y="971"/>
      <point x="601" y="863"/>
      <point x="690" y="863" type="qcurve" smooth="yes"/>
      <point x="780" y="863"/>
      <point x="894" y="971"/>
      <point x="894" y="1059" type="qcurve" smooth="yes"/>
      <point x="894" y="1144"/>
      <point x="780" y="1252"/>
      <point x="690" y="1252" type="qcurve" smooth="yes"/>
      <point x="601" y="1252"/>
      <point x="488" y="1144"/>
    </contour>
    <contour>
      <point x="971" y="613" type="line"/>
      <point x="410" y="613" type="line"/>
      <point x="410" y="695" type="line"/>
      <point x="971" y="695" type="line"/>
    </contour>
  </outline>
</glyph>
<glyph name="guillemotright" format="2">
  <advance width="518"/>
  <unicode hex="00BB"/>
  <outline>
    <contour>
      <point x="53" y="127" type="line" smooth="yes"/>
      <point x="51" y="124"/>
      <point x="47" y="116"/>
      <point x="47" y="108" type="qcurve" smooth="yes"/>
      <point x="47" y="94"/>
      <point x="71" y="76"/>
      <point x="89" y="76" type="qcurve" smooth="yes"/>
      <point x="103" y="76"/>
      <point x="120" y="80"/>
      <point x="131" y="89"/>
      <point x="140" y="103"/>
      <point x="147" y="113" type="qcurve" smooth="yes"/>
      <point x="282" y="314" type="line"/>
      <point x="147" y="515" type="line" smooth="yes"/>
      <point x="135" y="532"/>
      <point x="114" y="552"/>
      <point x="89" y="552" type="qcurve" smooth="yes"/>
      <point x="71" y="552"/>
      <point x="47" y="534"/>
      <point x="47" y="520" type="qcurve" smooth="yes"/>
      <point x="47" y="512"/>
      <point x="51" y="504"/>
      <point x="53" y="501" type="qcurve" smooth="yes"/>
      <point x="174" y="314" type="line"/>
    </contour>
    <contour>
      <point x="236" y="127" type="line" smooth="yes"/>
      <point x="234" y="124"/>
      <point x="230" y="116"/>
      <point x="230" y="108" type="qcurve" smooth="yes"/>
      <point x="230" y="94"/>
      <point x="254" y="76"/>
      <point x="272" y="76" type="qcurve" smooth="yes"/>
      <point x="286" y="76"/>
      <point x="303" y="80"/>
      <point x="314" y="89"/>
      <point x="323" y="103"/>
      <point x="330" y="113" type="qcurve" smooth="yes"/>
      <point x="465" y="314" type="line"/>
      <point x="330" y="515" type="line"/>
      <point x="324" y="525"/>
      <point x="313" y="539"/>
      <point x="301" y="548"/>
      <point x="285" y="552"/>
      <point x="272" y="552" type="qcurve" smooth="yes"/>
      <point x="254" y="552"/>
      <point x="230" y="534"/>
      <point x="230" y="520" type="qcurve" smooth="yes"/>
      <point x="230" y="512"/>
      <point x="234" y="504"/>
      <point x="236" y="501" type="qcurve" smooth="yes"/>
      <point x="357" y="314" type="line"/>
    </contour>
  </outline>
</glyph>
<glyph name="onequarter" format="2">
  <advance width="1381"/>
  <unicode hex="00BC"/>
  <outline>
    <contour>
      <point x="1353" y="106" type="line"/>
      <point x="1353" y="20" type="line"/>
      <point x="1232" y="20" type="line"/>
      <point x="1232" y="-94" type="line"/>
      <point x="1353" y="-94" type="line"/>
      <point x="1353" y="-178" type="line"/>
      <point x="990" y="-178" type="line"/>
      <point x="990" y="-94" type="line"/>
      <point x="1144" y="-94" type="line"/>
      <point x="1144" y="20" type="line"/>
      <point x="778" y="20" type="line"/>
      <point x="778" y="112" type="line"/>
      <point x="1121" y="681" type="line"/>
      <point x="1232" y="681" type="line"/>
      <point x="1232" y="106" type="line"/>
    </contour>
    <contour>
      <point x="1140" y="555" type="line"/>
      <point x="874" y="106" type="line"/>
      <point x="1144" y="106" type="line"/>
      <point x="1144" y="555" type="line"/>
    </contour>
    <contour>
      <point x="352" y="1432" type="line"/>
      <point x="352" y="661" type="line"/>
      <point x="527" y="661" type="line"/>
      <point x="527" y="573" type="line"/>
      <point x="88" y="573" type="line"/>
      <point x="88" y="661" type="line"/>
      <point x="265" y="661" type="line"/>
      <point x="265" y="1324" type="line"/>
      <point x="97" y="1254" type="line"/>
      <point x="60" y="1333" type="line"/>
      <point x="297" y="1432" type="line"/>
    </contour>
    <contour>
      <point x="202" y="-207" type="line"/>
      <point x="138" y="-156" type="line"/>
      <point x="1312" y="1457" type="line"/>
      <point x="1377" y="1411" type="line"/>
    </contour>
  </outline>
</glyph>
<glyph name="onehalf" format="2">
  <advance width="600"/>
  <unicode hex="00BD"/>
  <outline>
    <contour>
      <point x="146" y="622" type="line"/>
      <point x="146" y="287" type="line"/>
      <point x="222" y="287" type="line"/>
      <point x="222" y="249" type="line"/>
      <point x="31" y="249" type="line"/>
      <point x="31" y="287" type="line"/>
      <point x="108" y="287" type="line"/>
      <point x="108" y="575" type="line"/>
      <point x="35" y="545" type="line"/>
      <point x="19" y="579" type="line"/>
      <point x="123" y="622" type="line"/>
    </contour>
    <contour>
      <point x="75" y="-90" type="line"/>
      <point x="47" y="-68" type="line"/>
      <point x="556" y="633" type="line"/>
      <point x="585" y="613" type="line"/>
    </contour>
    <contour>
      <point x="590" y="-77" type="line"/>
      <point x="361" y="-77" type="line"/>
      <point x="361" y="-38" type="line"/>
      <point x="364" y="-35"/>
      <point x="365" y="-34"/>
      <point x="373" y="-28"/>
      <point x="394" y="-9"/>
      <point x="418" y="13" type="qcurve" smooth="yes"/>
      <point x="443" y="37"/>
      <point x="479" y="71"/>
      <point x="504" y="95"/>
      <point x="521" y="112"/>
      <point x="529" y="121" type="qcurve" smooth="yes"/>
      <point x="543" y="138"/>
      <point x="552" y="166"/>
      <point x="552" y="183" type="qcurve" smooth="yes"/>
      <point x="552" y="215"/>
      <point x="509" y="257"/>
      <point x="476" y="257" type="qcurve" smooth="yes"/>
      <point x="450" y="257"/>
      <point x="409" y="228"/>
      <point x="409" y="208" type="qcurve" smooth="yes"/>
      <point x="409" y="206"/>
      <point x="410" y="201"/>
      <point x="410" y="196" type="qcurve"/>
      <point x="372" y="196" type="line"/>
      <point x="372" y="241" type="line"/>
      <point x="415" y="295"/>
      <point x="478" y="295" type="qcurve" smooth="yes"/>
      <point x="502" y="295"/>
      <point x="544" y="278"/>
      <point x="574" y="248"/>
      <point x="591" y="207"/>
      <point x="591" y="183" type="qcurve" smooth="yes"/>
      <point x="591" y="148"/>
      <point x="550" y="82"/>
      <point x="496" y="34" type="qcurve" smooth="yes"/>
      <point x="434" y="-21" type="line"/>
      <point x="415" y="-39" type="line"/>
      <point x="556" y="-39" type="line"/>
      <point x="556" y="18" type="line"/>
      <point x="590" y="18" type="line"/>
    </contour>
  </outline>
</glyph>
<glyph name="threequarters" format="2">
  <advance width="600"/>
  <unicode hex="00BE"/>
  <outline>
    <contour>
      <point x="502" y="241" type="line"/>
      <point x="387" y="46" type="line"/>
      <point x="504" y="46" type="line"/>
      <point x="504" y="241" type="line"/>
    </contour>
    <contour>
      <point x="595" y="46" type="line"/>
      <point x="595" y="9" type="line"/>
      <point x="542" y="9" type="line"/>
      <point x="542" y="-41" type="line"/>
      <point x="595" y="-41" type="line"/>
      <point x="595" y="-77" type="line"/>
      <point x="437" y="-77" type="line"/>
      <point x="437" y="-41" type="line"/>
      <point x="504" y="-41" type="line"/>
      <point x="504" y="9" type="line"/>
      <point x="345" y="9" type="line"/>
      <point x="345" y="49" type="line"/>
      <point x="494" y="296" type="line"/>
      <point x="542" y="296" type="line"/>
      <point x="542" y="46" type="line"/>
    </contour>
    <contour>
      <point x="29" y="581" type="line"/>
      <point x="65" y="604"/>
      <point x="111" y="622"/>
      <point x="136" y="622" type="qcurve" smooth="yes"/>
      <point x="158" y="622"/>
      <point x="197" y="607"/>
      <point x="226" y="582"/>
      <point x="242" y="547"/>
      <point x="242" y="527" type="qcurve" smooth="yes"/>
      <point x="242" y="502"/>
      <point x="223" y="465"/>
      <point x="202" y="448" type="qcurve"/>
      <point x="260" y="415"/>
      <point x="260" y="354" type="qcurve" smooth="yes"/>
      <point x="260" y="303"/>
      <point x="190" y="241"/>
      <point x="136" y="241" type="qcurve" smooth="yes"/>
      <point x="125" y="241"/>
      <point x="106" y="243"/>
      <point x="84" y="249"/>
      <point x="58" y="258"/>
      <point x="40" y="265" type="qcurve" smooth="yes"/>
      <point x="22" y="272" type="line"/>
      <point x="37" y="307" type="line"/>
      <point x="71" y="291"/>
      <point x="116" y="279"/>
      <point x="138" y="279" type="qcurve" smooth="yes"/>
      <point x="174" y="279"/>
      <point x="220" y="320"/>
      <point x="220" y="354" type="qcurve" smooth="yes"/>
      <point x="220" y="388"/>
      <point x="178" y="427"/>
      <point x="136" y="425" type="qcurve" smooth="yes"/>
      <point x="114" y="424" type="line"/>
      <point x="114" y="461" type="line"/>
      <point x="140" y="462"/>
      <point x="165" y="467"/>
      <point x="176" y="475" type="qcurve" smooth="yes"/>
      <point x="202" y="493"/>
      <point x="202" y="526" type="qcurve" smooth="yes"/>
      <point x="202" y="552"/>
      <point x="165" y="584"/>
      <point x="136" y="584" type="qcurve" smooth="yes"/>
      <point x="119" y="584"/>
      <point x="87" y="572"/>
      <point x="63" y="558" type="qcurve" smooth="yes"/>
      <point x="48" y="549" type="line"/>
    </contour>
    <contour>
      <point x="95" y="-90" type="line"/>
      <point x="67" y="-68" type="line"/>
      <point x="577" y="633" type="line"/>
      <point x="605" y="613" type="line"/>
    </contour>
  </outline>
</glyph>
<glyph name="questiondown" format="2">
  <advance width="1381"/>
  <unicode hex="00BF"/>
  <outline>
    <contour>
      <point x="1091" y="-242" type="line"/>
      <point x="1032" y="-262"/>
      <point x="937" y="-292"/>
      <point x="852" y="-314"/>
      <point x="767" y="-323"/>
      <point x="718" y="-323" type="qcurve" smooth="yes"/>
      <point x="608" y="-323"/>
      <point x="442" y="-257"/>
      <point x="332" y="-154"/>
      <point x="277" y="-18"/>
      <point x="277" y="55" type="qcurve" smooth="yes"/>
      <point x="277" y="156"/>
      <point x="364" y="292"/>
      <point x="490" y="380"/>
      <point x="635" y="430"/>
      <point x="692" y="446" type="qcurve"/>
      <point x="692" y="584" type="line"/>
      <point x="806" y="584" type="line"/>
      <point x="806" y="362" type="line"/>
      <point x="801" y="359"/>
      <point x="771" y="352"/>
      <point x="760" y="350" type="qcurve"/>
      <point x="703" y="336"/>
      <point x="573" y="297"/>
      <point x="468" y="230"/>
      <point x="396" y="127"/>
      <point x="396" y="48" type="qcurve" smooth="yes"/>
      <point x="396" y="13"/>
      <point x="424" y="-76"/>
      <point x="495" y="-156"/>
      <point x="619" y="-209"/>
      <point x="716" y="-209" type="qcurve" smooth="yes"/>
      <point x="801" y="-209"/>
      <point x="918" y="-178"/>
      <point x="976" y="-154" type="qcurve"/>
      <point x="976" y="-7" type="line"/>
      <point x="1091" y="-7" type="line"/>
    </contour>
    <contour>
      <point x="758" y="753" type="qcurve" smooth="yes"/>
      <point x="690" y="753"/>
      <point x="598" y="833"/>
      <point x="598" y="894" type="qcurve" smooth="yes"/>
      <point x="598" y="955"/>
      <point x="692" y="1036"/>
      <point x="758" y="1036" type="qcurve" smooth="yes"/>
      <point x="822" y="1036"/>
      <point x="916" y="955"/>
      <point x="916" y="894" type="qcurve" smooth="yes"/>
      <point x="916" y="833"/>
      <point x="824" y="753"/>
    </contour>
  </outline>
</glyph>
<glyph name="Adieresis" format="2">
  <advance width="1381"/>
  <unicode hex="00C4"/>
  <outline>
    <contour>
      <point x="1241" y="108" type="line"/>
      <point x="1358" y="108" type="line"/>
      <point x="1358" y="0" type="line"/>
      <point x="886" y="0" type="line"/>
      <point x="886" y="108" type="line"/>
      <point x="1121" y="108" type="line"/>
      <point x="990" y="428" type="line"/>
      <point x="389" y="428" type="line"/>
      <point x="260" y="108" type="line"/>
      <point x="495" y="108" type="line"/>
      <point x="495" y="0" type="line"/>
      <point x="22" y="0" type="line"/>
      <point x="22" y="108" type="line"/>
      <point x="145" y="108" type="line"/>
      <point x="589" y="1188" type="line"/>
      <point x="260" y="1188" type="line"/>
      <point x="260" y="1296" type="line"/>
      <point x="755" y="1296" type="line"/>
    </contour>
    <contour>
      <point x="430" y="529" type="line"/>
      <point x="951" y="529" type="line"/>
      <point x="690" y="1160" type="line"/>
    </contour>
    <contour>
      <point x="624" y="1735" type="line"/>
      <point x="624" y="1487" type="line"/>
      <point x="459" y="1487" type="line"/>
      <point x="459" y="1735" type="line"/>
    </contour>
    <contour>
      <point x="923" y="1735" type="line"/>
      <point x="923" y="1487" type="line"/>
      <point x="758" y="1487" type="line"/>
      <point x="758" y="1735" type="line"/>
    </contour>
  </outline>
</glyph>
<glyph name="Aring" format="2">
  <advance width="1381"/>
  <unicode hex="00C5"/>
  <outline>
    <contour>
      <point x="1241" y="108" type="line"/>
      <point x="1358" y="108" type="line"/>
      <point x="1358" y="0" type="line"/>
      <point x="886" y="0" type="line"/>
      <point x="886" y="108" type="line"/>
      <point x="1121" y="108" type="line"/>
      <point x="990" y="428" type="line"/>
      <point x="389" y="428" type="line"/>
      <point x="260" y="108" type="line"/>
      <point x="495" y="108" type="line"/>
      <point x="495" y="0" type="line"/>
      <point x="22" y="0" type="line"/>
      <point x="22" y="108" type="line"/>
      <point x="145" y="108" type="line"/>
      <point x="589" y="1188" type="line"/>
      <point x="260" y="1188" type="line"/>
      <point x="260" y="1296" type="line"/>
      <point x="755" y="1296" type="line"/>
    </contour>
    <contour>
      <point x="430" y="529" type="line"/>
      <point x="951" y="529" type="line"/>
      <point x="690" y="1160" type="line"/>
    </contour>
    <contour>
      <point x="690" y="1784" type="qcurve" smooth="yes"/>
      <point x="764" y="1784"/>
      <point x="865" y="1683"/>
      <point x="865" y="1610" type="qcurve" smooth="yes"/>
      <point x="865" y="1535"/>
      <point x="764" y="1434"/>
      <point x="690" y="1434" type="qcurve" smooth="yes"/>
      <point x="617" y="1434"/>
      <point x="516" y="1535"/>
      <point x="516" y="1610" type="qcurve" smooth="yes"/>
      <point x="516" y="1683"/>
      <point x="617" y="1784"/>
    </contour>
    <contour>
      <point x="692" y="1696" type="qcurve" smooth="yes"/>
      <point x="656" y="1696"/>
      <point x="604" y="1650"/>
      <point x="604" y="1610" type="qcurve" smooth="yes"/>
      <point x="604" y="1572"/>
      <point x="656" y="1522"/>
      <point x="692" y="1522" type="qcurve" smooth="yes"/>
      <point x="729" y="1522"/>
      <point x="778" y="1572"/>
      <point x="778" y="1610" type="qcurve" smooth="yes"/>
      <point x="778" y="1646"/>
      <point x="729" y="1696"/>
    </contour>
  </outline>
</glyph>
<glyph name="AE" format="2">
  <advance width="1381"/>
  <unicode hex="00C6"/>
  <outline>
    <contour>
      <point x="1263" y="881" type="line"/>
      <point x="1160" y="881" type="line"/>
      <point x="1140" y="1188" type="line"/>
      <point x="810" y="1188" type="line"/>
      <point x="810" y="741" type="line"/>
      <point x="960" y="741" type="line"/>
      <point x="960" y="909" type="line"/>
      <point x="1066" y="909" type="line"/>
      <point x="1066" y="465" type="line"/>
      <point x="960" y="465" type="line"/>
      <point x="960" y="633" type="line"/>
      <point x="810" y="633" type="line"/>
      <point x="810" y="108" type="line"/>
      <point x="1160" y="108" type="line"/>
      <point x="1173" y="428" type="line"/>
      <point x="1280" y="428" type="line"/>
      <point x="1280" y="0" type="line"/>
      <point x="695" y="0" type="line"/>
      <point x="695" y="424" type="line"/>
      <point x="413" y="424" type="line"/>
      <point x="281" y="108" type="line"/>
      <point x="486" y="108" type="line"/>
      <point x="486" y="0" type="line"/>
      <point x="44" y="0" type="line"/>
      <point x="44" y="108" type="line"/>
      <point x="165" y="108" type="line"/>
      <point x="601" y="1188" type="line"/>
      <point x="364" y="1188" type="line"/>
      <point x="364" y="1296" type="line"/>
      <point x="1263" y="1296" type="line"/>
    </contour>
    <contour>
      <point x="690" y="1160" type="line"/>
      <point x="451" y="532" type="line"/>
      <point x="695" y="532" type="line"/>
      <point x="695" y="1160" type="line"/>
    </contour>
  </outline>
</glyph>
<glyph name="Ccedilla" format="2">
  <advance width="1381"/>
  <unicode hex="00C7"/>
  <outline>
    <contour>
      <point x="815" y="-57" type="line"/>
      <point x="837" y="-57"/>
      <point x="894" y="-76"/>
      <point x="942" y="-112"/>
      <point x="976" y="-165"/>
      <point x="976" y="-200" type="qcurve" smooth="yes"/>
      <point x="976" y="-209"/>
      <point x="967" y="-253"/>
      <point x="932" y="-299"/>
      <point x="856" y="-334"/>
      <point x="792" y="-334" type="qcurve" smooth="yes"/>
      <point x="707" y="-334"/>
      <point x="571" y="-306"/>
      <point x="538" y="-299" type="qcurve"/>
      <point x="555" y="-198" type="line"/>
      <point x="601" y="-209"/>
      <point x="716" y="-230"/>
      <point x="795" y="-230" type="qcurve" smooth="yes"/>
      <point x="810" y="-230" type="line" smooth="yes"/>
      <point x="828" y="-230"/>
      <point x="868" y="-217"/>
      <point x="868" y="-200" type="qcurve" smooth="yes"/>
      <point x="868" y="-169"/>
      <point x="769" y="-147"/>
      <point x="703" y="-143" type="qcurve"/>
      <point x="716" y="-39" type="line"/>
      <point x="553" y="-22"/>
      <point x="334" y="125"/>
      <point x="202" y="329"/>
      <point x="147" y="562"/>
      <point x="147" y="663" type="qcurve" smooth="yes"/>
      <point x="147" y="813"/>
      <point x="242" y="1061"/>
      <point x="407" y="1239"/>
      <point x="633" y="1335"/>
      <point x="764" y="1335" type="qcurve" smooth="yes"/>
      <point x="801" y="1335"/>
      <point x="944" y="1314"/>
      <point x="1017" y="1268" type="qcurve"/>
      <point x="1022" y="1263"/>
      <point x="1045" y="1245"/>
      <point x="1070" y="1225"/>
      <point x="1094" y="1211"/>
      <point x="1098" y="1211" type="qcurve" smooth="yes"/>
      <point x="1105" y="1211"/>
      <point x="1116" y="1234"/>
      <point x="1123" y="1268"/>
      <point x="1131" y="1305"/>
      <point x="1133" y="1322" type="qcurve"/>
      <point x="1217" y="1322" type="line"/>
      <point x="1213" y="1177"/>
      <point x="1230" y="973"/>
      <point x="1241" y="881" type="qcurve"/>
      <point x="1133" y="863" type="line"/>
      <point x="1125" y="903"/>
      <point x="1096" y="1024"/>
      <point x="1019" y="1137"/>
      <point x="879" y="1220"/>
      <point x="760" y="1220" type="qcurve" smooth="yes"/>
      <point x="672" y="1220"/>
      <point x="499" y="1153"/>
      <point x="359" y="1017"/>
      <point x="272" y="808"/>
      <point x="272" y="665" type="qcurve" smooth="yes"/>
      <point x="272" y="555"/>
      <point x="327" y="343"/>
      <point x="448" y="178"/>
      <point x="637" y="76"/>
      <point x="769" y="76" type="qcurve" smooth="yes"/>
      <point x="865" y="76"/>
      <point x="1032" y="129"/>
      <point x="1162" y="205"/>
      <point x="1259" y="285"/>
      <point x="1291" y="310" type="qcurve"/>
      <point x="1368" y="228" type="line"/>
      <point x="1250" y="117"/>
      <point x="973" y="-26"/>
      <point x="815" y="-39" type="qcurve"/>
    </contour>
  </outline>
</glyph>
<glyph name="Eacute" format="2">
  <advance width="600"/>
  <unicode hex="00C9"/>
  <outline>
    <contour>
      <point x="536" y="379" type="line"/>
      <point x="490" y="379" type="line"/>
      <point x="480" y="516" type="line"/>
      <point x="192" y="516" type="line"/>
      <point x="192" y="321" type="line"/>
      <point x="354" y="321" type="line"/>
      <point x="354" y="394" type="line"/>
      <point x="400" y="394" type="line"/>
      <point x="400" y="202" type="line"/>
      <point x="354" y="202" type="line"/>
      <point x="354" y="274" type="line"/>
      <point x="192" y="274" type="line"/>
      <point x="192" y="47" type="line"/>
      <point x="490" y="47" type="line"/>
      <point x="495" y="184" type="line"/>
      <point x="541" y="184" type="line"/>
      <point x="541" y="0" type="line"/>
      <point x="57" y="0" type="line"/>
      <point x="57" y="47" type="line"/>
      <point x="142" y="47" type="line"/>
      <point x="142" y="516" type="line"/>
      <point x="57" y="516" type="line"/>
      <point x="57" y="563" type="line"/>
      <point x="532" y="563" type="line"/>
    </contour>
    <contour>
      <point x="215" y="636" type="line"/>
      <point x="304" y="751" type="line"/>
      <point x="411" y="751" type="line"/>
      <point x="268" y="636" type="line"/>
    </contour>
  </outline>
</glyph>
<glyph name="Ecircumflex" format="2">
  <advance width="1381"/>
  <unicode hex="00CA"/>
  <outline>
    <contour>
      <point x="1234" y="872" type="line"/>
      <point x="1128" y="872" type="line"/>
      <point x="1105" y="1188" type="line"/>
      <point x="442" y="1188" type="line"/>
      <point x="442" y="738" type="line"/>
      <point x="815" y="738" type="line"/>
      <point x="815" y="907" type="line"/>
      <point x="921" y="907" type="line"/>
      <point x="921" y="465" type="line"/>
      <point x="815" y="465" type="line"/>
      <point x="815" y="631" type="line"/>
      <point x="442" y="631" type="line"/>
      <point x="442" y="108" type="line"/>
      <point x="1128" y="108" type="line"/>
      <point x="1140" y="424" type="line"/>
      <point x="1245" y="424" type="line"/>
      <point x="1245" y="0" type="line"/>
      <point x="132" y="0" type="line"/>
      <point x="132" y="108" type="line"/>
      <point x="327" y="108" type="line"/>
      <point x="327" y="1188" type="line"/>
      <point x="132" y="1188" type="line"/>
      <point x="132" y="1296" type="line"/>
      <point x="1225" y="1296" type="line"/>
    </contour>
    <contour>
      <point x="986" y="1520" type="line"/>
      <point x="912" y="1461" type="line"/>
      <point x="679" y="1614" type="line"/>
      <point x="470" y="1461" type="line"/>
      <point x="393" y="1517" type="line"/>
      <point x="596" y="1735" type="line"/>
      <point x="773" y="1735" type="line"/>
    </contour>
  </outline>
</glyph>
<glyph name="Edieresis" format="2">
  <advance width="600"/>
  <unicode hex="00CB"/>
  <outline>
    <contour>
      <point x="536" y="379" type="line"/>
      <point x="490" y="379" type="line"/>
      <point x="480" y="516" type="line"/>
      <point x="192" y="516" type="line"/>
      <point x="192" y="321" type="line"/>
      <point x="354" y="321" type="line"/>
      <point x="354" y="394" type="line"/>
      <point x="400" y="394" type="line"/>
      <point x="400" y="202" type="line"/>
      <point x="354" y="202" type="line"/>
      <point x="354" y="274" type="line"/>
      <point x="192" y="274" type="line"/>
      <point x="192" y="47" type="line"/>
      <point x="490" y="47" type="line"/>
      <point x="495" y="184" type="line"/>
      <point x="541" y="184" type="line"/>
      <point x="541" y="0" type="line"/>
      <point x="57" y="0" type="line"/>
      <point x="57" y="47" type="line"/>
      <point x="142" y="47" type="line"/>
      <point x="142" y="516" type="line"/>
      <point x="57" y="516" type="line"/>
      <point x="57" y="563" type="line"/>
      <point x="532" y="563" type="line"/>
    </contour>
    <contour>
      <point x="271" y="754" type="line"/>
      <point x="271" y="646" type="line"/>
      <point x="199" y="646" type="line"/>
      <point x="199" y="754" type="line"/>
    </contour>
    <contour>
      <point x="401" y="754" type="line"/>
      <point x="401" y="646" type="line"/>
      <point x="329" y="646" type="line"/>
      <point x="329" y="754" type="line"/>
    </contour>
  </outline>
</glyph>
<glyph name="Iacute" format="2">
  <advance width="600"/>
  <unicode hex="00CD"/>
  <outline>
    <contour>
      <point x="500" y="516" type="line"/>
      <point x="325" y="516" type="line"/>
      <point x="325" y="47" type="line"/>
      <point x="500" y="47" type="line"/>
      <point x="500" y="0" type="line"/>
      <point x="100" y="0" type="line"/>
      <point x="100" y="47" type="line"/>
      <point x="275" y="47" type="line"/>
      <point x="275" y="516" type="line"/>
      <point x="100" y="516" type="line"/>
      <point x="100" y="563" type="line"/>
      <point x="500" y="563" type="line"/>
    </contour>
    <contour>
      <point x="215" y="636" type="line"/>
      <point x="304" y="751" type="line"/>
      <point x="411" y="751" type="line"/>
      <point x="268" y="636" type="line"/>
    </contour>
  </outline>
</glyph>
<glyph name="Icircumflex" format="2">
  <advance width="1381"/>
  <unicode hex="00CE"/>
  <outline>
    <contour>
      <point x="1151" y="1188" type="line"/>
      <point x="749" y="1188" type="line"/>
      <point x="749" y="108" type="line"/>
      <point x="1151" y="108" type="line"/>
      <point x="1151" y="0" type="line"/>
      <point x="230" y="0" type="line"/>
      <point x="230" y="108" type="line"/>
      <point x="633" y="108" type="line"/>
      <point x="633" y="1188" type="line"/>
      <point x="230" y="1188" type="line"/>
      <point x="230" y="1296" type="line"/>
      <point x="1151" y="1296" type="line"/>
    </contour>
    <contour>
      <point x="986" y="1520" type="line"/>
      <point x="912" y="1461" type="line"/>
      <point x="679" y="1614" type="line"/>
      <point x="470" y="1461" type="line"/>
      <point x="393" y="1517" type="line"/>
      <point x="596" y="1735" type="line"/>
      <point x="773" y="1735" type="line"/>
    </contour>
  </outline>
</glyph>
<glyph name="Idieresis" format="2">
  <advance width="1381"/>
  <unicode hex="00CF"/>
  <outline>
    <contour>
      <point x="1151" y="1188" type="line"/>
      <point x="749" y="1188" type="line"/>
      <point x="749" y="108" type="line"/>
      <point x="1151" y="108" type="line"/>
      <point x="1151" y="0" type="line"/>
      <point x="230" y="0" type="line"/>
      <point x="230" y="108" type="line"/>
      <point x="633" y="108" type="line"/>
      <point x="633" y="1188" type="line"/>
      <point x="230" y="1188" type="line"/>
      <point x="230" y="1296" type="line"/>
      <point x="1151" y="1296" type="line"/>
    </contour>
    <contour>
      <point x="624" y="1735" type="line"/>
      <point x="624" y="1487" type="line"/>
      <point x="459" y="1487" type="line"/>
      <point x="459" y="1735" type="line"/>
    </contour>
    <contour>
      <point x="923" y="1735" type="line"/>
      <point x="923" y="1487" type="line"/>
      <point x="758" y="1487" type="line"/>
      <point x="758" y="1735" type="line"/>
    </contour>
  </outline>
</glyph>
<glyph name="Ntilde" format="2">
  <advance width="1381"/>
  <unicode hex="00D1"/>
  <outline>
    <contour>
      <point x="1063" y="97" type="line"/>
      <point x="1105" y="97" type="line"/>
      <point x="1105" y="1188" type="line"/>
      <point x="847" y="1188" type="line"/>
      <point x="847" y="1296" type="line"/>
      <point x="1360" y="1296" type="line"/>
      <point x="1360" y="1188" type="line"/>
      <point x="1211" y="1188" type="line"/>
      <point x="1211" y="-30" type="line"/>
      <point x="1006" y="-30" type="line"/>
      <point x="389" y="1188" type="line"/>
      <point x="350" y="1188" type="line"/>
      <point x="350" y="108" type="line"/>
      <point x="610" y="108" type="line"/>
      <point x="610" y="0" type="line"/>
      <point x="64" y="0" type="line"/>
      <point x="64" y="108" type="line"/>
      <point x="244" y="108" type="line"/>
      <point x="244" y="1188" type="line"/>
      <point x="64" y="1188" type="line"/>
      <point x="64" y="1296" type="line"/>
      <point x="459" y="1296" type="line"/>
    </contour>
    <contour>
      <point x="1059" y="1701" type="line"/>
      <point x="1054" y="1696"/>
      <point x="1054" y="1685" type="qcurve"/>
      <point x="1026" y="1588"/>
      <point x="903" y="1489"/>
      <point x="828" y="1489" type="qcurve" smooth="yes"/>
      <point x="789" y="1489"/>
      <point x="718" y="1522"/>
      <point x="665" y="1563" type="qcurve" smooth="yes"/>
      <point x="610" y="1604"/>
      <point x="564" y="1630"/>
      <point x="538" y="1630" type="qcurve" smooth="yes"/>
      <point x="492" y="1630"/>
      <point x="437" y="1556"/>
      <point x="419" y="1510" type="qcurve"/>
      <point x="419" y="1507"/>
      <point x="417" y="1501" type="qcurve" smooth="yes"/>
      <point x="415" y="1496" type="line"/>
      <point x="323" y="1529" type="line"/>
      <point x="354" y="1616"/>
      <point x="453" y="1733"/>
      <point x="538" y="1733" type="qcurve" smooth="yes"/>
      <point x="593" y="1733"/>
      <point x="672" y="1687"/>
      <point x="709" y="1656" type="qcurve"/>
      <point x="753" y="1623"/>
      <point x="810" y="1593"/>
      <point x="835" y="1593" type="qcurve" smooth="yes"/>
      <point x="865" y="1593"/>
      <point x="909" y="1623"/>
      <point x="940" y="1667"/>
      <point x="960" y="1713"/>
      <point x="967" y="1731" type="qcurve"/>
    </contour>
  </outline>
</glyph>
<glyph name="Otilde" format="2">
  <advance width="1381"/>
  <unicode hex="00D5"/>
  <outline>
    <contour>
      <point x="99" y="646" type="qcurve" smooth="yes"/>
      <point x="99" y="789"/>
      <point x="182" y="1041"/>
      <point x="336" y="1227"/>
      <point x="555" y="1335"/>
      <point x="690" y="1335" type="qcurve" smooth="yes"/>
      <point x="828" y="1335"/>
      <point x="1048" y="1225"/>
      <point x="1202" y="1036"/>
      <point x="1282" y="787"/>
      <point x="1282" y="646" type="qcurve" smooth="yes"/>
      <point x="1282" y="509"/>
      <point x="1199" y="257"/>
      <point x="1048" y="71"/>
      <point x="828" y="-39"/>
      <point x="690" y="-39" type="qcurve" smooth="yes"/>
      <point x="555" y="-39"/>
      <point x="336" y="69"/>
      <point x="182" y="255"/>
      <point x="99" y="505"/>
    </contour>
    <contour>
      <point x="224" y="650" type="qcurve" smooth="yes"/>
      <point x="224" y="545"/>
      <point x="283" y="341"/>
      <point x="400" y="178"/>
      <point x="575" y="76"/>
      <point x="690" y="76" type="qcurve" smooth="yes"/>
      <point x="804" y="76"/>
      <point x="978" y="175"/>
      <point x="1098" y="336"/>
      <point x="1158" y="541"/>
      <point x="1158" y="650" type="qcurve" smooth="yes"/>
      <point x="1158" y="758"/>
      <point x="1096" y="964"/>
      <point x="976" y="1123"/>
      <point x="804" y="1220"/>
      <point x="690" y="1220" type="qcurve" smooth="yes"/>
      <point x="571" y="1220"/>
      <point x="396" y="1116"/>
      <point x="281" y="953"/>
      <point x="224" y="749"/>
    </contour>
    <contour>
      <point x="1059" y="1701" type="line"/>
      <point x="1054" y="1696"/>
      <point x="1054" y="1685" type="qcurve"/>
      <point x="1026" y="1588"/>
      <point x="903" y="1489"/>
      <point x="828" y="1489" type="qcurve" smooth="yes"/>
      <point x="789" y="1489"/>
      <point x="718" y="1522"/>
      <point x="665" y="1563" type="qcurve" smooth="yes"/>
      <point x="610" y="1604"/>
      <point x="564" y="1630"/>
      <point x="538" y="1630" type="qcurve" smooth="yes"/>
      <point x="492" y="1630"/>
      <point x="437" y="1556"/>
      <point x="419" y="1510" type="qcurve"/>
      <point x="419" y="1507"/>
      <point x="417" y="1501" type="qcurve" smooth="yes"/>
      <point x="415" y="1496" type="line"/>
      <point x="323" y="1529" type="line"/>
      <point x="354" y="1616"/>
      <point x="453" y="1733"/>
      <point x="538" y="1733" type="qcurve" smooth="yes"/>
      <point x="593" y="1733"/>
      <point x="672" y="1687"/>
      <point x="709" y="1656" type="qcurve"/>
      <point x="753" y="1623"/>
      <point x="810" y="1593"/>
      <point x="835" y="1593" type="qcurve" smooth="yes"/>
      <point x="865" y="1593"/>
      <point x="909" y="1623"/>
      <point x="940" y="1667"/>
      <point x="960" y="1713"/>
      <point x="967" y="1731" type="qcurve"/>
    </contour>
  </outline>
</glyph>
<glyph name="Ugrave" format="2">
  <advance width="600"/>
  <unicode hex="00D9"/>
  <outline>
    <contour>
      <point x="248" y="516" type="line"/>
      <point x="146" y="516" type="line"/>
      <point x="146" y="234" type="line" smooth="yes"/>
      <point x="146" y="203"/>
      <point x="151" y="133"/>
      <point x="165" y="104" type="qcurve" smooth="yes"/>
      <point x="179" y="74"/>
      <point x="241" y="33"/>
      <point x="299" y="33" type="qcurve" smooth="yes"/>
      <point x="358" y="33"/>
      <point x="421" y="68"/>
      <point x="435" y="96" type="qcurve"/>
      <point x="450" y="123"/>
      <point x="455" y="190"/>
      <point x="455" y="224" type="qcurve" smooth="yes"/>
      <point x="455" y="516" type="line"/>
      <point x="353" y="516" type="line"/>
      <point x="353" y="563" type="line"/>
      <point x="577" y="563" type="line"/>
      <point x="577" y="516" type="line"/>
      <point x="505" y="516" type="line"/>
      <point x="505" y="224" type="line" smooth="yes"/>
      <point x="505" y="186"/>
      <point x="500" y="133"/>
      <point x="490" y="94"/>
      <point x="477" y="67"/>
      <point x="469" y="56" type="qcurve" smooth="yes"/>
      <point x="461" y="44"/>
      <point x="431" y="19"/>
      <point x="388" y="-3"/>
      <point x="333" y="-17"/>
      <point x="300" y="-17" type="qcurve" smooth="yes"/>
      <point x="282" y="-17"/>
      <point x="237" y="-11"/>
      <point x="191" y="7"/>
      <point x="147" y="37"/>
      <point x="130" y="61" type="qcurve" smooth="yes"/>
      <point x="117" y="79"/>
      <point x="103" y="125"/>
      <point x="97" y="172"/>
      <point x="96" y="217"/>
      <point x="96" y="234" type="qcurve" smooth="yes"/>
      <point x="96" y="516" type="line"/>
      <point x="24" y="516" type="line"/>
      <point x="24" y="563" type="line"/>
      <point x="248" y="563" type="line"/>
    </contour>
    <contour>
      <point x="374" y="636" type="line"/>
      <point x="322" y="636" type="line"/>
      <point x="190" y="751" type="line"/>
      <point x="297" y="751" type="line"/>
    </contour>
  </outline>
</glyph>
<glyph name="Ucircumflex" format="2">
  <advance width="1381"/>
  <unicode hex="00DB"/>
  <outline>
    <contour>
      <point x="571" y="1188" type="line"/>
      <point x="336" y="1188" type="line"/>
      <point x="336" y="538" type="line" smooth="yes"/>
      <point x="336" y="468"/>
      <point x="347" y="306"/>
      <point x="380" y="239" type="qcurve" smooth="yes"/>
      <point x="413" y="171"/>
      <point x="555" y="76"/>
      <point x="688" y="76" type="qcurve" smooth="yes"/>
      <point x="824" y="76"/>
      <point x="969" y="156"/>
      <point x="1001" y="221" type="qcurve"/>
      <point x="1036" y="283"/>
      <point x="1048" y="437"/>
      <point x="1048" y="516" type="qcurve" smooth="yes"/>
      <point x="1048" y="1188" type="line"/>
      <point x="813" y="1188" type="line"/>
      <point x="813" y="1296" type="line"/>
      <point x="1329" y="1296" type="line"/>
      <point x="1329" y="1188" type="line"/>
      <point x="1162" y="1188" type="line"/>
      <point x="1162" y="516" type="line" smooth="yes"/>
      <point x="1162" y="428"/>
      <point x="1151" y="306"/>
      <point x="1128" y="217"/>
      <point x="1098" y="154"/>
      <point x="1080" y="129" type="qcurve" smooth="yes"/>
      <point x="1061" y="101"/>
      <point x="992" y="44"/>
      <point x="894" y="-7"/>
      <point x="767" y="-39"/>
      <point x="690" y="-39" type="qcurve" smooth="yes"/>
      <point x="650" y="-39"/>
      <point x="545" y="-26"/>
      <point x="439" y="16"/>
      <point x="338" y="85"/>
      <point x="299" y="141" type="qcurve" smooth="yes"/>
      <point x="270" y="182"/>
      <point x="237" y="288"/>
      <point x="224" y="396"/>
      <point x="221" y="499"/>
      <point x="221" y="538" type="qcurve" smooth="yes"/>
      <point x="221" y="1188" type="line"/>
      <point x="55" y="1188" type="line"/>
      <point x="55" y="1296" type="line"/>
      <point x="571" y="1296" type="line"/>
    </contour>
    <contour>
      <point x="986" y="1520" type="line"/>
      <point x="912" y="1461" type="line"/>
      <point x="679" y="1614" type="line"/>
      <point x="470" y="1461" type="line"/>
      <point x="393" y="1517" type="line"/>
      <point x="596" y="1735" type="line"/>
      <point x="773" y="1735" type="line"/>
    </contour>
  </outline>
</glyph>
<glyph name="Yacute" format="2">
  <advance width="1381"/>
  <unicode hex="00DD"/>
  <outline>
    <contour>
      <point x="525" y="1188" type="line"/>
      <point x="350" y="1188" type="line"/>
      <point x="698" y="617" type="line"/>
      <point x="1041" y="1188" type="line"/>
      <point x="861" y="1188" type="line"/>
      <point x="861" y="1296" type="line"/>
      <point x="1307" y="1296" type="line"/>
      <point x="1307" y="1188" type="line"/>
      <point x="1162" y="1188" type="line"/>
      <point x="751" y="501" type="line"/>
      <point x="751" y="108" type="line"/>
      <point x="1022" y="108" type="line"/>
      <point x="1022" y="0" type="line"/>
      <point x="362" y="0" type="line"/>
      <point x="362" y="108" type="line"/>
      <point x="635" y="108" type="line"/>
      <point x="635" y="501" type="line"/>
      <point x="219" y="1188" type="line"/>
      <point x="74" y="1188" type="line"/>
      <point x="74" y="1296" type="line"/>
      <point x="525" y="1296" type="line"/>
    </contour>
    <contour>
      <point x="495" y="1465" type="line"/>
      <point x="700" y="1729" type="line"/>
      <point x="946" y="1729" type="line"/>
      <point x="617" y="1465" type="line"/>
    </contour>
  </outline>
</glyph>
<glyph name="Thorn" format="2">
  <advance width="1381"/>
  <unicode hex="00DE"/>
  <outline>
    <contour>
      <point x="725" y="0" type="line"/>
      <point x="163" y="0" type="line"/>
      <point x="163" y="108" type="line"/>
      <point x="350" y="108" type="line"/>
      <point x="350" y="1188" type="line"/>
      <point x="163" y="1188" type="line"/>
      <point x="163" y="1296" type="line"/>
      <point x="725" y="1296" type="line"/>
      <point x="725" y="1188" type="line"/>
      <point x="465" y="1188" type="line"/>
      <point x="465" y="1070" type="line"/>
      <point x="591" y="1070" type="line" smooth="yes"/>
      <point x="698" y="1070"/>
      <point x="843" y="1066"/>
      <point x="946" y="1050"/>
      <point x="1022" y="1022"/>
      <point x="1059" y="999" type="qcurve" smooth="yes"/>
      <point x="1133" y="953"/>
      <point x="1230" y="785"/>
      <point x="1230" y="679" type="qcurve" smooth="yes"/>
      <point x="1230" y="575"/>
      <point x="1133" y="393"/>
      <point x="1059" y="352" type="qcurve"/>
      <point x="1017" y="327"/>
      <point x="940" y="299"/>
      <point x="835" y="285"/>
      <point x="695" y="283"/>
      <point x="591" y="283" type="qcurve" smooth="yes"/>
      <point x="465" y="283" type="line"/>
      <point x="465" y="108" type="line"/>
      <point x="725" y="108" type="line"/>
    </contour>
    <contour>
      <point x="465" y="391" type="line"/>
      <point x="596" y="391" type="line" smooth="yes"/>
      <point x="736" y="391"/>
      <point x="949" y="405"/>
      <point x="1008" y="453" type="qcurve" smooth="yes"/>
      <point x="1041" y="479"/>
      <point x="1105" y="589"/>
      <point x="1105" y="672" type="qcurve" smooth="yes"/>
      <point x="1105" y="767"/>
      <point x="1013" y="894"/>
      <point x="967" y="916" type="qcurve"/>
      <point x="946" y="927"/>
      <point x="900" y="944"/>
      <point x="837" y="955"/>
      <point x="753" y="962"/>
      <point x="690" y="962" type="qcurve" smooth="yes"/>
      <point x="465" y="962" type="line"/>
    </contour>
  </outline>
</glyph>
<glyph name="aring" format="2">
  <advance width="1381"/>
  <unicode hex="00E5"/>
  <outline>
    <contour>
      <point x="1266" y="108" type="line"/>
      <point x="1266" y="0" type="line"/>
      <point x="946" y="0" type="line"/>
      <point x="946" y="165" type="line"/>
      <point x="912" y="134"/>
      <point x="817" y="62"/>
      <point x="707" y="4"/>
      <point x="578" y="-33"/>
      <point x="507" y="-33" type="qcurve" smooth="yes"/>
      <point x="419" y="-33"/>
      <point x="283" y="26"/>
      <point x="187" y="117"/>
      <point x="136" y="233"/>
      <point x="136" y="292" type="qcurve" smooth="yes"/>
      <point x="136" y="338"/>
      <point x="182" y="459"/>
      <point x="292" y="566"/>
      <point x="481" y="640"/>
      <point x="624" y="640" type="qcurve" smooth="yes"/>
      <point x="631" y="640"/>
      <point x="695" y="637"/>
      <point x="785" y="631"/>
      <point x="894" y="619"/>
      <point x="946" y="610" type="qcurve"/>
      <point x="946" y="681" type="line" smooth="yes"/>
      <point x="946" y="709"/>
      <point x="937" y="792"/>
      <point x="886" y="870"/>
      <point x="771" y="925"/>
      <point x="668" y="925" type="qcurve" smooth="yes"/>
      <point x="606" y="925"/>
      <point x="413" y="889"/>
      <point x="274" y="828" type="qcurve"/>
      <point x="230" y="932" type="line"/>
      <point x="303" y="964"/>
      <point x="532" y="1036"/>
      <point x="670" y="1036" type="qcurve" smooth="yes"/>
      <point x="817" y="1036"/>
      <point x="976" y="951"/>
      <point x="1050" y="833"/>
      <point x="1061" y="716"/>
      <point x="1061" y="681" type="qcurve" smooth="yes"/>
      <point x="1061" y="108" type="line"/>
    </contour>
    <contour>
      <point x="946" y="505" type="line"/>
      <point x="907" y="511"/>
      <point x="744" y="529"/>
      <point x="646" y="529" type="qcurve" smooth="yes"/>
      <point x="505" y="529"/>
      <point x="347" y="463"/>
      <point x="274" y="378"/>
      <point x="260" y="299"/>
      <point x="260" y="290" type="qcurve" smooth="yes"/>
      <point x="260" y="246"/>
      <point x="299" y="171"/>
      <point x="369" y="112"/>
      <point x="456" y="79"/>
      <point x="505" y="79" type="qcurve" smooth="yes"/>
      <point x="532" y="79"/>
      <point x="622" y="92"/>
      <point x="736" y="141"/>
      <point x="872" y="237"/>
      <point x="946" y="320" type="qcurve"/>
    </contour>
    <contour>
      <point x="690" y="1478" type="qcurve" smooth="yes"/>
      <point x="764" y="1478"/>
      <point x="865" y="1377"/>
      <point x="865" y="1303" type="qcurve" smooth="yes"/>
      <point x="865" y="1230"/>
      <point x="764" y="1128"/>
      <point x="690" y="1128" type="qcurve" smooth="yes"/>
      <point x="617" y="1128"/>
      <point x="516" y="1230"/>
      <point x="516" y="1303" type="qcurve" smooth="yes"/>
      <point x="516" y="1377"/>
      <point x="617" y="1478"/>
    </contour>
    <contour>
      <point x="692" y="1390" type="qcurve" smooth="yes"/>
      <point x="656" y="1390"/>
      <point x="604" y="1344"/>
      <point x="604" y="1303" type="qcurve" smooth="yes"/>
      <point x="604" y="1266"/>
      <point x="656" y="1215"/>
      <point x="692" y="1215" type="qcurve" smooth="yes"/>
      <point x="729" y="1215"/>
      <point x="778" y="1266"/>
      <point x="778" y="1303" type="qcurve" smooth="yes"/>
      <point x="778" y="1340"/>
      <point x="729" y="1390"/>
    </contour>
  </outline>
</glyph>
<glyph name="ae" format="2">
  <advance width="1381"/>
  <unicode hex="00E6"/>
  <outline>
    <contour>
      <point x="736" y="468" type="line"/>
      <point x="741" y="369"/>
      <point x="764" y="235"/>
      <point x="810" y="175" type="qcurve" smooth="yes"/>
      <point x="863" y="106"/>
      <point x="973" y="79"/>
      <point x="1006" y="79" type="qcurve" smooth="yes"/>
      <point x="1075" y="79"/>
      <point x="1208" y="110"/>
      <point x="1266" y="129" type="qcurve"/>
      <point x="1307" y="30" type="line"/>
      <point x="1184" y="-13"/>
      <point x="1032" y="-33"/>
      <point x="1001" y="-33" type="qcurve" smooth="yes"/>
      <point x="932" y="-33"/>
      <point x="831" y="9"/>
      <point x="760" y="64"/>
      <point x="716" y="123"/>
      <point x="705" y="138" type="qcurve"/>
      <point x="652" y="85"/>
      <point x="553" y="16"/>
      <point x="465" y="-20"/>
      <point x="391" y="-35"/>
      <point x="362" y="-35" type="qcurve" smooth="yes"/>
      <point x="292" y="-35"/>
      <point x="187" y="16"/>
      <point x="112" y="101"/>
      <point x="76" y="209"/>
      <point x="76" y="268" type="qcurve" smooth="yes"/>
      <point x="76" y="325"/>
      <point x="123" y="448"/>
      <point x="211" y="547"/>
      <point x="350" y="613"/>
      <point x="444" y="613" type="qcurve" smooth="yes"/>
      <point x="483" y="613"/>
      <point x="558" y="601"/>
      <point x="622" y="591" type="qcurve"/>
      <point x="622" y="672" type="line" smooth="yes"/>
      <point x="622" y="792"/>
      <point x="558" y="925"/>
      <point x="453" y="925" type="qcurve" smooth="yes"/>
      <point x="393" y="925"/>
      <point x="274" y="898"/>
      <point x="178" y="863" type="qcurve"/>
      <point x="145" y="964" type="line"/>
      <point x="242" y="1001"/>
      <point x="384" y="1036"/>
      <point x="456" y="1036" type="qcurve" smooth="yes"/>
      <point x="518" y="1036"/>
      <point x="604" y="1008"/>
      <point x="659" y="960"/>
      <point x="692" y="898"/>
      <point x="705" y="863" type="qcurve"/>
      <point x="723" y="886"/>
      <point x="771" y="949"/>
      <point x="837" y="999"/>
      <point x="923" y="1036"/>
      <point x="978" y="1036" type="qcurve" smooth="yes"/>
      <point x="988" y="1036"/>
      <point x="1045" y="1028"/>
      <point x="1121" y="997"/>
      <point x="1202" y="927"/>
      <point x="1266" y="801"/>
      <point x="1303" y="608"/>
      <point x="1296" y="468" type="qcurve"/>
    </contour>
    <contour>
      <point x="622" y="481" type="line"/>
      <point x="562" y="492"/>
      <point x="486" y="501"/>
      <point x="446" y="501" type="qcurve" smooth="yes"/>
      <point x="369" y="501"/>
      <point x="270" y="451"/>
      <point x="211" y="380"/>
      <point x="191" y="297"/>
      <point x="191" y="268" type="qcurve" smooth="yes"/>
      <point x="191" y="233"/>
      <point x="211" y="165"/>
      <point x="253" y="110"/>
      <point x="316" y="76"/>
      <point x="359" y="76" type="qcurve" smooth="yes"/>
      <point x="400" y="76"/>
      <point x="481" y="103"/>
      <point x="547" y="145"/>
      <point x="604" y="189"/>
      <point x="622" y="205" type="qcurve"/>
    </contour>
    <contour>
      <point x="1181" y="575" type="line"/>
      <point x="1169" y="925"/>
      <point x="976" y="925" type="qcurve" smooth="yes"/>
      <point x="916" y="925"/>
      <point x="833" y="863"/>
      <point x="808" y="833" type="qcurve" smooth="yes"/>
      <point x="758" y="771"/>
      <point x="738" y="650"/>
      <point x="736" y="575" type="qcurve"/>
    </contour>
  </outline>
</glyph>
<glyph name="ccedilla" format="2">
  <advance width="600"/>
  <unicode hex="00E7"/>
  <outline>
    <contour>
      <point x="330" y="-26" type="line"/>
      <point x="351" y="-31"/>
      <point x="371" y="-64"/>
      <point x="371" y="-81" type="qcurve" smooth="yes"/>
      <point x="371" y="-89"/>
      <point x="365" y="-111"/>
      <point x="352" y="-131"/>
      <point x="329" y="-144"/>
      <point x="311" y="-144" type="qcurve" smooth="yes"/>
      <point x="291" y="-144"/>
      <point x="265" y="-130"/>
      <point x="253" y="-122" type="qcurve"/>
      <point x="275" y="-85" type="line"/>
      <point x="291" y="-96"/>
      <point x="300" y="-100"/>
      <point x="307" y="-100" type="qcurve" smooth="yes"/>
      <point x="319" y="-100"/>
      <point x="326" y="-87"/>
      <point x="326" y="-82" type="qcurve" smooth="yes"/>
      <point x="326" y="-69"/>
      <point x="309" y="-65"/>
      <point x="305" y="-65" type="qcurve" smooth="yes"/>
      <point x="297" y="-65"/>
      <point x="287" y="-66"/>
      <point x="282" y="-67" type="qcurve"/>
      <point x="286" y="-13" type="line"/>
      <point x="247" y="-12"/>
      <point x="170" y="20"/>
      <point x="109" y="79"/>
      <point x="71" y="163"/>
      <point x="71" y="216" type="qcurve" smooth="yes"/>
      <point x="71" y="256"/>
      <point x="100" y="337"/>
      <point x="158" y="403"/>
      <point x="248" y="445"/>
      <point x="310" y="445" type="qcurve" smooth="yes"/>
      <point x="349" y="445"/>
      <point x="409" y="426"/>
      <point x="440" y="404" type="qcurve"/>
      <point x="441" y="403"/>
      <point x="452" y="395"/>
      <point x="460" y="389"/>
      <point x="461" y="389" type="qcurve"/>
      <point x="464" y="389"/>
      <point x="468" y="400"/>
      <point x="469" y="402" type="qcurve"/>
      <point x="477" y="443" type="line"/>
      <point x="523" y="438" type="line"/>
      <point x="521" y="423"/>
      <point x="514" y="372"/>
      <point x="514" y="346" type="qcurve" smooth="yes"/>
      <point x="514" y="319"/>
      <point x="517" y="280" type="qcurve"/>
      <point x="471" y="273" type="line"/>
      <point x="463" y="307"/>
      <point x="449" y="346"/>
      <point x="430" y="362" type="qcurve" smooth="yes"/>
      <point x="416" y="373"/>
      <point x="384" y="386"/>
      <point x="353" y="393"/>
      <point x="325" y="395"/>
      <point x="315" y="395" type="qcurve" smooth="yes"/>
      <point x="267" y="395"/>
      <point x="196" y="364"/>
      <point x="148" y="313"/>
      <point x="125" y="250"/>
      <point x="125" y="217" type="qcurve" smooth="yes"/>
      <point x="125" y="185"/>
      <point x="147" y="121"/>
      <point x="192" y="69"/>
      <point x="262" y="36"/>
      <point x="311" y="36" type="qcurve" smooth="yes"/>
      <point x="365" y="36"/>
      <point x="468" y="83"/>
      <point x="523" y="121" type="qcurve"/>
      <point x="549" y="83" type="line"/>
      <point x="494" y="41"/>
      <point x="393" y="-7"/>
      <point x="330" y="-13" type="qcurve"/>
    </contour>
  </outline>
</glyph>
<glyph name="eacute" format="2">
  <advance width="600"/>
  <unicode hex="00E9"/>
  <outline>
    <contour>
      <point x="559" y="57" type="line"/>
      <point x="539" y="46"/>
      <point x="485" y="21"/>
      <point x="422" y="0"/>
      <point x="352" y="-14"/>
      <point x="317" y="-14" type="qcurve" smooth="yes"/>
      <point x="256" y="-14"/>
      <point x="165" y="24"/>
      <point x="104" y="87"/>
      <point x="74" y="170"/>
      <point x="74" y="214" type="qcurve" smooth="yes"/>
      <point x="74" y="260"/>
      <point x="107" y="344"/>
      <point x="168" y="408"/>
      <point x="256" y="445"/>
      <point x="311" y="445" type="qcurve" smooth="yes"/>
      <point x="368" y="445"/>
      <point x="453" y="409"/>
      <point x="510" y="351"/>
      <point x="538" y="280"/>
      <point x="538" y="246" type="qcurve" smooth="yes"/>
      <point x="538" y="234"/>
      <point x="536" y="206"/>
      <point x="536" y="201" type="qcurve"/>
      <point x="128" y="201" type="line"/>
      <point x="129" y="181"/>
      <point x="145" y="124"/>
      <point x="187" y="72"/>
      <point x="260" y="34"/>
      <point x="318" y="34" type="qcurve" smooth="yes"/>
      <point x="349" y="34"/>
      <point x="414" y="49"/>
      <point x="472" y="70"/>
      <point x="520" y="93"/>
      <point x="536" y="101" type="qcurve"/>
    </contour>
    <contour>
      <point x="484" y="248" type="line"/>
      <point x="484" y="272"/>
      <point x="463" y="325"/>
      <point x="421" y="369"/>
      <point x="356" y="397"/>
      <point x="311" y="397" type="qcurve" smooth="yes"/>
      <point x="261" y="397"/>
      <point x="194" y="363"/>
      <point x="152" y="316"/>
      <point x="131" y="265"/>
      <point x="128" y="248" type="qcurve"/>
    </contour>
    <contour>
      <point x="215" y="503" type="line"/>
      <point x="304" y="618" type="line"/>
      <point x="411" y="618" type="line"/>
      <point x="268" y="503" type="line"/>
    </contour>
  </outline>
</glyph>
<glyph name="igrave" format="2">
  <advance width="1381"/>
  <unicode hex="00EC"/>
  <outline>
    <contour>
      <point x="861" y="1158" type="line"/>
      <point x="741" y="1158" type="line"/>
      <point x="437" y="1423" type="line"/>
      <point x="683" y="1423" type="line"/>
    </contour>
    <contour>
      <point x="753" y="108" type="line"/>
      <point x="1151" y="108" type="line"/>
      <point x="1151" y="0" type="line"/>
      <point x="233" y="0" type="line"/>
      <point x="233" y="108" type="line"/>
      <point x="637" y="108" type="line"/>
      <point x="637" y="881" type="line"/>
      <point x="299" y="881" type="line"/>
      <point x="299" y="990" type="line"/>
      <point x="753" y="990" type="line"/>
    </contour>
  </outline>
</glyph>
<glyph name="iacute" format="2">
  <advance width="1381"/>
  <unicode hex="00ED"/>
  <outline>
    <contour>
      <point x="495" y="1158" type="line"/>
      <point x="700" y="1423" type="line"/>
      <point x="946" y="1423" type="line"/>
      <point x="617" y="1158" type="line"/>
    </contour>
    <contour>
      <point x="753" y="108" type="line"/>
      <point x="1151" y="108" type="line"/>
      <point x="1151" y="0" type="line"/>
      <point x="233" y="0" type="line"/>
      <point x="233" y="108" type="line"/>
      <point x="637" y="108" type="line"/>
      <point x="637" y="881" type="line"/>
      <point x="299" y="881" type="line"/>
      <point x="299" y="990" type="line"/>
      <point x="753" y="990" type="line"/>
    </contour>
  </outline>
</glyph>
<glyph name="idieresis" format="2">
  <advance width="1381"/>
  <unicode hex="00EF"/>
  <outline>
    <contour>
      <point x="624" y="1430" type="line"/>
      <point x="624" y="1181" type="line"/>
      <point x="459" y="1181" type="line"/>
      <point x="459" y="1430" type="line"/>
    </contour>
    <contour>
      <point x="923" y="1430" type="line"/>
      <point x="923" y="1181" type="line"/>
      <point x="758" y="1181" type="line"/>
      <point x="758" y="1430" type="line"/>
    </contour>
    <contour>
      <point x="753" y="108" type="line"/>
      <point x="1151" y="108" type="line"/>
      <point x="1151" y="0" type="line"/>
      <point x="233" y="0" type="line"/>
      <point x="233" y="108" type="line"/>
      <point x="637" y="108" type="line"/>
      <point x="637" y="881" type="line"/>
      <point x="299" y="881" type="line"/>
      <point x="299" y="990" type="line"/>
      <point x="753" y="990" type="line"/>
    </contour>
  </outline>
</glyph>
<glyph name="eth" format="2">
  <advance width="1381"/>
  <unicode hex="00F0"/>
  <outline>
    <contour>
      <point x="391" y="1188" type="line"/>
      <point x="507" y="1362" type="line"/>
      <point x="463" y="1384"/>
      <point x="398" y="1413"/>
      <point x="341" y="1436"/>
      <point x="285" y="1454"/>
      <point x="251" y="1467" type="qcurve"/>
      <point x="290" y="1579" type="line"/>
      <point x="334" y="1566"/>
      <point x="400" y="1542"/>
      <point x="463" y="1517"/>
      <point x="529" y="1487"/>
      <point x="571" y="1467" type="qcurve"/>
      <point x="665" y="1621" type="line"/>
      <point x="764" y="1556" type="line"/>
      <point x="674" y="1413" type="line"/>
      <point x="709" y="1393"/>
      <point x="824" y="1316"/>
      <point x="955" y="1208"/>
      <point x="1087" y="1063"/>
      <point x="1195" y="879"/>
      <point x="1261" y="656"/>
      <point x="1261" y="523" type="qcurve" smooth="yes"/>
      <point x="1261" y="389"/>
      <point x="1173" y="182"/>
      <point x="1019" y="42"/>
      <point x="810" y="-33"/>
      <point x="690" y="-33" type="qcurve" smooth="yes"/>
      <point x="547" y="-33"/>
      <point x="334" y="60"/>
      <point x="191" y="209"/>
      <point x="119" y="400"/>
      <point x="119" y="501" type="qcurve" smooth="yes"/>
      <point x="119" y="628"/>
      <point x="211" y="826"/>
      <point x="366" y="964"/>
      <point x="564" y="1036"/>
      <point x="670" y="1036" type="qcurve" smooth="yes"/>
      <point x="760" y="1036"/>
      <point x="934" y="999"/>
      <point x="986" y="973" type="qcurve"/>
      <point x="990" y="978" type="line"/>
      <point x="958" y="1019"/>
      <point x="894" y="1096"/>
      <point x="808" y="1177"/>
      <point x="692" y="1259"/>
      <point x="610" y="1307" type="qcurve"/>
      <point x="490" y="1118" type="line"/>
    </contour>
    <contour>
      <point x="244" y="501" type="qcurve" smooth="yes"/>
      <point x="244" y="419"/>
      <point x="301" y="268"/>
      <point x="417" y="147"/>
      <point x="582" y="76"/>
      <point x="690" y="76" type="qcurve" smooth="yes"/>
      <point x="801" y="76"/>
      <point x="969" y="149"/>
      <point x="1080" y="270"/>
      <point x="1137" y="422"/>
      <point x="1137" y="501" type="qcurve" smooth="yes"/>
      <point x="1137" y="580"/>
      <point x="1080" y="734"/>
      <point x="967" y="854"/>
      <point x="801" y="927"/>
      <point x="690" y="927" type="qcurve" smooth="yes"/>
      <point x="582" y="927"/>
      <point x="417" y="856"/>
      <point x="303" y="738"/>
      <point x="244" y="584"/>
    </contour>
  </outline>
</glyph>
<glyph name="ntilde" format="2">
  <advance width="1381"/>
  <unicode hex="00F1"/>
  <outline>
    <contour>
      <point x="382" y="861" type="line"/>
      <point x="419" y="889"/>
      <point x="507" y="946"/>
      <point x="606" y="995"/>
      <point x="716" y="1024"/>
      <point x="778" y="1024" type="qcurve" smooth="yes"/>
      <point x="856" y="1024"/>
      <point x="982" y="969"/>
      <point x="1072" y="868"/>
      <point x="1121" y="727"/>
      <point x="1121" y="644" type="qcurve" smooth="yes"/>
      <point x="1121" y="108" type="line"/>
      <point x="1305" y="108" type="line"/>
      <point x="1305" y="0" type="line"/>
      <point x="808" y="0" type="line"/>
      <point x="808" y="108" type="line"/>
      <point x="1006" y="108" type="line"/>
      <point x="1006" y="635" type="line" smooth="yes"/>
      <point x="1006" y="762"/>
      <point x="883" y="909"/>
      <point x="780" y="909" type="qcurve" smooth="yes"/>
      <point x="753" y="909"/>
      <point x="679" y="898"/>
      <point x="582" y="859"/>
      <point x="461" y="787"/>
      <point x="382" y="725" type="qcurve"/>
      <point x="382" y="108" type="line"/>
      <point x="575" y="108" type="line"/>
      <point x="575" y="0" type="line"/>
      <point x="79" y="0" type="line"/>
      <point x="79" y="108" type="line"/>
      <point x="268" y="108" type="line"/>
      <point x="268" y="881" type="line"/>
      <point x="79" y="881" type="line"/>
      <point x="79" y="990" type="line"/>
      <point x="382" y="990" type="line"/>
    </contour>
    <contour>
      <point x="1059" y="1395" type="line"/>
      <point x="1054" y="1390"/>
      <point x="1054" y="1379" type="qcurve"/>
      <point x="1026" y="1282"/>
      <point x="903" y="1184"/>
      <point x="828" y="1184" type="qcurve" smooth="yes"/>
      <point x="789" y="1184"/>
      <point x="718" y="1215"/>
      <point x="665" y="1257" type="qcurve"/>
      <point x="610" y="1298"/>
      <point x="564" y="1324"/>
      <point x="538" y="1324" type="qcurve" smooth="yes"/>
      <point x="492" y="1324"/>
      <point x="437" y="1250"/>
      <point x="419" y="1204" type="qcurve"/>
      <point x="419" y="1202"/>
      <point x="417" y="1197" type="qcurve"/>
      <point x="415" y="1190" type="line"/>
      <point x="323" y="1222" type="line"/>
      <point x="354" y="1309"/>
      <point x="453" y="1427"/>
      <point x="538" y="1427" type="qcurve" smooth="yes"/>
      <point x="593" y="1427"/>
      <point x="672" y="1381"/>
      <point x="709" y="1349" type="qcurve"/>
      <point x="753" y="1316"/>
      <point x="810" y="1287"/>
      <point x="835" y="1287" type="qcurve" smooth="yes"/>
      <point x="865" y="1287"/>
      <point x="909" y="1316"/>
      <point x="940" y="1360"/>
      <point x="960" y="1406"/>
      <point x="967" y="1425" type="qcurve"/>
    </contour>
  </outline>
</glyph>
<glyph name="otilde" format="2">
  <advance width="1381"/>
  <unicode hex="00F5"/>
  <outline>
    <contour>
      <point x="119" y="501" type="qcurve" smooth="yes"/>
      <point x="119" y="606"/>
      <point x="193" y="799"/>
      <point x="336" y="946"/>
      <point x="550" y="1036"/>
      <point x="690" y="1036" type="qcurve" smooth="yes"/>
      <point x="835" y="1036"/>
      <point x="1050" y="944"/>
      <point x="1190" y="792"/>
      <point x="1261" y="601"/>
      <point x="1261" y="501" type="qcurve" smooth="yes"/>
      <point x="1261" y="402"/>
      <point x="1190" y="211"/>
      <point x="1050" y="60"/>
      <point x="835" y="-33"/>
      <point x="690" y="-33" type="qcurve" smooth="yes"/>
      <point x="550" y="-33"/>
      <point x="336" y="57"/>
      <point x="193" y="207"/>
      <point x="119" y="398"/>
    </contour>
    <contour>
      <point x="244" y="501" type="qcurve" smooth="yes"/>
      <point x="244" y="422"/>
      <point x="301" y="270"/>
      <point x="415" y="152"/>
      <point x="582" y="83"/>
      <point x="690" y="83" type="qcurve" smooth="yes"/>
      <point x="801" y="83"/>
      <point x="969" y="154"/>
      <point x="1080" y="272"/>
      <point x="1137" y="422"/>
      <point x="1137" y="501" type="qcurve" smooth="yes"/>
      <point x="1137" y="580"/>
      <point x="1080" y="732"/>
      <point x="969" y="850"/>
      <point x="801" y="921"/>
      <point x="690" y="921" type="qcurve" smooth="yes"/>
      <point x="582" y="921"/>
      <point x="417" y="852"/>
      <point x="301" y="734"/>
      <point x="244" y="584"/>
    </contour>
    <contour>
      <point x="1059" y="1395" type="line"/>
      <point x="1054" y="1390"/>
      <point x="1054" y="1379" type="qcurve"/>
      <point x="1026" y="1282"/>
      <point x="903" y="1184"/>
      <point x="828" y="1184" type="qcurve" smooth="yes"/>
      <point x="789" y="1184"/>
      <point x="718" y="1215"/>
      <point x="665" y="1257" type="qcurve"/>
      <point x="610" y="1298"/>
      <point x="564" y="1324"/>
      <point x="538" y="1324" type="qcurve" smooth="yes"/>
      <point x="492" y="1324"/>
      <point x="437" y="1250"/>
      <point x="419" y="1204" type="qcurve"/>
      <point x="419" y="1202"/>
      <point x="417" y="1197" type="qcurve"/>
      <point x="415" y="1190" type="line"/>
      <point x="323" y="1222" type="line"/>
      <point x="354" y="1309"/>
      <point x="453" y="1427"/>
      <point x="538" y="1427" type="qcurve" smooth="yes"/>
      <point x="593" y="1427"/>
      <point x="672" y="1381"/>
      <point x="709" y="1349" type="qcurve"/>
      <point x="753" y="1316"/>
      <point x="810" y="1287"/>
      <point x="835" y="1287" type="qcurve" smooth="yes"/>
      <point x="865" y="1287"/>
      <point x="909" y="1316"/>
      <point x="940" y="1360"/>
      <point x="960" y="1406"/>
      <point x="967" y="1425" type="qcurve"/>
    </contour>
  </outline>
</glyph>
<glyph name="odieresis" format="2">
  <advance width="1381"/>
  <unicode hex="00F6"/>
  <outline>
    <contour>
      <point x="119" y="501" type="qcurve" smooth="yes"/>
      <point x="119" y="606"/>
      <point x="193" y="799"/>
      <point x="336" y="946"/>
      <point x="550" y="1036"/>
      <point x="690" y="1036" type="qcurve" smooth="yes"/>
      <point x="835" y="1036"/>
      <point x="1050" y="944"/>
      <point x="1190" y="792"/>
      <point x="1261" y="601"/>
      <point x="1261" y="501" type="qcurve" smooth="yes"/>
      <point x="1261" y="402"/>
      <point x="1190" y="211"/>
      <point x="1050" y="60"/>
      <point x="835" y="-33"/>
      <point x="690" y="-33" type="qcurve" smooth="yes"/>
      <point x="550" y="-33"/>
      <point x="336" y="57"/>
      <point x="193" y="207"/>
      <point x="119" y="398"/>
    </contour>
    <contour>
      <point x="244" y="501" type="qcurve" smooth="yes"/>
      <point x="244" y="422"/>
      <point x="301" y="270"/>
      <point x="415" y="152"/>
      <point x="582" y="83"/>
      <point x="690" y="83" type="qcurve" smooth="yes"/>
      <point x="801" y="83"/>
      <point x="969" y="154"/>
      <point x="1080" y="272"/>
      <point x="1137" y="422"/>
      <point x="1137" y="501" type="qcurve" smooth="yes"/>
      <point x="1137" y="580"/>
      <point x="1080" y="732"/>
      <point x="969" y="850"/>
      <point x="801" y="921"/>
      <point x="690" y="921" type="qcurve" smooth="yes"/>
      <point x="582" y="921"/>
      <point x="417" y="852"/>
      <point x="301" y="734"/>
      <point x="244" y="584"/>
    </contour>
    <contour>
      <point x="624" y="1430" type="line"/>
      <point x="624" y="1181" type="line"/>
      <point x="459" y="1181" type="line"/>
      <point x="459" y="1430" type="line"/>
    </contour>
    <contour>
      <point x="923" y="1430" type="line"/>
      <point x="923" y="1181" type="line"/>
      <point x="758" y="1181" type="line"/>
      <point x="758" y="1430" type="line"/>
    </contour>
  </outline>
</glyph>
<glyph name="divide" format="2">
  <advance width="1381"/>
  <unicode hex="00F7"/>
  <outline>
    <contour>
      <point x="690" y="1215" type="qcurve" smooth="yes"/>
      <point x="732" y="1215"/>
      <point x="795" y="1158"/>
      <point x="795" y="1112" type="qcurve" smooth="yes"/>
      <point x="795" y="1070"/>
      <point x="736" y="1008"/>
      <point x="690" y="1008" type="qcurve" smooth="yes"/>
      <point x="646" y="1008"/>
      <point x="587" y="1070"/>
      <point x="587" y="1112" type="qcurve" smooth="yes"/>
      <point x="587" y="1158"/>
      <point x="652" y="1215"/>
    </contour>
    <contour>
      <point x="1230" y="640" type="line"/>
      <point x="152" y="640" type="line"/>
      <point x="152" y="755" type="line"/>
      <point x="1230" y="755" type="line"/>
    </contour>
    <contour>
      <point x="690" y="387" type="qcurve" smooth="yes"/>
      <point x="729" y="387"/>
      <point x="795" y="329"/>
      <point x="795" y="283" type="qcurve" smooth="yes"/>
      <point x="795" y="237"/>
      <point x="729" y="180"/>
      <point x="690" y="180" type="qcurve" smooth="yes"/>
      <point x="650" y="180"/>
      <point x="587" y="239"/>
      <point x="587" y="283" type="qcurve" smooth="yes"/>
      <point x="587" y="329"/>
      <point x="650" y="387"/>
    </contour>
  </outline>
</glyph>
<glyph name="oslash" format="2">
  <advance width="1381"/>
  <unicode hex="00F8"/>
  <outline>
    <contour>
      <point x="138" y="53" type="line"/>
      <point x="244" y="158" type="line"/>
      <point x="205" y="207"/>
      <point x="156" y="306"/>
      <point x="129" y="398"/>
      <point x="119" y="477"/>
      <point x="119" y="505" type="qcurve" smooth="yes"/>
      <point x="119" y="604"/>
      <point x="191" y="797"/>
      <point x="336" y="944"/>
      <point x="547" y="1036"/>
      <point x="690" y="1036" type="qcurve" smooth="yes"/>
      <point x="771" y="1036"/>
      <point x="967" y="992"/>
      <point x="1041" y="932" type="qcurve"/>
      <point x="1153" y="1048" type="line"/>
      <point x="1241" y="960" type="line"/>
      <point x="1135" y="854" type="line"/>
      <point x="1177" y="806"/>
      <point x="1227" y="703"/>
      <point x="1252" y="608"/>
      <point x="1261" y="527"/>
      <point x="1261" y="501" type="qcurve" smooth="yes"/>
      <point x="1261" y="398"/>
      <point x="1188" y="205"/>
      <point x="1043" y="55"/>
      <point x="831" y="-33"/>
      <point x="695" y="-33" type="qcurve" smooth="yes"/>
      <point x="683" y="-33"/>
      <point x="610" y="-30"/>
      <point x="509" y="-9"/>
      <point x="389" y="35"/>
      <point x="334" y="74" type="qcurve"/>
      <point x="228" y="-33" type="line"/>
    </contour>
    <contour>
      <point x="424" y="156" type="line"/>
      <point x="444" y="143"/>
      <point x="488" y="117"/>
      <point x="547" y="97"/>
      <point x="631" y="83"/>
      <point x="690" y="83" type="qcurve" smooth="yes"/>
      <point x="801" y="83"/>
      <point x="969" y="154"/>
      <point x="1080" y="272"/>
      <point x="1137" y="422"/>
      <point x="1137" y="501" type="qcurve" smooth="yes"/>
      <point x="1137" y="652"/>
      <point x="1045" y="764" type="qcurve"/>
    </contour>
    <contour>
      <point x="955" y="850" type="line"/>
      <point x="927" y="863"/>
      <point x="877" y="889"/>
      <point x="819" y="909"/>
      <point x="744" y="921"/>
      <point x="690" y="921" type="qcurve" smooth="yes"/>
      <point x="580" y="921"/>
      <point x="413" y="847"/>
      <point x="299" y="729"/>
      <point x="244" y="580"/>
      <point x="244" y="501" type="qcurve" smooth="yes"/>
      <point x="244" y="456"/>
      <point x="279" y="308"/>
      <point x="332" y="242" type="qcurve"/>
    </contour>
  </outline>
</glyph>
<glyph name="ugrave" format="2">
  <advance width="1381"/>
  <unicode hex="00F9"/>
  <outline>
    <contour>
      <point x="378" y="380" type="line" smooth="yes"/>
      <point x="378" y="356"/>
      <point x="384" y="257"/>
      <point x="428" y="158"/>
      <point x="520" y="83"/>
      <point x="608" y="83" type="qcurve" smooth="yes"/>
      <point x="705" y="83"/>
      <point x="881" y="180"/>
      <point x="978" y="283" type="qcurve"/>
      <point x="978" y="881" type="line"/>
      <point x="780" y="881" type="line"/>
      <point x="780" y="990" type="line"/>
      <point x="1094" y="990" type="line"/>
      <point x="1094" y="108" type="line"/>
      <point x="1280" y="108" type="line"/>
      <point x="1280" y="0" type="line"/>
      <point x="978" y="0" type="line"/>
      <point x="978" y="127" type="line"/>
      <point x="953" y="106"/>
      <point x="883" y="51"/>
      <point x="795" y="2"/>
      <point x="683" y="-33"/>
      <point x="617" y="-33" type="qcurve" smooth="yes"/>
      <point x="509" y="-33"/>
      <point x="371" y="46"/>
      <point x="292" y="165"/>
      <point x="262" y="310"/>
      <point x="262" y="380" type="qcurve" smooth="yes"/>
      <point x="262" y="881" type="line"/>
      <point x="74" y="881" type="line"/>
      <point x="74" y="990" type="line"/>
      <point x="378" y="990" type="line"/>
    </contour>
    <contour>
      <point x="861" y="1158" type="line"/>
      <point x="741" y="1158" type="line"/>
      <point x="437" y="1423" type="line"/>
      <point x="683" y="1423" type="line"/>
    </contour>
  </outline>
</glyph>
<glyph name="ucircumflex" format="2">
  <advance width="1381"/>
  <unicode hex="00FB"/>
  <outline>
    <contour>
      <point x="378" y="380" type="line" smooth="yes"/>
      <point x="378" y="356"/>
      <point x="384" y="257"/>
      <point x="428" y="158"/>
      <point x="520" y="83"/>
      <point x="608" y="83" type="qcurve" smooth="yes"/>
      <point x="705" y="83"/>
      <point x="881" y="180"/>
      <point x="978" y="283" type="qcurve"/>
      <point x="978" y="881" type="line"/>
      <point x="780" y="881" type="line"/>
      <point x="780" y="990" type="line"/>
      <point x="1094" y="990" type="line"/>
      <point x="1094" y="108" type="line"/>
      <point x="1280" y="108" type="line"/>
      <point x="1280" y="0" type="line"/>
      <point x="978" y="0" type="line"/>
      <point x="978" y="127" type="line"/>
      <point x="953" y="106"/>
      <point x="883" y="51"/>
      <point x="795" y="2"/>
      <point x="683" y="-33"/>
      <point x="617" y="-33" type="qcurve" smooth="yes"/>
      <point x="509" y="-33"/>
      <point x="371" y="46"/>
      <point x="292" y="165"/>
      <point x="262" y="310"/>
      <point x="262" y="380" type="qcurve" smooth="yes"/>
      <point x="262" y="881" type="line"/>
      <point x="74" y="881" type="line"/>
      <point x="74" y="990" type="line"/>
      <point x="378" y="990" type="line"/>
    </contour>
    <contour>
      <point x="986" y="1213" type="line"/>
      <point x="912" y="1155" type="line"/>
      <point x="679" y="1307" type="line"/>
      <point x="470" y="1155" type="line"/>
      <point x="393" y="1211" type="line"/>
      <point x="596" y="1430" type="line"/>
      <point x="773" y="1430" type="line"/>
    </contour>
  </outline>
</glyph>
<glyph name="udieresis" format="2">
  <advance width="600"/>
  <unicode hex="00FC"/>
  <outline>
    <contour>
      <point x="164" y="165" type="line" smooth="yes"/>
      <point x="164" y="155"/>
      <point x="167" y="112"/>
      <point x="186" y="69"/>
      <point x="226" y="36"/>
      <point x="264" y="36" type="qcurve" smooth="yes"/>
      <point x="306" y="36"/>
      <point x="383" y="78"/>
      <point x="425" y="123" type="qcurve"/>
      <point x="425" y="383" type="line"/>
      <point x="339" y="383" type="line"/>
      <point x="339" y="430" type="line"/>
      <point x="475" y="430" type="line"/>
      <point x="475" y="47" type="line"/>
      <point x="556" y="47" type="line"/>
      <point x="556" y="0" type="line"/>
      <point x="425" y="0" type="line"/>
      <point x="425" y="55" type="line"/>
      <point x="414" y="46"/>
      <point x="384" y="22"/>
      <point x="345" y="1"/>
      <point x="297" y="-14"/>
      <point x="268" y="-14" type="qcurve" smooth="yes"/>
      <point x="221" y="-14"/>
      <point x="161" y="20"/>
      <point x="127" y="72"/>
      <point x="114" y="135"/>
      <point x="114" y="165" type="qcurve" smooth="yes"/>
      <point x="114" y="383" type="line"/>
      <point x="32" y="383" type="line"/>
      <point x="32" y="430" type="line"/>
      <point x="164" y="430" type="line"/>
    </contour>
    <contour>
      <point x="271" y="621" type="line"/>
      <point x="271" y="513" type="line"/>
      <point x="199" y="513" type="line"/>
      <point x="199" y="621" type="line"/>
    </contour>
    <contour>
      <point x="401" y="621" type="line"/>
      <point x="401" y="513" type="line"/>
      <point x="329" y="513" type="line"/>
      <point x="329" y="621" type="line"/>
    </contour>
  </outline>
</glyph>
<glyph name="thorn" format="2">
  <advance width="1381"/>
  <unicode hex="00FE"/>
  <outline>
    <contour>
      <point x="352" y="826" type="line"/>
      <point x="366" y="847"/>
      <point x="424" y="912"/>
      <point x="520" y="973"/>
      <point x="656" y="1019"/>
      <point x="749" y="1019" type="qcurve" smooth="yes"/>
      <point x="865" y="1019"/>
      <point x="1054" y="932"/>
      <point x="1188" y="789"/>
      <point x="1261" y="604"/>
      <point x="1261" y="505" type="qcurve" smooth="yes"/>
      <point x="1261" y="387"/>
      <point x="1171" y="196"/>
      <point x="1028" y="60"/>
      <point x="845" y="-16"/>
      <point x="753" y="-16" type="qcurve" smooth="yes"/>
      <point x="738" y="-16"/>
      <point x="656" y="-9"/>
      <point x="541" y="28"/>
      <point x="413" y="108"/>
      <point x="352" y="182" type="qcurve"/>
      <point x="347" y="182" type="line"/>
      <point x="347" y="-253" type="line"/>
      <point x="690" y="-253" type="line"/>
      <point x="690" y="-362" type="line"/>
      <point x="44" y="-362" type="line"/>
      <point x="44" y="-253" type="line"/>
      <point x="233" y="-253" type="line"/>
      <point x="233" y="1329" type="line"/>
      <point x="28" y="1320" type="line"/>
      <point x="28" y="1427" type="line"/>
      <point x="347" y="1448" type="line"/>
      <point x="347" y="826" type="line"/>
    </contour>
    <contour>
      <point x="338" y="511" type="qcurve" smooth="yes"/>
      <point x="338" y="410"/>
      <point x="417" y="255"/>
      <point x="536" y="152"/>
      <point x="681" y="99"/>
      <point x="749" y="99" type="qcurve" smooth="yes"/>
      <point x="826" y="99"/>
      <point x="967" y="161"/>
      <point x="1072" y="270"/>
      <point x="1137" y="419"/>
      <point x="1137" y="507" type="qcurve" smooth="yes"/>
      <point x="1137" y="578"/>
      <point x="1089" y="720"/>
      <point x="992" y="833"/>
      <point x="847" y="905"/>
      <point x="751" y="905" type="qcurve" smooth="yes"/>
      <point x="661" y="905"/>
      <point x="509" y="841"/>
      <point x="400" y="734"/>
      <point x="338" y="589"/>
    </contour>
  </outline>
</glyph>
<glyph name="OE" format="2">
  <advance width="1381"/>
  <unicode hex="0152"/>
  <outline>
    <contour>
      <point x="1236" y="881" type="line"/>
      <point x="1135" y="881" type="line"/>
      <point x="1114" y="1188" type="line"/>
      <point x="810" y="1188" type="line"/>
      <point x="810" y="741" type="line"/>
      <point x="960" y="741" type="line"/>
      <point x="960" y="909" type="line"/>
      <point x="1066" y="909" type="line"/>
      <point x="1066" y="465" type="line"/>
      <point x="960" y="465" type="line"/>
      <point x="960" y="633" type="line"/>
      <point x="810" y="633" type="line"/>
      <point x="810" y="108" type="line"/>
      <point x="1146" y="108" type="line"/>
      <point x="1160" y="426" type="line"/>
      <point x="1266" y="426" type="line"/>
      <point x="1266" y="0" type="line"/>
      <point x="558" y="0" type="line" smooth="yes"/>
      <point x="422" y="0"/>
      <point x="226" y="125"/>
      <point x="99" y="314"/>
      <point x="37" y="536"/>
      <point x="37" y="637" type="qcurve" smooth="yes"/>
      <point x="37" y="776"/>
      <point x="125" y="1015"/>
      <point x="283" y="1195"/>
      <point x="507" y="1296"/>
      <point x="642" y="1296" type="qcurve" smooth="yes"/>
      <point x="1236" y="1296" type="line"/>
    </contour>
    <contour>
      <point x="635" y="1188" type="line" smooth="yes"/>
      <point x="520" y="1188"/>
      <point x="343" y="1100"/>
      <point x="224" y="951"/>
      <point x="161" y="753"/>
      <point x="161" y="644" type="qcurve" smooth="yes"/>
      <point x="161" y="560"/>
      <point x="209" y="371"/>
      <point x="314" y="211"/>
      <point x="477" y="108"/>
      <point x="593" y="108" type="qcurve" smooth="yes"/>
      <point x="695" y="108" type="line"/>
      <point x="695" y="1188" type="line"/>
    </contour>
  </outline>
</glyph>
<glyph name="oe" format="2">
  <advance width="1381"/>
  <unicode hex="0153"/>
  <outline>
    <contour>
      <point x="736" y="472" type="line"/>
      <point x="734" y="352"/>
      <point x="787" y="198"/>
      <point x="870" y="110"/>
      <point x="962" y="76"/>
      <point x="1001" y="76" type="qcurve" smooth="yes"/>
      <point x="1075" y="76"/>
      <point x="1220" y="112"/>
      <point x="1266" y="127" type="qcurve"/>
      <point x="1307" y="28" type="line"/>
      <point x="1184" y="-13"/>
      <point x="1039" y="-35"/>
      <point x="1006" y="-35" type="qcurve" smooth="yes"/>
      <point x="986" y="-35"/>
      <point x="907" y="-22"/>
      <point x="817" y="18"/>
      <point x="725" y="103"/>
      <point x="690" y="180" type="qcurve"/>
      <point x="681" y="158"/>
      <point x="642" y="88"/>
      <point x="569" y="16"/>
      <point x="459" y="-35"/>
      <point x="375" y="-35" type="qcurve" smooth="yes"/>
      <point x="285" y="-35"/>
      <point x="165" y="28"/>
      <point x="88" y="123"/>
      <point x="46" y="237"/>
      <point x="26" y="345"/>
      <point x="22" y="433"/>
      <point x="22" y="453" type="qcurve" smooth="yes"/>
      <point x="22" y="564"/>
      <point x="64" y="773"/>
      <point x="154" y="940"/>
      <point x="299" y="1039"/>
      <point x="405" y="1039" type="qcurve" smooth="yes"/>
      <point x="474" y="1039"/>
      <point x="575" y="990"/>
      <point x="644" y="927"/>
      <point x="683" y="863"/>
      <point x="690" y="847" type="qcurve"/>
      <point x="744" y="944"/>
      <point x="900" y="1036"/>
      <point x="976" y="1036" type="qcurve" smooth="yes"/>
      <point x="1066" y="1036"/>
      <point x="1188" y="942"/>
      <point x="1263" y="801"/>
      <point x="1298" y="642"/>
      <point x="1298" y="578" type="qcurve" smooth="yes"/>
      <point x="1298" y="550"/>
      <point x="1296" y="488"/>
      <point x="1294" y="472" type="qcurve"/>
    </contour>
    <contour>
      <point x="622" y="486" type="qcurve" smooth="yes"/>
      <point x="622" y="631"/>
      <point x="584" y="806"/>
      <point x="523" y="900"/>
      <point x="446" y="927"/>
      <point x="405" y="927" type="qcurve" smooth="yes"/>
      <point x="334" y="927"/>
      <point x="237" y="843"/>
      <point x="175" y="707"/>
      <point x="147" y="541"/>
      <point x="147" y="461" type="qcurve" smooth="yes"/>
      <point x="147" y="396"/>
      <point x="169" y="260"/>
      <point x="219" y="147"/>
      <point x="306" y="76"/>
      <point x="373" y="76" type="qcurve" smooth="yes"/>
      <point x="435" y="76"/>
      <point x="520" y="125"/>
      <point x="575" y="202"/>
      <point x="606" y="297"/>
      <point x="619" y="389"/>
      <point x="622" y="465"/>
    </contour>
    <contour>
      <point x="1184" y="573" type="line"/>
      <point x="1184" y="637"/>
      <point x="1160" y="764"/>
      <point x="1109" y="865"/>
      <point x="1032" y="925"/>
      <point x="976" y="925" type="qcurve" smooth="yes"/>
      <point x="958" y="925"/>
      <point x="881" y="903"/>
      <point x="801" y="831"/>
      <point x="738" y="690"/>
      <point x="736" y="573" type="qcurve"/>
    </contour>
  </outline>
</glyph>
<glyph name="Zcaron" format="2">
  <advance width="1381"/>
  <unicode hex="017D"/>
  <outline>
    <contour>
      <point x="1135" y="1202" type="line"/>
      <point x="332" y="108" type="line"/>
      <point x="1080" y="108" type="line"/>
      <point x="1080" y="481" type="line"/>
      <point x="1188" y="481" type="line"/>
      <point x="1188" y="0" type="line"/>
      <point x="193" y="0" type="line"/>
      <point x="193" y="108" type="line"/>
      <point x="988" y="1188" type="line"/>
      <point x="318" y="1188" type="line"/>
      <point x="318" y="852" type="line"/>
      <point x="209" y="852" type="line"/>
      <point x="209" y="1296" type="line"/>
      <point x="1135" y="1296" type="line"/>
    </contour>
    <contour>
      <point x="393" y="1694" type="line"/>
      <point x="468" y="1749" type="line"/>
      <point x="700" y="1599" type="line"/>
      <point x="912" y="1752" type="line"/>
      <point x="986" y="1694" type="line"/>
      <point x="782" y="1478" type="line"/>
      <point x="608" y="1478" type="line"/>
    </contour>
  </outline>
</glyph>
<glyph name="zcaron" format="2">
  <advance width="1381"/>
  <unicode hex="017E"/>
  <outline>
    <contour>
      <point x="1142" y="891" type="line"/>
      <point x="396" y="108" type="line"/>
      <point x="1034" y="108" type="line"/>
      <point x="1034" y="320" type="line"/>
      <point x="1142" y="320" type="line"/>
      <point x="1142" y="0" type="line"/>
      <point x="239" y="0" type="line"/>
      <point x="239" y="108" type="line"/>
      <point x="978" y="881" type="line"/>
      <point x="371" y="881" type="line"/>
      <point x="371" y="677" type="line"/>
      <point x="262" y="677" type="line"/>
      <point x="262" y="990" type="line"/>
      <point x="1142" y="990" type="line"/>
    </contour>
    <contour>
      <point x="393" y="1388" type="line"/>
      <point x="468" y="1443" type="line"/>
      <point x="700" y="1294" type="line"/>
      <point x="912" y="1445" type="line"/>
      <point x="986" y="1388" type="line"/>
      <point x="782" y="1171" type="line"/>
      <point x="608" y="1171" type="line"/>
    </contour>
  </outline>
</glyph>
<glyph name="florin" format="2">
  <advance width="1381"/>
  <unicode hex="0192"/>
  <outline>
    <contour>
      <point x="1160" y="1402" type="line"/>
      <point x="1131" y="1408"/>
      <point x="1050" y="1421"/>
      <point x="995" y="1421" type="qcurve" smooth="yes"/>
      <point x="863" y="1421"/>
      <point x="723" y="1353"/>
      <point x="656" y="1257"/>
      <point x="644" y="1149"/>
      <point x="644" y="1105" type="qcurve" smooth="yes"/>
      <point x="644" y="978" type="line"/>
      <point x="1050" y="978" type="line"/>
      <point x="1050" y="881" type="line"/>
      <point x="644" y="881" type="line"/>
      <point x="644" y="117" type="line" smooth="yes"/>
      <point x="644" y="37"/>
      <point x="608" y="-81"/>
      <point x="543" y="-129" type="qcurve" smooth="yes"/>
      <point x="468" y="-187"/>
      <point x="270" y="-228"/>
      <point x="171" y="-228" type="qcurve" smooth="yes"/>
      <point x="141" y="-228"/>
      <point x="81" y="-224"/>
      <point x="55" y="-219" type="qcurve"/>
      <point x="64" y="-103" type="line"/>
      <point x="99" y="-108"/>
      <point x="182" y="-117"/>
      <point x="221" y="-117" type="qcurve" smooth="yes"/>
      <point x="297" y="-117"/>
      <point x="459" y="-76"/>
      <point x="495" y="-33" type="qcurve"/>
      <point x="520" y="0"/>
      <point x="529" y="88"/>
      <point x="529" y="134" type="qcurve" smooth="yes"/>
      <point x="529" y="881" type="line"/>
      <point x="283" y="881" type="line"/>
      <point x="283" y="978" type="line"/>
      <point x="529" y="978" type="line"/>
      <point x="529" y="1116" type="line" smooth="yes"/>
      <point x="529" y="1167"/>
      <point x="553" y="1309"/>
      <point x="652" y="1439"/>
      <point x="850" y="1529"/>
      <point x="1024" y="1529" type="qcurve" smooth="yes"/>
      <point x="1075" y="1529"/>
      <point x="1149" y="1524"/>
      <point x="1171" y="1520" type="qcurve"/>
    </contour>
  </outline>
</glyph>
<glyph name="circumflex" format="2">
  <advance width="1381"/>
  <unicode hex="02C6"/>
  <outline>
    <contour>
      <point x="986" y="1213" type="line"/>
      <point x="912" y="1155" type="line"/>
      <point x="679" y="1307" type="line"/>
      <point x="470" y="1155" type="line"/>
      <point x="393" y="1211" type="line"/>
      <point x="596" y="1430" type="line"/>
      <point x="773" y="1430" type="line"/>
    </contour>
  </outline>
</glyph>
<glyph name="uni1200" format="2">
  <advance width="1047"/>
  <unicode hex="1200"/>
  <outline>
    <contour>
      <point x="101" y="505" type="line" smooth="yes"/>
      <point x="101" y="331"/>
      <point x="145" y="133"/>
      <point x="245" y="28"/>
      <point x="408" y="-11"/>
      <point x="526" y="-26" type="qcurve"/>
      <point x="645" y="-11"/>
      <point x="806" y="30"/>
      <point x="904" y="135"/>
      <point x="945" y="333"/>
      <point x="945" y="505" type="qcurve" smooth="yes"/>
      <point x="945" y="1152" type="line" smooth="yes"/>
      <point x="945" y="1225"/>
      <point x="879" y="1302"/>
      <point x="821" y="1302" type="qcurve" smooth="yes"/>
      <point x="767" y="1302"/>
      <point x="700" y="1225"/>
      <point x="700" y="1152" type="qcurve" smooth="yes"/>
      <point x="700" y="288" type="line" smooth="yes"/>
      <point x="700" y="212"/>
      <point x="666" y="106"/>
      <point x="614" y="37"/>
      <point x="553" y="8"/>
      <point x="526" y="8" type="qcurve" smooth="yes"/>
      <point x="443" y="8"/>
      <point x="347" y="133"/>
      <point x="347" y="288" type="qcurve" smooth="yes"/>
      <point x="347" y="1152" type="line" smooth="yes"/>
      <point x="347" y="1302"/>
      <point x="226" y="1302" type="qcurve" smooth="yes"/>
      <point x="170" y="1302"/>
      <point x="101" y="1225"/>
      <point x="101" y="1152" type="qcurve" smooth="yes"/>
    </contour>
  </outline>
</glyph>
<glyph name="uni1201" format="2">
  <advance width="1296"/>
  <unicode hex="1201"/>
  <outline>
    <contour>
      <point x="945" y="771" type="line"/>
      <point x="945" y="1113" type="line" smooth="yes"/>
      <point x="945" y="1186"/>
      <point x="879" y="1263"/>
      <point x="821" y="1263" type="qcurve" smooth="yes"/>
      <point x="767" y="1263"/>
      <point x="700" y="1186"/>
      <point x="700" y="1113" type="qcurve" smooth="yes"/>
      <point x="700" y="286" type="line" smooth="yes"/>
      <point x="700" y="208"/>
      <point x="666" y="104"/>
      <point x="614" y="39"/>
      <point x="553" y="11"/>
      <point x="526" y="11" type="qcurve" smooth="yes"/>
      <point x="443" y="11"/>
      <point x="347" y="131"/>
      <point x="347" y="286" type="qcurve" smooth="yes"/>
      <point x="347" y="1113" type="line" smooth="yes"/>
      <point x="347" y="1263"/>
      <point x="226" y="1263" type="qcurve" smooth="yes"/>
      <point x="170" y="1263"/>
      <point x="101" y="1186"/>
      <point x="101" y="1113" type="qcurve" smooth="yes"/>
      <point x="101" y="503" type="line" smooth="yes"/>
      <point x="101" y="331"/>
      <point x="145" y="133"/>
      <point x="245" y="26"/>
      <point x="408" y="-13"/>
      <point x="526" y="-28" type="qcurve"/>
      <point x="645" y="-13"/>
      <point x="806" y="28"/>
      <point x="904" y="133"/>
      <point x="945" y="331"/>
      <point x="945" y="503" type="qcurve" smooth="yes"/>
      <point x="945" y="739" type="line"/>
      <point x="1043" y="739" type="line"/>
      <point x="1043" y="645" type="line" smooth="yes"/>
      <point x="1043" y="586"/>
      <point x="1107" y="507"/>
      <point x="1167" y="507" type="qcurve" smooth="yes"/>
      <point x="1221" y="507"/>
      <point x="1288" y="584"/>
      <point x="1288" y="645" type="qcurve" smooth="yes"/>
      <point x="1288" y="737" type="line" smooth="yes"/>
      <point x="1288" y="759"/>
      <point x="1270" y="771"/>
      <point x="1259" y="771" type="qcurve" smooth="yes"/>
    </contour>
  </outline>
</glyph>
<glyph name="uni1202" format="2">
  <advance width="1176"/>
  <unicode hex="1202"/>
  <outline>
    <contour>
      <point x="692" y="-32" type="qcurve" smooth="yes"/>
      <point x="911" y="-32" type="line"/>
      <point x="911" y="-139" type="line"/>
      <point x="1064" y="-139" type="line" smooth="yes"/>
      <point x="1100" y="-139"/>
      <point x="1169" y="-73"/>
      <point x="1169" y="-15" type="qcurve" smooth="yes"/>
      <point x="1169" y="41"/>
      <point x="1098" y="106"/>
      <point x="1064" y="106" type="qcurve" smooth="yes"/>
      <point x="911" y="106" type="line"/>
      <point x="911" y="0" type="line"/>
      <point x="868" y="0" type="line" smooth="yes"/>
      <point x="837" y="0"/>
      <point x="814" y="39"/>
      <point x="814" y="101" type="qcurve" smooth="yes"/>
      <point x="814" y="1151" type="line" smooth="yes"/>
      <point x="814" y="1239"/>
      <point x="749" y="1304"/>
      <point x="692" y="1304" type="qcurve" smooth="yes"/>
      <point x="634" y="1304"/>
      <point x="570" y="1239"/>
      <point x="570" y="1151" type="qcurve" smooth="yes"/>
      <point x="570" y="700" type="line"/>
      <point x="539" y="679"/>
      <point x="455" y="641"/>
      <point x="421" y="641" type="qcurve" smooth="yes"/>
      <point x="372" y="641"/>
      <point x="305" y="720"/>
      <point x="305" y="798" type="qcurve" smooth="yes"/>
      <point x="305" y="1169" type="line" smooth="yes"/>
      <point x="305" y="1247"/>
      <point x="245" y="1304"/>
      <point x="192" y="1304" type="qcurve" smooth="yes"/>
      <point x="135" y="1304"/>
      <point x="67" y="1241"/>
      <point x="67" y="1169" type="qcurve" smooth="yes"/>
      <point x="67" y="862" type="line" smooth="yes"/>
      <point x="67" y="774"/>
      <point x="118" y="666"/>
      <point x="212" y="610"/>
      <point x="341" y="592"/>
      <point x="419" y="592" type="qcurve" smooth="yes"/>
      <point x="453" y="592"/>
      <point x="541" y="623"/>
      <point x="570" y="645" type="qcurve"/>
      <point x="570" y="78" type="line" smooth="yes"/>
      <point x="570" y="24"/>
      <point x="643" y="-32"/>
    </contour>
  </outline>
</glyph>
<glyph name="uni1203" format="2">
  <advance width="929"/>
  <unicode hex="1203"/>
  <outline>
    <contour>
      <point x="684" y="-30" type="qcurve" smooth="yes"/>
      <point x="802" y="-30"/>
      <point x="802" y="122" type="qcurve" smooth="yes"/>
      <point x="802" y="1160" type="line" smooth="yes"/>
      <point x="802" y="1206"/>
      <point x="786" y="1261"/>
      <point x="754" y="1292"/>
      <point x="709" y="1302"/>
      <point x="681" y="1302" type="qcurve" smooth="yes"/>
      <point x="621" y="1302"/>
      <point x="559" y="1251"/>
      <point x="559" y="1160" type="qcurve" smooth="yes"/>
      <point x="559" y="704" type="line"/>
      <point x="527" y="684"/>
      <point x="443" y="645"/>
      <point x="410" y="645" type="qcurve" smooth="yes"/>
      <point x="361" y="645"/>
      <point x="294" y="724"/>
      <point x="294" y="800" type="qcurve" smooth="yes"/>
      <point x="294" y="1160" type="line" smooth="yes"/>
      <point x="294" y="1251"/>
      <point x="237" y="1302"/>
      <point x="185" y="1302" type="qcurve" smooth="yes"/>
      <point x="155" y="1302"/>
      <point x="108" y="1292"/>
      <point x="75" y="1261"/>
      <point x="55" y="1206"/>
      <point x="55" y="1160" type="qcurve" smooth="yes"/>
      <point x="55" y="866" type="line" smooth="yes"/>
      <point x="55" y="780"/>
      <point x="114" y="675"/>
      <point x="213" y="615"/>
      <point x="339" y="596"/>
      <point x="408" y="596" type="qcurve" smooth="yes"/>
      <point x="441" y="596"/>
      <point x="529" y="627"/>
      <point x="559" y="649" type="qcurve"/>
      <point x="559" y="122" type="line" smooth="yes"/>
      <point x="559" y="34"/>
      <point x="623" y="-30"/>
    </contour>
  </outline>
</glyph>
<glyph name="uni1204" format="2">
  <advance width="1160"/>
  <unicode hex="1204"/>
  <outline>
    <contour>
      <point x="555" y="141" type="line" smooth="yes"/>
      <point x="555" y="45"/>
      <point x="621" y="-32"/>
      <point x="722" y="-32" type="qcurve" smooth="yes"/>
      <point x="881" y="-32" type="line" smooth="yes"/>
      <point x="1023" y="-32"/>
      <point x="1149" y="100"/>
      <point x="1149" y="230" type="qcurve" smooth="yes"/>
      <point x="1149" y="300"/>
      <point x="1102" y="384"/>
      <point x="1018" y="430"/>
      <point x="904" y="445"/>
      <point x="839" y="445" type="qcurve"/>
      <point x="839" y="414" type="line"/>
      <point x="881" y="414"/>
      <point x="931" y="396"/>
      <point x="961" y="349"/>
      <point x="971" y="271"/>
      <point x="971" y="212" type="qcurve" smooth="yes"/>
      <point x="971" y="116"/>
      <point x="937" y="-10"/>
      <point x="881" y="-10" type="qcurve" smooth="yes"/>
      <point x="835" y="-10"/>
      <point x="798" y="94"/>
      <point x="798" y="194" type="qcurve" smooth="yes"/>
      <point x="798" y="1158" type="line" smooth="yes"/>
      <point x="798" y="1244"/>
      <point x="731" y="1302"/>
      <point x="675" y="1302" type="qcurve" smooth="yes"/>
      <point x="615" y="1302"/>
      <point x="555" y="1247"/>
      <point x="555" y="1158" type="qcurve" smooth="yes"/>
      <point x="555" y="700" type="line"/>
      <point x="524" y="679"/>
      <point x="439" y="641"/>
      <point x="406" y="641" type="qcurve" smooth="yes"/>
      <point x="357" y="641"/>
      <point x="290" y="720"/>
      <point x="290" y="798" type="qcurve" smooth="yes"/>
      <point x="290" y="1160" type="line" smooth="yes"/>
      <point x="290" y="1247"/>
      <point x="235" y="1302"/>
      <point x="182" y="1302" type="qcurve" smooth="yes"/>
      <point x="125" y="1302"/>
      <point x="53" y="1233"/>
      <point x="53" y="1160" type="qcurve" smooth="yes"/>
      <point x="53" y="862" type="line" smooth="yes"/>
      <point x="53" y="772"/>
      <point x="104" y="666"/>
      <point x="196" y="610"/>
      <point x="325" y="592"/>
      <point x="404" y="592" type="qcurve" smooth="yes"/>
      <point x="437" y="592"/>
      <point x="526" y="623"/>
      <point x="555" y="645" type="qcurve"/>
    </contour>
  </outline>
</glyph>
<glyph name="uni1205" format="2">
  <advance width="529"/>
  <unicode hex="1205"/>
  <outline>
    <contour>
      <point x="177" y="591" type="line" smooth="yes"/>
      <point x="177" y="665"/>
      <point x="119" y="665" type="qcurve" smooth="yes"/>
      <point x="91" y="665"/>
      <point x="52" y="629"/>
      <point x="52" y="591" type="qcurve" smooth="yes"/>
      <point x="52" y="371" type="line" smooth="yes"/>
      <point x="52" y="351"/>
      <point x="72" y="351" type="qcurve" smooth="yes"/>
      <point x="85" y="351"/>
      <point x="119" y="370"/>
      <point x="127" y="381" type="qcurve"/>
      <point x="127" y="358"/>
      <point x="104" y="323"/>
      <point x="75" y="289"/>
      <point x="52" y="254"/>
      <point x="52" y="232" type="qcurve" smooth="yes"/>
      <point x="52" y="189" type="line" smooth="yes"/>
      <point x="52" y="139"/>
      <point x="74" y="64"/>
      <point x="122" y="13"/>
      <point x="198" y="-13"/>
      <point x="253" y="-13" type="qcurve" smooth="yes"/>
      <point x="331" y="-13"/>
      <point x="421" y="7"/>
      <point x="466" y="71"/>
      <point x="477" y="192"/>
      <point x="477" y="293" type="qcurve" smooth="yes"/>
      <point x="477" y="593" type="line" smooth="yes"/>
      <point x="477" y="631"/>
      <point x="449" y="665"/>
      <point x="420" y="665" type="qcurve" smooth="yes"/>
      <point x="391" y="665"/>
      <point x="352" y="631"/>
      <point x="352" y="593" type="qcurve" smooth="yes"/>
      <point x="352" y="147" type="line" smooth="yes"/>
      <point x="352" y="108"/>
      <point x="334" y="56"/>
      <point x="308" y="23"/>
      <point x="278" y="9"/>
      <point x="266" y="9" type="qcurve" smooth="yes"/>
      <point x="219" y="9"/>
      <point x="180" y="58"/>
      <point x="180" y="127" type="qcurve" smooth="yes"/>
      <point x="180" y="180"/>
      <point x="190" y="251"/>
      <point x="204" y="299"/>
      <point x="222" y="329"/>
      <point x="236" y="353"/>
      <point x="246" y="377"/>
      <point x="246" y="395" type="qcurve" smooth="yes"/>
      <point x="246" y="408"/>
      <point x="226" y="425"/>
      <point x="217" y="425" type="qcurve" smooth="yes"/>
      <point x="205" y="425"/>
      <point x="186" y="418"/>
      <point x="177" y="408" type="qcurve"/>
    </contour>
  </outline>
</glyph>
<glyph name="uni1206" format="2">
  <advance width="1339"/>
  <unicode hex="1206"/>
  <outline>
    <contour>
      <point x="935" y="1270" type="line"/>
      <point x="971" y="1270"/>
      <point x="1031" y="1264"/>
      <point x="1074" y="1237"/>
      <point x="1098" y="1180"/>
      <point x="1098" y="1131" type="qcurve" smooth="yes"/>
      <point x="1098" y="976" type="line" smooth="yes"/>
      <point x="1098" y="928"/>
      <point x="1070" y="868"/>
      <point x="1027" y="835"/>
      <point x="967" y="825"/>
      <point x="935" y="825" type="qcurve"/>
    </contour>
    <contour>
      <point x="347" y="1160" type="line" smooth="yes"/>
      <point x="347" y="1235"/>
      <point x="288" y="1302"/>
      <point x="230" y="1302" type="qcurve" smooth="yes"/>
      <point x="174" y="1302"/>
      <point x="101" y="1235"/>
      <point x="101" y="1160" type="qcurve" smooth="yes"/>
      <point x="101" y="406" type="line" smooth="yes"/>
      <point x="101" y="273"/>
      <point x="129" y="106"/>
      <point x="204" y="11"/>
      <point x="339" y="-22"/>
      <point x="447" y="-22" type="qcurve" smooth="yes"/>
      <point x="600" y="-22"/>
      <point x="776" y="65"/>
      <point x="825" y="123" type="qcurve"/>
      <point x="874" y="185"/>
      <point x="935" y="398"/>
      <point x="935" y="576" type="qcurve" smooth="yes"/>
      <point x="935" y="800" type="line"/>
      <point x="1039" y="800"/>
      <point x="1190" y="812"/>
      <point x="1286" y="866"/>
      <point x="1331" y="986"/>
      <point x="1331" y="1094" type="qcurve" smooth="yes"/>
      <point x="1331" y="1210"/>
      <point x="1231" y="1302"/>
      <point x="1147" y="1302" type="qcurve" smooth="yes"/>
      <point x="812" y="1302" type="line" smooth="yes"/>
      <point x="772" y="1302"/>
      <point x="726" y="1282"/>
      <point x="702" y="1247"/>
      <point x="694" y="1194"/>
      <point x="694" y="1160" type="qcurve" smooth="yes"/>
      <point x="694" y="290" type="line" smooth="yes"/>
      <point x="694" y="213"/>
      <point x="647" y="108"/>
      <point x="588" y="39"/>
      <point x="533" y="8"/>
      <point x="526" y="8" type="qcurve" smooth="yes"/>
      <point x="468" y="8"/>
      <point x="400" y="47"/>
      <point x="361" y="147"/>
      <point x="347" y="312"/>
      <point x="347" y="439" type="qcurve" smooth="yes"/>
    </contour>
  </outline>
</glyph>
<glyph name="uni1209" format="2">
  <advance width="653"/>
  <unicode hex="1209"/>
  <outline>
    <contour>
      <point x="52" y="588" type="qcurve" smooth="yes"/>
      <point x="52" y="61" type="line" smooth="yes"/>
      <point x="52" y="16"/>
      <point x="84" y="-16"/>
      <point x="114" y="-16" type="qcurve" smooth="yes"/>
      <point x="147" y="-16"/>
      <point x="177" y="18"/>
      <point x="177" y="63" type="qcurve" smooth="yes"/>
      <point x="177" y="346" type="line"/>
      <point x="180" y="355"/>
      <point x="199" y="388"/>
      <point x="226" y="420"/>
      <point x="259" y="444"/>
      <point x="277" y="444" type="qcurve" smooth="yes"/>
      <point x="316" y="444"/>
      <point x="352" y="385"/>
      <point x="352" y="316" type="qcurve" smooth="yes"/>
      <point x="352" y="64" type="line" smooth="yes"/>
      <point x="352" y="19"/>
      <point x="383" y="-14"/>
      <point x="415" y="-14" type="qcurve" smooth="yes"/>
      <point x="446" y="-14"/>
      <point x="477" y="18"/>
      <point x="477" y="63" type="qcurve" smooth="yes"/>
      <point x="477" y="286" type="line"/>
      <point x="521" y="286" type="line"/>
      <point x="521" y="237" type="line" smooth="yes"/>
      <point x="521" y="213"/>
      <point x="554" y="177"/>
      <point x="584" y="177" type="qcurve" smooth="yes"/>
      <point x="612" y="177"/>
      <point x="646" y="212"/>
      <point x="646" y="236" type="qcurve" smooth="yes"/>
      <point x="646" y="286" type="line" smooth="yes"/>
      <point x="646" y="297"/>
      <point x="637" y="301"/>
      <point x="631" y="301" type="qcurve" smooth="yes"/>
      <point x="477" y="301" type="line"/>
      <point x="477" y="358"/>
      <point x="436" y="425"/>
      <point x="378" y="459"/>
      <point x="314" y="468"/>
      <point x="292" y="468" type="qcurve" smooth="yes"/>
      <point x="271" y="468"/>
      <point x="233" y="449"/>
      <point x="201" y="421"/>
      <point x="180" y="390"/>
      <point x="177" y="377" type="qcurve"/>
      <point x="177" y="588" type="line" smooth="yes"/>
      <point x="177" y="664"/>
      <point x="115" y="664" type="qcurve" smooth="yes"/>
      <point x="87" y="664"/>
      <point x="52" y="625"/>
    </contour>
  </outline>
</glyph>
<glyph name="uni120A" format="2">
  <advance width="680"/>
  <unicode hex="120A"/>
  <outline>
    <contour>
      <point x="526" y="-16" type="line"/>
      <point x="526" y="-70" type="line"/>
      <point x="619" y="-70" type="line" smooth="yes"/>
      <point x="637" y="-70"/>
      <point x="673" y="-37"/>
      <point x="673" y="-8" type="qcurve" smooth="yes"/>
      <point x="673" y="22"/>
      <point x="636" y="54"/>
      <point x="619" y="54" type="qcurve" smooth="yes"/>
      <point x="526" y="54" type="line"/>
      <point x="526" y="0" type="line"/>
      <point x="505" y="0" type="line" smooth="yes"/>
      <point x="488" y="0"/>
      <point x="477" y="22"/>
      <point x="477" y="57" type="qcurve" smooth="yes"/>
      <point x="477" y="301" type="line" smooth="yes"/>
      <point x="477" y="358"/>
      <point x="436" y="425"/>
      <point x="378" y="459"/>
      <point x="314" y="468"/>
      <point x="292" y="468" type="qcurve" smooth="yes"/>
      <point x="271" y="468"/>
      <point x="233" y="449"/>
      <point x="201" y="421"/>
      <point x="180" y="390"/>
      <point x="177" y="377" type="qcurve"/>
      <point x="177" y="588" type="line" smooth="yes"/>
      <point x="177" y="664"/>
      <point x="115" y="664" type="qcurve" smooth="yes"/>
      <point x="87" y="664"/>
      <point x="52" y="625"/>
      <point x="52" y="588" type="qcurve" smooth="yes"/>
      <point x="52" y="61" type="line" smooth="yes"/>
      <point x="52" y="16"/>
      <point x="84" y="-16"/>
      <point x="114" y="-16" type="qcurve" smooth="yes"/>
      <point x="147" y="-16"/>
      <point x="177" y="18"/>
      <point x="177" y="63" type="qcurve" smooth="yes"/>
      <point x="177" y="346" type="line"/>
      <point x="180" y="355"/>
      <point x="199" y="388"/>
      <point x="226" y="420"/>
      <point x="259" y="444"/>
      <point x="277" y="444" type="qcurve" smooth="yes"/>
      <point x="316" y="444"/>
      <point x="352" y="385"/>
      <point x="352" y="316" type="qcurve" smooth="yes"/>
      <point x="352" y="41" type="line" smooth="yes"/>
      <point x="352" y="12"/>
      <point x="390" y="-16"/>
      <point x="415" y="-16" type="qcurve" smooth="yes"/>
    </contour>
  </outline>
</glyph>
<glyph name="uni120B" format="2">
  <advance width="529"/>
  <unicode hex="120B"/>
  <outline>
    <contour>
      <point x="52" y="588" type="qcurve" smooth="yes"/>
      <point x="52" y="215" type="line" smooth="yes"/>
      <point x="52" y="170"/>
      <point x="84" y="139"/>
      <point x="114" y="139" type="qcurve" smooth="yes"/>
      <point x="147" y="139"/>
      <point x="177" y="172"/>
      <point x="177" y="217" type="qcurve" smooth="yes"/>
      <point x="177" y="346" type="line"/>
      <point x="180" y="355"/>
      <point x="199" y="388"/>
      <point x="226" y="420"/>
      <point x="259" y="444"/>
      <point x="277" y="444" type="qcurve" smooth="yes"/>
      <point x="316" y="444"/>
      <point x="352" y="385"/>
      <point x="352" y="316" type="qcurve" smooth="yes"/>
      <point x="352" y="62" type="line" smooth="yes"/>
      <point x="352" y="17"/>
      <point x="383" y="-16"/>
      <point x="415" y="-16" type="qcurve" smooth="yes"/>
      <point x="446" y="-16"/>
      <point x="477" y="16"/>
      <point x="477" y="61" type="qcurve" smooth="yes"/>
      <point x="477" y="301" type="line" smooth="yes"/>
      <point x="477" y="358"/>
      <point x="436" y="425"/>
      <point x="378" y="459"/>
      <point x="314" y="468"/>
      <point x="292" y="468" type="qcurve" smooth="yes"/>
      <point x="271" y="468"/>
      <point x="233" y="449"/>
      <point x="201" y="421"/>
      <point x="180" y="390"/>
      <point x="177" y="377" type="qcurve"/>
      <point x="177" y="588" type="line" smooth="yes"/>
      <point x="177" y="664"/>
      <point x="115" y="664" type="qcurve" smooth="yes"/>
      <point x="87" y="664"/>
      <point x="52" y="625"/>
    </contour>
  </outline>
</glyph>
<glyph name="uni120C" format="2">
  <advance width="1300"/>
  <unicode hex="120C"/>
  <outline>
    <contour>
      <point x="935" y="194" type="qcurve" smooth="yes"/>
      <point x="935" y="590" type="line" smooth="yes"/>
      <point x="935" y="702"/>
      <point x="855" y="833"/>
      <point x="741" y="900"/>
      <point x="615" y="917"/>
      <point x="572" y="917" type="qcurve" smooth="yes"/>
      <point x="531" y="917"/>
      <point x="457" y="881"/>
      <point x="394" y="825"/>
      <point x="353" y="765"/>
      <point x="347" y="739" type="qcurve"/>
      <point x="347" y="1154" type="line" smooth="yes"/>
      <point x="347" y="1304"/>
      <point x="226" y="1304" type="qcurve" smooth="yes"/>
      <point x="170" y="1304"/>
      <point x="101" y="1227"/>
      <point x="101" y="1154" type="qcurve" smooth="yes"/>
      <point x="101" y="120" type="line" smooth="yes"/>
      <point x="101" y="32"/>
      <point x="165" y="-32"/>
      <point x="223" y="-32" type="qcurve" smooth="yes"/>
      <point x="288" y="-32"/>
      <point x="347" y="35"/>
      <point x="347" y="123" type="qcurve" smooth="yes"/>
      <point x="347" y="679" type="line"/>
      <point x="353" y="696"/>
      <point x="391" y="761"/>
      <point x="443" y="823"/>
      <point x="507" y="870"/>
      <point x="543" y="870" type="qcurve" smooth="yes"/>
      <point x="619" y="870"/>
      <point x="690" y="754"/>
      <point x="690" y="619" type="qcurve" smooth="yes"/>
      <point x="690" y="141" type="line" smooth="yes"/>
      <point x="690" y="45"/>
      <point x="759" y="-32"/>
      <point x="859" y="-32" type="qcurve" smooth="yes"/>
      <point x="1018" y="-32" type="line" smooth="yes"/>
      <point x="1088" y="-32"/>
      <point x="1190" y="-15"/>
      <point x="1255" y="30"/>
      <point x="1286" y="110"/>
      <point x="1286" y="172" type="qcurve" smooth="yes"/>
      <point x="1286" y="264"/>
      <point x="1239" y="369"/>
      <point x="1158" y="419"/>
      <point x="1049" y="432"/>
      <point x="984" y="432" type="qcurve"/>
      <point x="984" y="400" type="line"/>
      <point x="1066" y="400"/>
      <point x="1113" y="292"/>
      <point x="1113" y="172" type="qcurve" smooth="yes"/>
      <point x="1113" y="78"/>
      <point x="1074" y="-10"/>
      <point x="1018" y="-10" type="qcurve" smooth="yes"/>
      <point x="965" y="-10"/>
      <point x="935" y="82"/>
    </contour>
  </outline>
</glyph>
<glyph name="uni120D" format="2">
  <advance width="580"/>
  <unicode hex="120D"/>
  <outline>
    <contour>
      <point x="177" y="99" type="qcurve" smooth="yes"/>
      <point x="177" y="335" type="line" smooth="yes"/>
      <point x="177" y="342"/>
      <point x="199" y="378"/>
      <point x="237" y="414"/>
      <point x="285" y="442"/>
      <point x="312" y="442" type="qcurve" smooth="yes"/>
      <point x="369" y="442"/>
      <point x="406" y="398"/>
      <point x="406" y="356" type="qcurve" smooth="yes"/>
      <point x="406" y="70" type="line" smooth="yes"/>
      <point x="406" y="-17"/>
      <point x="469" y="-17" type="qcurve" smooth="yes"/>
      <point x="531" y="-17"/>
      <point x="531" y="69" type="qcurve" smooth="yes"/>
      <point x="531" y="278" type="line" smooth="yes"/>
      <point x="531" y="342"/>
      <point x="500" y="418"/>
      <point x="446" y="457"/>
      <point x="371" y="468"/>
      <point x="328" y="468" type="qcurve" smooth="yes"/>
      <point x="280" y="468"/>
      <point x="203" y="411"/>
      <point x="177" y="373" type="qcurve"/>
      <point x="177" y="588" type="line" smooth="yes"/>
      <point x="177" y="664"/>
      <point x="117" y="664" type="qcurve" smooth="yes"/>
      <point x="88" y="664"/>
      <point x="52" y="626"/>
      <point x="52" y="588" type="qcurve" smooth="yes"/>
      <point x="52" y="101" type="line" smooth="yes"/>
      <point x="52" y="76"/>
      <point x="60" y="33"/>
      <point x="80" y="2"/>
      <point x="113" y="-16"/>
      <point x="139" y="-16" type="qcurve" smooth="yes"/>
      <point x="219" y="-16" type="line" smooth="yes"/>
      <point x="256" y="-16"/>
      <point x="308" y="-8"/>
      <point x="341" y="15"/>
      <point x="357" y="56"/>
      <point x="357" y="89" type="qcurve" smooth="yes"/>
      <point x="357" y="135"/>
      <point x="333" y="188"/>
      <point x="292" y="214"/>
      <point x="236" y="220"/>
      <point x="203" y="220" type="qcurve"/>
      <point x="203" y="203" type="line"/>
      <point x="245" y="203"/>
      <point x="269" y="150"/>
      <point x="269" y="89" type="qcurve" smooth="yes"/>
      <point x="269" y="40"/>
      <point x="249" y="-5"/>
      <point x="219" y="-5" type="qcurve" smooth="yes"/>
      <point x="196" y="-5"/>
      <point x="177" y="50"/>
    </contour>
  </outline>
</glyph>
